{
.appVersion = "3148";
.formatVersion = 3;
classes = (
{
automatic = 1;
code = "A Aacute Abreve Acaron Acircumflex Adieresis Agrave Amacron Aogonek Aring Atilde AE B C Cacute Ccaron Ccedilla Cdotaccent D Eth Dcaron Dcroat E Eacute Ecaron Ecircumflex Edieresis Edotaccent Egrave Emacron Eogonek F G Gbreve Gcommaaccent Gdotaccent H Hbar I IJ Iacute Icircumflex Idieresis Idotaccent Igrave Imacron Iogonek J K Kcommaaccent L Lacute Lcaron Lcommaaccent Lslash M N Nacute Ncaron Ncommaaccent Ntilde Eng O Oacute Ocircumflex Odieresis Ograve Ohungarumlaut Omacron Oslash Otilde OE P Thorn Q R Racute Rcaron Rcommaaccent S Sacute Scaron Scedilla Scommaaccent Germandbls T Tcaron Tcommaaccent U Uacute Ubreve Ucircumflex Udieresis Ugrave Uhungarumlaut Umacron Uogonek Uring V W Wacute Wcircumflex Wdieresis Wgrave X Y Yacute Ycircumflex Ydieresis Ygrave Z Zacute Zcaron Zdotaccent";
name = Uppercase;
}
);
customParameters = (
{
name = fsType;
value = (
);
},
{
name = "Use Line Breaks";
value = 1;
},
{
name = "Use Typo Metrics";
value = 1;
}
);
date = "2023-01-05 09:57:08 +0000";
familyName = Gloock;
featurePrefixes = (
{
automatic = 1;
code = "languagesystem DFLT dflt;

languagesystem latn dflt;
languagesystem latn AZE;
languagesystem latn CRT;
languagesystem latn KAZ;
languagesystem latn TAT;
languagesystem latn TRK;
languagesystem latn ROM;
languagesystem latn MOL;
languagesystem latn CAT;
";
name = Languagesystems;
}
);
features = (
{
automatic = 1;
code = "feature sups;
feature frac;
feature ordn;
feature locl;
feature subs;
feature sinf;
feature numr;
feature dnom;
feature pnum;
feature tnum;
feature case;
feature zero;
";
tag = aalt;
},
{
automatic = 1;
code = "lookup ccmp_Other_1 {
	@CombiningTopAccents = [acutecomb brevecomb caroncomb circumflexcomb commaturnedabovecomb dieresiscomb dotaccentcomb gravecomb hungarumlautcomb macroncomb ringcomb tildecomb];
	@CombiningNonTopAccents = [cedillacomb ogonekcomb];
	sub [i j]' @CombiningTopAccents by [idotless jdotless];

glyphs = (
{
glyphname = A;
kernLeft = A2;
kernRight = A;
lastChange = "2023-01-05 10:52:45 +0000";
layers = (
{
anchors = (
{
name = bottom;
pos = (342,0);
},
{
name = ogonek;
pos = (616,10);
},
{
name = top;
pos = (342,750);
}
);
background = {
shapes = (
{
closed = 1;
nodes = (
(386,276,l),
(272,564,l),
(155,276,l)
);
},
{
closed = 1;
nodes = (
(341,765,l),
(350,765,l),
(610,119,ls),
(632,65,o),
(682,10,o),
(708,10,qs),
(711,10,l),
(711,0,l),
(391,0,l),
(391,10,l),
(395,10,ls),
(440,10,o),
(471,65,o),
(451,114,qs),
(391,263,l),
(150,263,l),
(94,124,ls),
(85,102,o),
(88,62,o),
(109,31,o),
(146,11,o),
(171,10,q),
(171,0,l),
(-24,0,l),
(-24,10,l),
(-10,11,o),
(19,31,o),
(46,61,o),
(69,99,o),
(77,119,qs)
);
}
);
};
layerId = "9BCDAEAC-6304-481D-8AE6-B16EBB77438F";
shapes = (
{
closed = 1;
nodes = (
(171,0,l),
(171,10,l),
(104,13,o),
(70,66,o),
(94,124,cs),
(150,263,l),
(391,263,l),
(451,114,ls),
(478,49,o),
(455,10,o),
(395,10,cs),
(391,10,l),
(391,0,l),
(711,0,l),
(711,10,l),
(708,10,ls),
(673,10,o),
(639,47,o),
(610,119,cs),
(350,765,l),
(341,765,l),
(77,119,ls),
(58,70,o),
(14,13,o),
(-24,10,c),
(-24,0,l)
);
},
{
closed = 1;
nodes = (
(272,564,l),
(386,276,l),
(155,276,l)
);
}
);
width = 684;
}
);
unicode = 65;
},
{
glyphname = Aacute;
kernLeft = A2;
kernRight = A;
lastChange = "2023-01-05 10:26:50 +0000";
layers = (
{
background = {
shapes = (
{
closed = 1;
nodes = (
(386,276,l),
(272,564,l),
(155,276,l)
);
},
{
closed = 1;
nodes = (
(341,765,l),
(350,765,l),
(610,119,ls),
(632,65,o),
(682,10,o),
(708,10,qs),
(711,10,l),
(711,0,l),
(391,0,l),
(391,10,l),
(395,10,ls),
(440,10,o),
(471,65,o),
(451,114,qs),
(391,263,l),
(150,263,l),
(94,124,ls),
(85,102,o),
(88,62,o),
(109,31,o),
(146,11,o),
(171,10,q),
(171,0,l),
(-24,0,l),
(-24,10,l),
(-10,11,o),
(19,31,o),
(46,61,o),
(69,99,o),
(77,119,qs)
);
},
{
closed = 1;
nodes = (
(497,918,l),
(497,913,l),
(297,773,l),
(290,783,l),
(428,976,l),
(433,976,l)
);
}
);
};
layerId = "9BCDAEAC-6304-481D-8AE6-B16EBB77438F";
shapes = (
{
ref = A;
},
{
pos = (270,242);
ref = acutecomb.case;
}
);
width = 684;
}
);
unicode = 193;
},
{
glyphname = Abreve;
kernLeft = J;
lastChange = "2023-01-05 10:27:17 +0000";
layers = (
{
background = {
shapes = (
{
closed = 1;
nodes = (
(386,276,l),
(272,564,l),
(155,276,l)
);
},
{
closed = 1;
nodes = (
(341,765,l),
(350,765,l),
(610,119,ls),
(632,65,o),
(682,10,o),
(708,10,qs),
(711,10,l),
(711,0,l),
(391,0,l),
(391,10,l),
(395,10,ls),
(440,10,o),
(471,65,o),
(451,114,qs),
(391,263,l),
(150,263,l),
(94,124,ls),
(85,102,o),
(88,62,o),
(109,31,o),
(146,11,o),
(171,10,q),
(171,0,l),
(-24,0,l),
(-24,10,l),
(-10,11,o),
(19,31,o),
(46,61,o),
(69,99,o),
(77,119,qs)
);
},
{
closed = 1;
nodes = (
(279,810,o),
(220,890,o),
(219,956,q),
(229,956,l),
(230,938,o),
(249,906,o),
(279,883,o),
(319,870,o),
(342,870,qs),
(365,870,o),
(405,883,o),
(435,906,o),
(454,938,o),
(455,956,q),
(465,956,l),
(464,890,o),
(404,810,o),
(342,810,qs)
);
}
);
};
layerId = "9BCDAEAC-6304-481D-8AE6-B16EBB77438F";
shapes = (
{
ref = A;
},
{
pos = (188,242);
ref = brevecomb.case;
}
);
width = 684;
}
);
unicode = 258;
},
{
glyphname = Acaron;
kernLeft = J;
lastChange = "2023-01-05 10:38:02 +0000";
layers = (
{
background = {
shapes = (
{
closed = 1;
nodes = (
(386,276,l),
(272,564,l),
(155,276,l)
);
},
{
closed = 1;
nodes = (
(341,765,l),
(350,765,l),
(610,119,ls),
(632,65,o),
(682,10,o),
(708,10,qs),
(711,10,l),
(711,0,l),
(391,0,l),
(391,10,l),
(395,10,ls),
(440,10,o),
(471,65,o),
(451,114,qs),
(391,263,l),
(150,263,l),
(94,124,ls),
(85,102,o),
(88,62,o),
(109,31,o),
(146,11,o),
(171,10,q),
(171,0,l),
(-24,0,l),
(-24,10,l),
(-10,11,o),
(19,31,o),
(46,61,o),
(69,99,o),
(77,119,qs)
);
},
{
closed = 1;
nodes = (
(367,793,l),
(316,793,l),
(189,989,l),
(196,996,l),
(342,863,l),
(488,996,l),
(495,989,l)
);
}
);
};
layerId = "9BCDAEAC-6304-481D-8AE6-B16EBB77438F";
shapes = (
{
ref = A;
},
{
pos = (167,242);
ref = caroncomb.case;
}
);
width = 684;
}
);
unicode = 461;
},
{
glyphname = Acircumflex;
kernLeft = A2;
kernRight = A;
lastChange = "2023-01-05 10:27:30 +0000";
layers = (
{
background = {
shapes = (
{
closed = 1;
nodes = (
(386,276,l),
(272,564,l),
(155,276,l)
);
},
{
closed = 1;
nodes = (
(341,765,l),
(350,765,l),
(610,119,ls),
(632,65,o),
(682,10,o),
(708,10,qs),
(711,10,l),
(711,0,l),
(391,0,l),
(391,10,l),
(395,10,ls),
(440,10,o),
(471,65,o),
(451,114,qs),
(391,263,l),
(150,263,l),
(94,124,ls),
(85,102,o),
(88,62,o),
(109,31,o),
(146,11,o),
(171,10,q),
(171,0,l),
(-24,0,l),
(-24,10,l),
(-10,11,o),
(19,31,o),
(46,61,o),
(69,99,o),
(77,119,qs)
);
},
{
closed = 1;
nodes = (
(321,976,l),
(372,976,l),
(499,780,l),
(492,773,l),
(346,906,l),
(200,773,l),
(193,780,l)
);
}
);
};
layerId = "9BCDAEAC-6304-481D-8AE6-B16EBB77438F";
shapes = (
{
ref = A;
},
{
pos = (167,242);
ref = circumflexcomb.case;
}
);
width = 684;
}
);
unicode = 194;
},
{
glyphname = Adieresis;
kernLeft = A2;
kernRight = A;
lastChange = "2023-01-05 10:27:46 +0000";
layers = (
{
background = {
shapes = (
{
closed = 1;
nodes = (
(386,276,l),
(272,564,l),
(155,276,l)
);
},
{
closed = 1;
nodes = (
(341,765,l),
(350,765,l),
(610,119,ls),
(632,65,o),
(682,10,o),
(708,10,qs),
(711,10,l),
(711,0,l),
(391,0,l),
(391,10,l),
(395,10,ls),
(440,10,o),
(471,65,o),
(451,114,qs),
(391,263,l),
(150,263,l),
(94,124,ls),
(85,102,o),
(88,62,o),
(109,31,o),
(146,11,o),
(171,10,q),
(171,0,l),
(-24,0,l),
(-24,10,l),
(-10,11,o),
(19,31,o),
(46,61,o),
(69,99,o),
(77,119,qs)
);
},
{
closed = 1;
nodes = (
(172,902,o),
(216,946,o),
(247,946,qs),
(277,946,o),
(322,902,o),
(322,871,qs),
(322,840,o),
(277,796,o),
(247,796,qs),
(216,796,o),
(172,840,o),
(172,871,qs)
);
},
{
closed = 1;
nodes = (
(370,902,o),
(414,946,o),
(445,946,qs),
(475,946,o),
(520,902,o),
(520,871,qs),
(520,840,o),
(475,796,o),
(445,796,qs),
(414,796,o),
(370,840,o),
(370,871,qs)
);
}
);
};
layerId = "9BCDAEAC-6304-481D-8AE6-B16EBB77438F";
shapes = (
{
ref = A;
},
{
pos = (136,242);
ref = dieresiscomb.case;
}
);
width = 684;
}
);
unicode = 196;
},
{
glyphname = Agrave;
kernLeft = A2;
kernRight = A;
lastChange = "2023-01-05 10:28:00 +0000";
layers = (
{
background = {
shapes = (
{
closed = 1;
nodes = (
(386,276,l),
(272,564,l),
(155,276,l)
);
},
{
closed = 1;
nodes = (
(341,765,l),
(350,765,l),
(610,119,ls),
(632,65,o),
(682,10,o),
(708,10,qs),
(711,10,l),
(711,0,l),
(391,0,l),
(391,10,l),
(395,10,ls),
(440,10,o),
(471,65,o),
(451,114,qs),
(391,263,l),
(150,263,l),
(94,124,ls),
(85,102,o),
(88,62,o),
(109,31,o),
(146,11,o),
(171,10,q),
(171,0,l),
(-24,0,l),
(-24,10,l),
(-10,11,o),
(19,31,o),
(46,61,o),
(69,99,o),
(77,119,qs)
);
},
{
closed = 1;
nodes = (
(396,773,l),
(196,913,l),
(196,918,l),
(260,976,l),
(265,976,l),
(403,783,l)
);
}
);
};
layerId = "9BCDAEAC-6304-481D-8AE6-B16EBB77438F";
shapes = (
{
ref = A;
},
{
pos = (165,242);
ref = gravecomb.case;
}
);
width = 684;
}
);
unicode = 192;
},
{
glyphname = Amacron;
kernLeft = J;
lastChange = "2023-01-05 10:28:14 +0000";
layers = (
{
background = {
shapes = (
{
closed = 1;
nodes = (
(386,276,l),
(272,564,l),
(155,276,l)
);
},
{
closed = 1;
nodes = (
(341,765,l),
(350,765,l),
(610,119,ls),
(632,65,o),
(682,10,o),
(708,10,qs),
(711,10,l),
(711,0,l),
(391,0,l),
(391,10,l),
(395,10,ls),
(440,10,o),
(471,65,o),
(451,114,qs),
(391,263,l),
(150,263,l),
(94,124,ls),
(85,102,o),
(88,62,o),
(109,31,o),
(146,11,o),
(171,10,q),
(171,0,l),
(-24,0,l),
(-24,10,l),
(-10,11,o),
(19,31,o),
(46,61,o),
(69,99,o),
(77,119,qs)
);
},
{
closed = 1;
nodes = (
(232,853,l),
(232,906,l),
(452,906,l),
(452,853,l)
);
}
);
};
layerId = "9BCDAEAC-6304-481D-8AE6-B16EBB77438F";
shapes = (
{
ref = A;
},
{
pos = (200,242);
ref = macroncomb.case;
}
);
width = 684;
}
);
unicode = 256;
},
{
glyphname = Aogonek;
kernLeft = J;
lastChange = "2023-01-05 10:28:30 +0000";
layers = (
{
background = {
shapes = (
{
closed = 1;
nodes = (
(386,276,l),
(272,564,l),
(155,276,l)
);
},
{
closed = 1;
nodes = (
(341,765,l),
(350,765,l),
(610,119,ls),
(632,65,o),
(682,10,o),
(708,10,qs),
(711,10,l),
(711,0,l),
(667,0,l),
(648,-6,o),
(616,-32,o),
(592,-70,o),
(579,-115,o),
(579,-140,qs),
(579,-172,o),
(602,-208,o),
(623,-208,qs),
(648,-208,o),
(691,-158,o),
(700,-119,q),
(711,-119,l),
(692,-218,l),
(666,-218,o),
(632,-225,o),
(608,-225,qs),
(556,-225,o),
(499,-177,o),
(499,-133,qs),
(499,-82,o),
(556,-13,o),
(604,0,q),
(391,0,l),
(391,10,l),
(395,10,ls),
(440,10,o),
(471,65,o),
(451,114,qs),
(391,263,l),
(150,263,l),
(94,124,ls),
(85,102,o),
(88,62,o),
(109,31,o),
(146,11,o),
(171,10,q),
(171,0,l),
(-24,0,l),
(-24,10,l),
(-10,11,o),
(19,31,o),
(46,61,o),
(69,99,o),
(77,119,qs)
);
}
);
};
layerId = "9BCDAEAC-6304-481D-8AE6-B16EBB77438F";
shapes = (
{
ref = A;
},
{
pos = (468,10);
ref = ogonekcomb.case;
}
);
width = 684;
}
);
unicode = 260;
},
{
glyphname = Aring;
kernLeft = A2;
kernRight = A;
lastChange = "2023-01-05 10:28:40 +0000";
layers = (
{
background = {
shapes = (
{
closed = 1;
nodes = (
(386,276,l),
(272,564,l),
(155,276,l)
);
},
{
closed = 1;
nodes = (
(290,858,o),
(323,825,o),
(346,825,qs),
(369,825,o),
(402,858,o),
(402,881,qs),
(402,904,o),
(369,937,o),
(346,937,qs),
(323,937,o),
(290,904,o),
(290,881,qs)
);
},
{
closed = 1;
nodes = (
(341,765,l),
(350,765,l),
(610,119,ls),
(632,65,o),
(682,10,o),
(708,10,qs),
(711,10,l),
(711,0,l),
(391,0,l),
(391,10,l),
(395,10,ls),
(440,10,o),
(471,65,o),
(451,114,qs),
(391,263,l),
(150,263,l),
(94,124,ls),
(85,102,o),
(88,62,o),
(109,31,o),
(146,11,o),
(171,10,q),
(171,0,l),
(-24,0,l),
(-24,10,l),
(-10,11,o),
(19,31,o),
(46,61,o),
(69,99,o),
(77,119,qs)
);
},
{
closed = 1;
nodes = (
(268,912,o),
(314,956,o),
(346,956,qs),
(377,956,o),
(423,912,o),
(423,881,qs),
(423,850,o),
(377,806,o),
(346,806,qs),
(314,806,o),
(268,850,o),
(268,881,qs)
);
}
);
};
layerId = "9BCDAEAC-6304-481D-8AE6-B16EBB77438F";
shapes = (
{
ref = A;
},
{
pos = (232,242);
ref = ringcomb.case;
}
);
width = 684;
}
);
unicode = 197;
},
{
glyphname = Atilde;
kernLeft = A2;
kernRight = A;
lastChange = "2023-01-05 10:28:54 +0000";
layers = (
{
background = {
shapes = (
{
closed = 1;
nodes = (
(386,276,l),
(272,564,l),
(155,276,l)
);
},
{
closed = 1;
nodes = (
(341,765,l),
(350,765,l),
(610,119,ls),
(632,65,o),
(682,10,o),
(708,10,qs),
(711,10,l),
(711,0,l),
(391,0,l),
(391,10,l),
(395,10,ls),
(440,10,o),
(471,65,o),
(451,114,qs),
(391,263,l),
(150,263,l),
(94,124,ls),
(85,102,o),
(88,62,o),
(109,31,o),
(146,11,o),
(171,10,q),
(171,0,l),
(-24,0,l),
(-24,10,l),
(-10,11,o),
(19,31,o),
(46,61,o),
(69,99,o),
(77,119,qs)
);
},
{
closed = 1;
nodes = (
(494,915,l),
(482,865,o),
(431,805,o),
(402,805,qs),
(382,805,o),
(350,823,o),
(321,844,o),
(292,862,o),
(275,862,qs),
(258,862,o),
(222,841,o),
(209,818,q),
(199,822,l),
(217,872,o),
(271,932,o),
(297,932,qs),
(317,932,o),
(348,914,o),
(377,893,o),
(406,875,o),
(424,875,qs),
(439,875,o),
(470,893,o),
(484,919,q)
);
}
);
};
layerId = "9BCDAEAC-6304-481D-8AE6-B16EBB77438F";
shapes = (
{
ref = A;
},
{
pos = (163,242);
ref = tildecomb.case;
}
);
width = 684;
}
);
unicode = 195;
},
{
glyphname = AE;
kernLeft = A2;
kernRight = E;
lastChange = "2023-01-05 10:52:45 +0000";
layers = (
{
anchors = (
{
name = bottom;
pos = (448,0);
},
{
name = top;
pos = (448,750);
}
);
background = {
shapes = (
{
closed = 1;
nodes = (
(380,655,l),
(178,276,l),
(380,276,l)
);
},
{
closed = 1;
nodes = (
(534,737,l),
(534,448,l),
(624,448,ls),
(674,448,o),
(734,509,o),
(734,559,q),
(744,559,l),
(744,313,l),
(734,313,l),
(733,368,o),
(667,435,o),
(613,435,qs),
(534,435,l),
(534,77,ls),
(534,48,o),
(569,13,o),
(598,13,qs),
(646,13,ls),
(843,13,o),
(873,220,q),
(883,220,l),
(853,0,l),
(298,0,l),
(299,10,l),
(300,10,l),
(336,10,o),
(380,54,o),
(380,90,qs),
(380,263,l),
(171,263,l),
(93,117,ls),
(68,72,o),
(105,13,o),
(160,10,q),
(160,0,l),
(-35,0,l),
(-35,10,l),
(-9,12,o),
(54,75,o),
(80,126,q),
(377,685,l),
(369,711,o),
(329,740,o),
(300,740,q),
(299,750,l),
(835,750,l),
(865,549,l),
(855,549,l),
(825,737,o),
(618,737,qs)
);
}
);
};
layerId = "9BCDAEAC-6304-481D-8AE6-B16EBB77438F";
shapes = (
{
closed = 1;
nodes = (
(160,0,l),
(160,10,l),
(87,14,o),
(60,57,o),
(93,117,cs),
(171,263,l),
(380,263,l),
(380,90,ls),
(380,42,o),
(348,10,o),
(300,10,cs),
(299,10,l),
(298,0,l),
(853,0,l),
(883,220,l),
(873,220,l),
(853,82,o),
(777,13,o),
(646,13,cs),
(598,13,ls),
(559,13,o),
(534,38,o),
(534,77,cs),
(534,435,l),
(613,435,ls),
(685,435,o),
(733,386,o),
(734,313,c),
(744,313,l),
(744,559,l),
(734,559,l),
(734,492,o),
(691,448,o),
(624,448,cs),
(534,448,l),
(534,737,l),
(618,737,ls),
(756,737,o),
(835,674,o),
(855,549,c),
(865,549,l),
(835,750,l),
(299,750,l),
(300,740,l),
(339,740,o),
(366,720,o),
(377,685,c),
(80,126,ls),
(45,58,o),
(0,13,o),
(-35,10,c),
(-35,0,l)
);
},
{
closed = 1;
nodes = (
(380,655,l),
(380,276,l),
(178,276,l)
);
}
);
width = 896;
}
);
unicode = 198;
},
{
glyphname = B;
kernLeft = B;
lastChange = "2023-01-05 10:52:45 +0000";
layers = (
{
anchors = (
{
name = bottom;
pos = (329,0);
},
{
name = center;
pos = (329,375);
},
{
name = top;
pos = (329,750);
}
);
background = {
shapes = (
{
closed = 1;
nodes = (
(385,13,o),
(472,125,o),
(472,220,qs),
(472,265,o),
(447,340,o),
(401,393,o),
(336,422,o),
(297,422,qs),
(235,422,l),
(235,84,ls),
(235,13,o),
(311,13,qs)
);
},
{
closed = 1;
nodes = (
(235,437,l),
(297,437,ls),
(348,437,o),
(411,518,o),
(411,586,qs),
(411,655,o),
(348,737,o),
(297,737,qs),
(235,737,l)
);
},
{
closed = 1;
nodes = (
(0,0,l),
(0,10,l),
(1,10,l),
(36,10,o),
(81,51,o),
(81,84,qs),
(81,666,l),
(79,700,o),
(36,740,o),
(1,740,q),
(0,740,l),
(0,750,l),
(297,750,ls),
(357,750,o),
(455,726,o),
(525,682,o),
(563,620,o),
(563,582,qs),
(563,553,o),
(537,502,o),
(490,462,o),
(424,435,o),
(384,430,q),
(440,427,o),
(531,396,o),
(596,344,o),
(632,274,o),
(632,232,qs),
(632,180,o),
(586,94,o),
(501,33,o),
(383,0,o),
(311,0,qs)
);
}
);
};
layerId = "9BCDAEAC-6304-481D-8AE6-B16EBB77438F";
shapes = (
{
closed = 1;
nodes = (
(311,0,ls),
(507,0,o),
(632,95,o),
(632,232,cs),
(632,345,o),
(531,422,o),
(384,430,c),
(490,443,o),
(563,504,o),
(563,582,cs),
(563,683,o),
(459,750,o),
(297,750,cs),
(0,750,l),
(0,740,l),
(1,740,ls),
(48,740,o),
(78,711,o),
(81,666,c),
(81,84,ls),
(81,40,o),
(48,10,o),
(1,10,cs),
(0,10,l),
(0,0,l)
);
},
{
closed = 1;
nodes = (
(260,13,o),
(235,37,o),
(235,84,cs),
(235,422,l),
(297,422,ls),
(403,422,o),
(472,341,o),
(472,220,cs),
(472,93,o),
(410,13,o),
(311,13,cs)
);
},
{
closed = 1;
nodes = (
(235,737,l),
(297,737,ls),
(365,737,o),
(411,678,o),
(411,586,cs),
(411,495,o),
(365,437,o),
(297,437,cs),
(235,437,l)
);
}
);
width = 657;
}
);
unicode = 66;
},
{
glyphname = C;
kernLeft = C;
lastChange = "2023-01-05 10:52:45 +0000";
layers = (
{
anchors = (
{
name = bottom;
pos = (446,0);
},
{
name = top;
pos = (441,750);
}
);
background = {
shapes = (
{
closed = 1;
nodes = (
(714,548,l),
(704,548,l),
(695,593,o),
(653,668,o),
(591,721,o),
(515,751,o),
(472,751,qs),
(414,751,o),
(316,695,o),
(246,594,o),
(207,453,o),
(207,369,qs),
(207,285,o),
(246,150,o),
(318,54,o),
(420,2,o),
(483,2,qs),
(579,2,o),
(704,117,o),
(719,220,q),
(729,220,l),
(700,4,l),
(664,4,o),
(608,-2,o),
(557,-8,o),
(505,-14,o),
(472,-14,qs),
(374,-14,o),
(214,42,o),
(100,144,o),
(37,288,o),
(37,376,qs),
(37,465,o),
(100,608,o),
(217,709,o),
(381,764,o),
(483,764,qs),
(516,764,o),
(559,759,o),
(599,753,o),
(647,748,o),
(684,748,q)
);
}
);
};
layerId = "9BCDAEAC-6304-481D-8AE6-B16EBB77438F";
shapes = (
{
closed = 1;
nodes = (
(556,-14,o),
(605,4,o),
(700,4,c),
(729,220,l),
(719,220,l),
(699,83,o),
(611,2,o),
(483,2,cs),
(315,2,o),
(207,146,o),
(207,369,cs),
(207,481,o),
(234,577,o),
(281,645,cs),
(328,712,o),
(395,751,o),
(472,751,cs),
(590,751,o),
(681,665,o),
(704,548,c),
(714,548,l),
(684,748,l),
(584,748,o),
(571,764,o),
(483,764,cs),
(209,764,o),
(37,612,o),
(37,376,cs),
(37,141,o),
(212,-14,o),
(472,-14,cs)
);
}
);
width = 742;
}
);
unicode = 67;
},
{
glyphname = Cacute;
kernLeft = J;
lastChange = "2023-01-05 10:48:18 +0000";
layers = (
{
background = {
shapes = (
{
closed = 1;
nodes = (
(714,548,l),
(704,548,l),
(695,593,o),
(653,668,o),
(591,721,o),
(515,751,o),
(472,751,qs),
(414,751,o),
(316,695,o),
(246,594,o),
(207,453,o),
(207,369,qs),
(207,285,o),
(246,150,o),
(318,54,o),
(420,2,o),
(483,2,qs),
(579,2,o),
(704,117,o),
(719,220,q),
(729,220,l),
(700,4,l),
(664,4,o),
(608,-2,o),
(557,-8,o),
(505,-14,o),
(472,-14,qs),
(374,-14,o),
(214,42,o),
(100,144,o),
(37,288,o),
(37,376,qs),
(37,465,o),
(100,608,o),
(217,709,o),
(381,764,o),
(483,764,qs),
(516,764,o),
(559,759,o),
(599,753,o),
(647,748,o),
(684,748,q)
);
},
{
closed = 1;
nodes = (
(345,783,l),
(338,793,l),
(475,986,l),
(480,986,l),
(545,928,l),
(545,923,l)
);
}
);
};
layerId = "9BCDAEAC-6304-481D-8AE6-B16EBB77438F";
shapes = (
{
ref = C;
},
{
pos = (369,242);
ref = acutecomb.case;
}
);
width = 742;
}
);
unicode = 262;
},
{
glyphname = Ccaron;
kernLeft = J;
lastChange = "2023-01-05 10:48:18 +0000";
layers = (
{
background = {
shapes = (
{
closed = 1;
nodes = (
(714,548,l),
(704,548,l),
(695,593,o),
(653,668,o),
(591,721,o),
(515,751,o),
(472,751,qs),
(414,751,o),
(316,695,o),
(246,594,o),
(207,453,o),
(207,369,qs),
(207,285,o),
(246,150,o),
(318,54,o),
(420,2,o),
(483,2,qs),
(579,2,o),
(704,117,o),
(719,220,q),
(729,220,l),
(700,4,l),
(664,4,o),
(608,-2,o),
(557,-8,o),
(505,-14,o),
(472,-14,qs),
(374,-14,o),
(214,42,o),
(100,144,o),
(37,288,o),
(37,376,qs),
(37,465,o),
(100,608,o),
(217,709,o),
(381,764,o),
(483,764,qs),
(516,764,o),
(559,759,o),
(599,753,o),
(647,748,o),
(684,748,q)
);
},
{
closed = 1;
nodes = (
(415,788,l),
(288,984,l),
(295,991,l),
(441,858,l),
(587,991,l),
(594,984,l),
(466,788,l)
);
}
);
};
layerId = "9BCDAEAC-6304-481D-8AE6-B16EBB77438F";
shapes = (
{
ref = C;
},
{
pos = (266,242);
ref = caroncomb.case;
}
);
width = 742;
}
);
unicode = 268;
},
{
glyphname = Ccedilla;
kernLeft = J;
lastChange = "2023-01-05 10:48:41 +0000";
layers = (
{
background = {
shapes = (
{
closed = 1;
nodes = (
(714,530,l),
(704,530,l),
(697,580,o),
(655,661,o),
(592,719,o),
(510,751,o),
(463,751,qs),
(407,751,o),
(313,694,o),
(245,592,o),
(207,451,o),
(207,367,qs),
(207,286,o),
(244,152,o),
(311,55,o),
(405,2,o),
(461,2,qs),
(570,2,o),
(703,114,o),
(719,220,q),
(729,220,l),
(700,4,l),
(664,4,o),
(608,-2,o),
(555,-8,o),
(500,-14,o),
(464,-14,qs),
(441,-14,l),
(424,-56,l),
(480,-57,o),
(547,-105,o),
(547,-145,qs),
(547,-181,o),
(488,-225,o),
(438,-225,qs),
(426,-225,o),
(410,-223,o),
(395,-220,o),
(378,-218,o),
(365,-218,q),
(346,-119,l),
(357,-119,l),
(375,-208,o),
(424,-208,qs),
(444,-208,o),
(467,-177,o),
(467,-150,qs),
(467,-117,o),
(434,-68,o),
(410,-63,q),
(410,-57,l),
(427,-13,l),
(339,-8,o),
(195,53,o),
(93,154,o),
(37,292,o),
(37,375,qs),
(37,462,o),
(98,606,o),
(210,708,o),
(367,764,o),
(463,764,qs),
(503,764,o),
(554,759,o),
(599,753,o),
(647,748,o),
(684,748,q)
);
}
);
};
layerId = "9BCDAEAC-6304-481D-8AE6-B16EBB77438F";
shapes = (
{
ref = C;
},
{
pos = (318,0);
ref = cedillacomb.case;
}
);
width = 742;
}
);
unicode = 199;
},
{
glyphname = Cdotaccent;
kernLeft = J;
lastChange = "2023-01-05 10:48:29 +0000";
layers = (
{
background = {
shapes = (
{
closed = 1;
nodes = (
(714,548,l),
(704,548,l),
(695,593,o),
(653,668,o),
(591,721,o),
(515,751,o),
(472,751,qs),
(414,751,o),
(316,695,o),
(246,594,o),
(207,453,o),
(207,369,qs),
(207,285,o),
(246,150,o),
(318,54,o),
(420,2,o),
(483,2,qs),
(579,2,o),
(704,117,o),
(719,220,q),
(729,220,l),
(700,4,l),
(664,4,o),
(608,-2,o),
(557,-8,o),
(505,-14,o),
(472,-14,qs),
(374,-14,o),
(214,42,o),
(100,144,o),
(37,288,o),
(37,376,qs),
(37,465,o),
(100,608,o),
(217,709,o),
(381,764,o),
(483,764,qs),
(516,764,o),
(559,759,o),
(599,753,o),
(647,748,o),
(684,748,q)
);
},
{
closed = 1;
nodes = (
(369,910,o),
(412,951,o),
(441,951,qs),
(470,951,o),
(514,910,o),
(514,881,qs),
(514,867,o),
(502,841,o),
(482,822,o),
(456,811,o),
(441,811,qs),
(412,811,o),
(369,852,o),
(369,881,qs)
);
}
);
};
layerId = "9BCDAEAC-6304-481D-8AE6-B16EBB77438F";
shapes = (
{
ref = C;
},
{
pos = (336,242);
ref = dotaccentcomb.case;
}
);
width = 742;
}
);
unicode = 266;
},
{
glyphname = D;
kernLeft = B;
kernRight = D;
lastChange = "2023-01-05 10:52:45 +0000";
layers = (
{
anchors = (
{
name = bottom;
pos = (414,0);
},
{
name = center;
pos = (414,375);
},
{
name = top;
pos = (344,750);
}
);
background = {
shapes = (
{
closed = 1;
nodes = (
(323,13,ls),
(390,13,o),
(500,60,o),
(578,151,o),
(620,287,o),
(620,376,qs),
(620,465,o),
(578,599,o),
(500,690,o),
(390,736,o),
(323,736,qs),
(235,736,l),
(235,84,ls),
(235,52,o),
(266,13,o),
(305,13,qs)
);
},
{
closed = 1;
nodes = (
(0,0,l),
(0,10,l),
(37,10,o),
(81,50,o),
(81,84,qs),
(81,665,ls),
(81,699,o),
(36,740,o),
(1,740,q),
(1,750,l),
(323,750,ls),
(429,750,o),
(601,702,o),
(723,607,o),
(790,466,o),
(790,374,qs),
(790,283,o),
(723,143,o),
(601,48,o),
(429,0,o),
(323,0,qs)
);
}
);
};
layerId = "9BCDAEAC-6304-481D-8AE6-B16EBB77438F";
shapes = (
{
closed = 1;
nodes = (
(323,0,ls),
(603,0,o),
(790,129,o),
(790,374,cs),
(790,620,o),
(604,750,o),
(323,750,cs),
(1,750,l),
(1,740,l),
(48,740,o),
(81,710,o),
(81,665,cs),
(81,84,ls),
(81,39,o),
(49,10,o),
(0,10,c),
(0,0,l)
);
},
{
closed = 1;
nodes = (
(253,13,o),
(235,41,o),
(235,84,cs),
(235,736,l),
(323,736,ls),
(502,736,o),
(620,614,o),
(620,376,cs),
(620,138,o),
(502,13,o),
(323,13,cs),
(305,13,ls)
);
}
);
width = 827;
}
);
unicode = 68;
},
{
glyphname = Eth;
kernLeft = J;
kernRight = D;
lastChange = "2023-01-05 10:52:45 +0000";
layers = (
{
background = {
shapes = (
{
closed = 1;
nodes = (
(323,13,ls),
(390,13,o),
(500,60,o),
(578,151,o),
(620,287,o),
(620,376,qs),
(620,465,o),
(578,599,o),
(500,690,o),
(390,736,o),
(323,736,qs),
(235,736,l),
(235,382,l),
(426,382,l),
(426,369,l),
(235,369,l),
(235,84,ls),
(235,52,o),
(266,13,o),
(305,13,qs)
);
},
{
closed = 1;
nodes = (
(0,0,l),
(0,10,l),
(37,10,o),
(81,50,o),
(81,84,qs),
(81,368,l),
(0,368,l),
(0,381,l),
(81,381,l),
(81,665,ls),
(81,699,o),
(36,740,o),
(1,740,q),
(1,750,l),
(323,750,ls),
(429,750,o),
(601,702,o),
(723,607,o),
(790,466,o),
(790,374,qs),
(790,283,o),
(723,143,o),
(601,48,o),
(429,0,o),
(323,0,qs)
);
}
);
};
layerId = "9BCDAEAC-6304-481D-8AE6-B16EBB77438F";
shapes = (
{
closed = 1;
nodes = (
(323,0,ls),
(603,0,o),
(790,129,o),
(790,374,cs),
(790,620,o),
(604,750,o),
(323,750,cs),
(1,750,l),
(1,740,l),
(48,740,o),
(81,710,o),
(81,665,cs),
(81,381,l),
(0,381,l),
(0,368,l),
(81,368,l),
(81,84,ls),
(81,39,o),
(49,10,o),
(0,10,c),
(0,0,l)
);
},
{
closed = 1;
nodes = (
(253,13,o),
(235,41,o),
(235,84,cs),
(235,369,l),
(426,369,l),
(426,382,l),
(235,382,l),
(235,736,l),
(323,736,ls),
(502,736,o),
(620,614,o),
(620,376,cs),
(620,138,o),
(502,13,o),
(323,13,cs),
(305,13,ls)
);
}
);
width = 827;
}
);
unicode = 208;
},
{
glyphname = Dcaron;
kernLeft = J;
lastChange = "2023-01-05 10:49:11 +0000";
layers = (
{
background = {
shapes = (
{
closed = 1;
nodes = (
(323,13,ls),
(390,13,o),
(500,60,o),
(578,151,o),
(620,287,o),
(620,376,qs),
(620,465,o),
(578,599,o),
(500,690,o),
(390,736,o),
(323,736,qs),
(235,736,l),
(235,84,ls),
(235,52,o),
(266,13,o),
(305,13,qs)
);
},
{
closed = 1;
nodes = (
(0,0,l),
(0,10,l),
(37,10,o),
(81,50,o),
(81,84,qs),
(81,665,ls),
(81,699,o),
(36,740,o),
(1,740,q),
(1,750,l),
(323,750,ls),
(429,750,o),
(601,702,o),
(723,607,o),
(790,466,o),
(790,374,qs),
(790,283,o),
(723,143,o),
(601,48,o),
(429,0,o),
(323,0,qs)
);
},
{
closed = 1;
nodes = (
(369,783,l),
(318,783,l),
(191,979,l),
(198,986,l),
(344,853,l),
(490,986,l),
(497,979,l)
);
}
);
};
layerId = "9BCDAEAC-6304-481D-8AE6-B16EBB77438F";
shapes = (
{
ref = D;
},
{
pos = (169,242);
ref = caroncomb.case;
}
);
width = 827;
}
);
unicode = 270;
},
{
glyphname = Dcroat;
kernLeft = J;
lastChange = "2023-01-05 10:21:30 +0000";
layers = (
{
background = {
shapes = (
{
closed = 1;
nodes = (
(323,13,ls),
(390,13,o),
(500,60,o),
(578,151,o),
(620,287,o),
(620,376,qs),
(620,465,o),
(578,599,o),
(500,690,o),
(390,736,o),
(323,736,qs),
(235,736,l),
(235,382,l),
(426,382,l),
(426,369,l),
(235,369,l),
(235,84,ls),
(235,52,o),
(266,13,o),
(305,13,qs)
);
},
{
closed = 1;
nodes = (
(0,0,l),
(0,10,l),
(37,10,o),
(81,50,o),
(81,84,qs),
(81,368,l),
(0,368,l),
(0,381,l),
(81,381,l),
(81,665,ls),
(81,699,o),
(36,740,o),
(1,740,q),
(1,750,l),
(323,750,ls),
(429,750,o),
(601,702,o),
(723,607,o),
(790,466,o),
(790,374,qs),
(790,283,o),
(723,143,o),
(601,48,o),
(429,0,o),
(323,0,qs)
);
}
);
};
layerId = "9BCDAEAC-6304-481D-8AE6-B16EBB77438F";
shapes = (
{
ref = Eth;
}
);
width = 827;
}
);
unicode = 272;
},
{
glyphname = E;
kernLeft = B;
kernRight = E;
lastChange = "2023-01-05 10:52:45 +0000";
layers = (
{
anchors = (
{
name = bottom;
pos = (303,0);
},
{
name = ogonek;
pos = (488,10);
},
{
name = top;
pos = (303,750);
},
{
name = topleft;
pos = (20,750);
}
);
background = {
shapes = (
{
closed = 1;
nodes = (
(356,13,ls),
(453,13,o),
(567,113,o),
(583,220,q),
(593,220,l),
(563,0,l),
(8,0,l),
(9,10,l),
(10,10,l),
(46,10,o),
(90,48,o),
(90,84,qs),
(90,660,ls),
(90,696,o),
(46,740,o),
(10,740,q),
(9,750,l),
(545,750,l),
(575,549,l),
(565,549,l),
(535,737,o),
(328,737,qs),
(244,737,l),
(244,448,l),
(334,448,ls),
(384,448,o),
(444,509,o),
(444,559,q),
(454,559,l),
(454,313,l),
(444,313,l),
(443,367,o),
(377,435,o),
(323,435,qs),
(244,435,l),
(244,84,ls),
(244,13,o),
(314,13,qs)
);
}
);
};
layerId = "9BCDAEAC-6304-481D-8AE6-B16EBB77438F";
shapes = (
{
closed = 1;
nodes = (
(563,0,l),
(593,220,l),
(583,220,l),
(562,77,o),
(485,13,o),
(356,13,cs),
(314,13,ls),
(267,13,o),
(244,37,o),
(244,84,cs),
(244,435,l),
(323,435,ls),
(395,435,o),
(443,385,o),
(444,313,c),
(454,313,l),
(454,559,l),
(444,559,l),
(444,492,o),
(401,448,o),
(334,448,cs),
(244,448,l),
(244,737,l),
(328,737,ls),
(466,737,o),
(545,674,o),
(565,549,c),
(575,549,l),
(545,750,l),
(9,750,l),
(10,740,l),
(58,740,o),
(90,708,o),
(90,660,cs),
(90,84,ls),
(90,36,o),
(58,10,o),
(10,10,cs),
(9,10,l),
(8,0,l)
);
}
);
width = 606;
}
);
unicode = 69;
},
{
glyphname = Eacute;
kernLeft = B;
kernRight = E;
lastChange = "2023-01-05 10:26:50 +0000";
layers = (
{
background = {
shapes = (
{
closed = 1;
nodes = (
(356,13,ls),
(453,13,o),
(567,113,o),
(583,220,q),
(593,220,l),
(563,0,l),
(8,0,l),
(9,10,l),
(10,10,l),
(46,10,o),
(90,48,o),
(90,84,qs),
(90,660,ls),
(90,696,o),
(46,740,o),
(10,740,q),
(9,750,l),
(545,750,l),
(575,549,l),
(565,549,l),
(535,737,o),
(328,737,qs),
(244,737,l),
(244,448,l),
(334,448,ls),
(384,448,o),
(444,509,o),
(444,559,q),
(454,559,l),
(454,313,l),
(444,313,l),
(443,367,o),
(377,435,o),
(323,435,qs),
(244,435,l),
(244,84,ls),
(244,13,o),
(314,13,qs)
);
},
{
closed = 1;
nodes = (
(248,783,l),
(241,793,l),
(378,986,l),
(383,986,l),
(447,928,l),
(447,923,l)
);
}
);
};
layerId = "9BCDAEAC-6304-481D-8AE6-B16EBB77438F";
shapes = (
{
ref = E;
},
{
pos = (231,242);
ref = acutecomb.case;
}
);
width = 606;
}
);
unicode = 201;
},
{
glyphname = Ecaron;
kernLeft = J;
lastChange = "2023-01-05 10:21:30 +0000";
layers = (
{
background = {
shapes = (
{
closed = 1;
nodes = (
(356,13,ls),
(453,13,o),
(567,113,o),
(583,220,q),
(593,220,l),
(563,0,l),
(8,0,l),
(9,10,l),
(10,10,l),
(46,10,o),
(90,48,o),
(90,84,qs),
(90,660,ls),
(90,696,o),
(46,740,o),
(10,740,q),
(9,750,l),
(545,750,l),
(575,549,l),
(565,549,l),
(535,737,o),
(328,737,qs),
(244,737,l),
(244,448,l),
(334,448,ls),
(384,448,o),
(444,509,o),
(444,559,q),
(454,559,l),
(454,313,l),
(444,313,l),
(443,367,o),
(377,435,o),
(323,435,qs),
(244,435,l),
(244,84,ls),
(244,13,o),
(314,13,qs)
);
},
{
closed = 1;
nodes = (
(277,783,l),
(150,979,l),
(157,986,l),
(303,853,l),
(449,986,l),
(456,979,l),
(328,783,l)
);
}
);
};
layerId = "9BCDAEAC-6304-481D-8AE6-B16EBB77438F";
shapes = (
{
ref = E;
},
{
pos = (128,242);
ref = caroncomb.case;
}
);
width = 606;
}
);
unicode = 282;
},
{
glyphname = Ecircumflex;
kernLeft = B;
kernRight = E;
lastChange = "2023-01-05 10:49:55 +0000";
layers = (
{
background = {
shapes = (
{
closed = 1;
nodes = (
(356,13,ls),
(453,13,o),
(567,113,o),
(583,220,q),
(593,220,l),
(563,0,l),
(8,0,l),
(9,10,l),
(10,10,l),
(46,10,o),
(90,48,o),
(90,84,qs),
(90,660,ls),
(90,696,o),
(46,740,o),
(10,740,q),
(9,750,l),
(545,750,l),
(575,549,l),
(565,549,l),
(535,737,o),
(328,737,qs),
(244,737,l),
(244,448,l),
(334,448,ls),
(384,448,o),
(444,509,o),
(444,559,q),
(454,559,l),
(454,313,l),
(444,313,l),
(443,367,o),
(377,435,o),
(323,435,qs),
(244,435,l),
(244,84,ls),
(244,13,o),
(314,13,qs)
);
},
{
closed = 1;
nodes = (
(450,790,l),
(443,783,l),
(297,916,l),
(151,783,l),
(144,790,l),
(271,986,l),
(322,986,l)
);
}
);
};
layerId = "9BCDAEAC-6304-481D-8AE6-B16EBB77438F";
shapes = (
{
ref = E;
},
{
pos = (128,242);
ref = circumflexcomb.case;
}
);
width = 606;
}
);
unicode = 202;
},
{
glyphname = Edieresis;
kernLeft = B;
kernRight = E;
lastChange = "2023-01-05 10:49:47 +0000";
layers = (
{
background = {
shapes = (
{
closed = 1;
nodes = (
(356,13,ls),
(453,13,o),
(567,113,o),
(583,220,q),
(593,220,l),
(563,0,l),
(8,0,l),
(9,10,l),
(10,10,l),
(46,10,o),
(90,48,o),
(90,84,qs),
(90,660,ls),
(90,696,o),
(46,740,o),
(10,740,q),
(9,750,l),
(545,750,l),
(575,549,l),
(565,549,l),
(535,737,o),
(328,737,qs),
(244,737,l),
(244,448,l),
(334,448,ls),
(384,448,o),
(444,509,o),
(444,559,q),
(454,559,l),
(454,313,l),
(444,313,l),
(443,367,o),
(377,435,o),
(323,435,qs),
(244,435,l),
(244,84,ls),
(244,13,o),
(314,13,qs)
);
},
{
closed = 1;
nodes = (
(123,912,o),
(167,956,o),
(198,956,qs),
(228,956,o),
(273,912,o),
(273,881,qs),
(273,850,o),
(228,806,o),
(198,806,qs),
(167,806,o),
(123,850,o),
(123,881,qs)
);
},
{
closed = 1;
nodes = (
(321,912,o),
(365,956,o),
(396,956,qs),
(426,956,o),
(471,912,o),
(471,881,qs),
(471,850,o),
(426,806,o),
(396,806,qs),
(365,806,o),
(321,850,o),
(321,881,qs)
);
}
);
};
layerId = "9BCDAEAC-6304-481D-8AE6-B16EBB77438F";
shapes = (
{
ref = E;
},
{
pos = (97,242);
ref = dieresiscomb.case;
}
);
width = 606;
}
);
unicode = 203;
},
{
glyphname = Edotaccent;
kernLeft = J;
lastChange = "2023-01-05 10:21:30 +0000";
layers = (
{
background = {
shapes = (
{
closed = 1;
nodes = (
(356,13,ls),
(453,13,o),
(567,113,o),
(583,220,q),
(593,220,l),
(563,0,l),
(8,0,l),
(9,10,l),
(10,10,l),
(46,10,o),
(90,48,o),
(90,84,qs),
(90,660,ls),
(90,696,o),
(46,740,o),
(10,740,q),
(9,750,l),
(545,750,l),
(575,549,l),
(565,549,l),
(535,737,o),
(328,737,qs),
(244,737,l),
(244,448,l),
(334,448,ls),
(384,448,o),
(444,509,o),
(444,559,q),
(454,559,l),
(454,313,l),
(444,313,l),
(443,367,o),
(377,435,o),
(323,435,qs),
(244,435,l),
(244,84,ls),
(244,13,o),
(314,13,qs)
);
},
{
closed = 1;
nodes = (
(231,910,o),
(274,951,o),
(303,951,qs),
(332,951,o),
(376,910,o),
(376,881,qs),
(376,867,o),
(364,841,o),
(344,822,o),
(318,811,o),
(303,811,qs),
(274,811,o),
(231,852,o),
(231,881,qs)
);
}
);
};
layerId = "9BCDAEAC-6304-481D-8AE6-B16EBB77438F";
shapes = (
{
ref = E;
},
{
pos = (198,242);
ref = dotaccentcomb.case;
}
);
width = 606;
}
);
unicode = 278;
},
{
glyphname = Egrave;
kernLeft = B;
kernRight = E;
lastChange = "2023-01-05 10:38:02 +0000";
layers = (
{
background = {
shapes = (
{
closed = 1;
nodes = (
(356,13,ls),
(453,13,o),
(567,113,o),
(583,220,q),
(593,220,l),
(563,0,l),
(8,0,l),
(9,10,l),
(10,10,l),
(46,10,o),
(90,48,o),
(90,84,qs),
(90,660,ls),
(90,696,o),
(46,740,o),
(10,740,q),
(9,750,l),
(545,750,l),
(575,549,l),
(565,549,l),
(535,737,o),
(328,737,qs),
(244,737,l),
(244,448,l),
(334,448,ls),
(384,448,o),
(444,509,o),
(444,559,q),
(454,559,l),
(454,313,l),
(444,313,l),
(443,367,o),
(377,435,o),
(323,435,qs),
(244,435,l),
(244,84,ls),
(244,13,o),
(314,13,qs)
);
},
{
closed = 1;
nodes = (
(90,924,l),
(154,982,l),
(159,982,l),
(297,789,l),
(290,779,l),
(90,919,l)
);
}
);
};
layerId = "9BCDAEAC-6304-481D-8AE6-B16EBB77438F";
shapes = (
{
ref = E;
},
{
pos = (126,242);
ref = gravecomb.case;
}
);
width = 606;
}
);
unicode = 200;
},
{
glyphname = Emacron;
kernLeft = J;
lastChange = "2023-01-05 10:21:30 +0000";
layers = (
{
background = {
shapes = (
{
closed = 1;
nodes = (
(356,13,ls),
(453,13,o),
(567,113,o),
(583,220,q),
(593,220,l),
(563,0,l),
(8,0,l),
(9,10,l),
(10,10,l),
(46,10,o),
(90,48,o),
(90,84,qs),
(90,660,ls),
(90,696,o),
(46,740,o),
(10,740,q),
(9,750,l),
(545,750,l),
(575,549,l),
(565,549,l),
(535,737,o),
(328,737,qs),
(244,737,l),
(244,448,l),
(334,448,ls),
(384,448,o),
(444,509,o),
(444,559,q),
(454,559,l),
(454,313,l),
(444,313,l),
(443,367,o),
(377,435,o),
(323,435,qs),
(244,435,l),
(244,84,ls),
(244,13,o),
(314,13,qs)
);
},
{
closed = 1;
nodes = (
(193,906,l),
(413,906,l),
(413,853,l),
(193,853,l)
);
}
);
};
layerId = "9BCDAEAC-6304-481D-8AE6-B16EBB77438F";
shapes = (
{
ref = E;
},
{
pos = (161,242);
ref = macroncomb.case;
}
);
width = 606;
}
);
unicode = 274;
},
{
glyphname = Eogonek;
kernLeft = J;
lastChange = "2023-01-05 10:50:22 +0000";
layers = (
{
background = {
shapes = (
{
closed = 1;
nodes = (
(356,13,ls),
(453,13,o),
(567,113,o),
(583,220,q),
(593,220,l),
(563,0,l),
(539,0,l),
(520,-6,o),
(488,-32,o),
(464,-70,o),
(451,-115,o),
(451,-140,qs),
(451,-172,o),
(474,-208,o),
(495,-208,qs),
(520,-208,o),
(563,-158,o),
(572,-119,q),
(583,-119,l),
(564,-218,l),
(538,-218,o),
(504,-225,o),
(480,-225,qs),
(428,-225,o),
(371,-177,o),
(371,-133,qs),
(371,-82,o),
(428,-13,o),
(476,0,q),
(8,0,l),
(9,10,l),
(10,10,l),
(46,10,o),
(90,48,o),
(90,84,qs),
(90,660,ls),
(90,696,o),
(46,740,o),
(10,740,q),
(9,750,l),
(545,750,l),
(575,549,l),
(565,549,l),
(535,737,o),
(328,737,qs),
(244,737,l),
(244,448,l),
(334,448,ls),
(384,448,o),
(444,509,o),
(444,559,q),
(454,559,l),
(454,313,l),
(444,313,l),
(443,367,o),
(377,435,o),
(323,435,qs),
(244,435,l),
(244,84,ls),
(244,13,o),
(314,13,qs)
);
}
);
};
layerId = "9BCDAEAC-6304-481D-8AE6-B16EBB77438F";
shapes = (
{
ref = E;
},
{
pos = (340,10);
ref = ogonekcomb.case;
}
);
width = 606;
}
);
unicode = 280;
},
{
glyphname = F;
kernLeft = B;
lastChange = "2023-01-05 10:52:45 +0000";
layers = (
{
anchors = (
{
name = bottom;
pos = (285,0);
},
{
name = top;
pos = (285,750);
}
);
background = {
shapes = (
{
closed = 1;
nodes = (
(320,0,l),
(0,0,l),
(2,10,l),
(5,10,ls),
(41,10,o),
(85,54,o),
(85,90,qs),
(85,660,ls),
(85,696,o),
(41,740,o),
(5,740,q),
(4,750,l),
(539,750,l),
(569,548,l),
(560,548,l),
(530,737,o),
(322,737,qs),
(239,737,l),
(239,436,l),
(317,436,ls),
(367,436,o),
(427,499,o),
(427,549,q),
(437,549,l),
(437,299,l),
(427,299,l),
(427,353,o),
(361,423,o),
(307,423,qs),
(239,423,l),
(239,82,ls),
(239,49,o),
(285,10,o),
(319,10,q)
);
}
);
};
layerId = "9BCDAEAC-6304-481D-8AE6-B16EBB77438F";
shapes = (
{
closed = 1;
nodes = (
(320,0,l),
(319,10,l),
(274,10,o),
(239,38,o),
(239,82,cs),
(239,423,l),
(307,423,ls),
(379,423,o),
(427,371,o),
(427,299,c),
(437,299,l),
(437,549,l),
(427,549,l),
(427,482,o),
(384,436,o),
(317,436,cs),
(239,436,l),
(239,737,l),
(322,737,ls),
(461,737,o),
(540,674,o),
(560,548,c),
(569,548,l),
(539,750,l),
(4,750,l),
(5,740,l),
(53,740,o),
(85,708,o),
(85,660,cs),
(85,90,ls),
(85,42,o),
(53,10,o),
(5,10,cs),
(2,10,l),
(0,0,l)
);
}
);
width = 569;
}
);
unicode = 70;
},
{
glyphname = G;
kernLeft = C;
lastChange = "2023-01-05 10:52:45 +0000";
layers = (
{
anchors = (
{
name = bottom;
pos = (443,0);
},
{
name = top;
pos = (433,750);
}
);
background = {
shapes = (
{
closed = 1;
nodes = (
(405,751,o),
(311,697,o),
(245,600,o),
(208,462,o),
(208,378,qs),
(208,293,o),
(242,154,o),
(305,56,o),
(395,2,o),
(450,2,qs),
(491,2,o),
(566,30,o),
(586,51,q),
(586,306,ls),
(586,342,o),
(542,386,o),
(506,386,qs),
(503,386,l),
(503,396,l),
(825,396,l),
(825,386,l),
(821,386,ls),
(785,386,o),
(741,342,o),
(741,306,qs),
(741,51,l),
(727,37,o),
(672,13,o),
(600,-4,o),
(515,-14,o),
(471,-14,qs),
(371,-14,o),
(211,41,o),
(98,142,o),
(37,287,o),
(37,377,qs),
(37,464,o),
(98,607,o),
(210,708,o),
(366,764,o),
(462,764,qs),
(502,764,o),
(552,759,o),
(594,753,o),
(641,748,o),
(678,748,q),
(708,548,l),
(698,548,l),
(689,595,o),
(648,671,o),
(587,723,o),
(508,751,o),
(462,751,qs)
);
}
);
};
layerId = "9BCDAEAC-6304-481D-8AE6-B16EBB77438F";
shapes = (
{
closed = 1;
nodes = (
(579,-14,o),
(701,11,o),
(741,51,c),
(741,306,ls),
(741,354,o),
(773,386,o),
(821,386,cs),
(825,386,l),
(825,396,l),
(503,396,l),
(503,386,l),
(506,386,ls),
(554,386,o),
(586,354,o),
(586,306,cs),
(586,51,l),
(559,23,o),
(505,2,o),
(450,2,cs),
(377,2,o),
(316,40,o),
(274,105,cs),
(232,170,o),
(208,265,o),
(208,378,cs),
(208,490,o),
(234,584,o),
(278,649,cs),
(322,713,o),
(386,751,o),
(462,751,cs),
(586,751,o),
(674,674,o),
(698,548,c),
(708,548,l),
(678,748,l),
(578,748,o),
(567,764,o),
(462,764,cs),
(206,764,o),
(37,608,o),
(37,377,cs),
(37,138,o),
(204,-14,o),
(471,-14,cs)
);
}
);
width = 825;
}
);
unicode = 71;
},
{
glyphname = Gbreve;
kernLeft = J;
lastChange = "2023-01-05 10:50:46 +0000";
layers = (
{
background = {
shapes = (
{
closed = 1;
nodes = (
(405,751,o),
(311,697,o),
(245,600,o),
(208,462,o),
(208,378,qs),
(208,293,o),
(242,154,o),
(305,56,o),
(395,2,o),
(450,2,qs),
(491,2,o),
(566,30,o),
(586,51,q),
(586,306,ls),
(586,342,o),
(542,386,o),
(506,386,qs),
(503,386,l),
(503,396,l),
(825,396,l),
(825,386,l),
(821,386,ls),
(785,386,o),
(741,342,o),
(741,306,qs),
(741,51,l),
(727,37,o),
(672,13,o),
(600,-4,o),
(515,-14,o),
(471,-14,qs),
(371,-14,o),
(211,41,o),
(98,142,o),
(37,287,o),
(37,377,qs),
(37,464,o),
(98,607,o),
(210,708,o),
(366,764,o),
(462,764,qs),
(502,764,o),
(552,759,o),
(594,753,o),
(641,748,o),
(678,748,q),
(708,548,l),
(698,548,l),
(689,595,o),
(648,671,o),
(587,723,o),
(508,751,o),
(462,751,qs)
);
},
{
closed = 1;
nodes = (
(360,820,o),
(301,900,o),
(300,966,q),
(310,966,l),
(311,948,o),
(330,916,o),
(360,893,o),
(400,880,o),
(423,880,qs),
(446,880,o),
(486,893,o),
(516,916,o),
(535,948,o),
(536,966,q),
(546,966,l),
(545,900,o),
(485,820,o),
(423,820,qs)
);
}
);
};
layerId = "9BCDAEAC-6304-481D-8AE6-B16EBB77438F";
shapes = (
{
ref = G;
},
{
pos = (279,242);
ref = brevecomb.case;
}
);
width = 825;
}
);
unicode = 286;
},
{
glyphname = Gcommaaccent;
kernLeft = J;
lastChange = "2023-01-05 10:45:21 +0000";
layers = (
{
background = {
shapes = (
{
closed = 1;
nodes = (
(405,751,o),
(311,697,o),
(245,600,o),
(208,462,o),
(208,378,qs),
(208,293,o),
(242,154,o),
(305,56,o),
(395,2,o),
(450,2,qs),
(491,2,o),
(566,30,o),
(586,51,q),
(586,306,ls),
(586,342,o),
(542,386,o),
(506,386,qs),
(503,386,l),
(503,396,l),
(825,396,l),
(825,386,l),
(821,386,ls),
(785,386,o),
(741,342,o),
(741,306,qs),
(741,51,l),
(727,37,o),
(672,13,o),
(600,-4,o),
(515,-14,o),
(471,-14,qs),
(371,-14,o),
(211,41,o),
(98,142,o),
(37,287,o),
(37,377,qs),
(37,464,o),
(98,607,o),
(210,708,o),
(366,764,o),
(462,764,qs),
(502,764,o),
(552,759,o),
(594,753,o),
(641,748,o),
(678,748,q),
(708,548,l),
(698,548,l),
(689,595,o),
(648,671,o),
(587,723,o),
(508,751,o),
(462,751,qs)
);
},
{
closed = 1;
nodes = (
(361,-93,o),
(405,-52,o),
(440,-52,qs),
(477,-52,o),
(521,-101,o),
(521,-143,qs),
(521,-179,o),
(499,-235,o),
(462,-285,o),
(414,-335,o),
(388,-363,q),
(379,-359,l),
(395,-340,o),
(424,-310,o),
(446,-282,o),
(459,-255,o),
(459,-238,qs),
(459,-216,o),
(428,-199,o),
(392,-184,o),
(361,-158,o),
(361,-128,qs)
);
}
);
};
layerId = "9BCDAEAC-6304-481D-8AE6-B16EBB77438F";
shapes = (
{
ref = G;
},
{
pos = (336,-2);
ref = commaaccentcomb.case;
}
);
width = 825;
}
);
unicode = 290;
},
{
glyphname = Gdotaccent;
kernLeft = J;
lastChange = "2023-01-05 10:50:41 +0000";
layers = (
{
background = {
shapes = (
{
closed = 1;
nodes = (
(405,751,o),
(311,697,o),
(245,600,o),
(208,462,o),
(208,378,qs),
(208,293,o),
(242,154,o),
(305,56,o),
(395,2,o),
(450,2,qs),
(491,2,o),
(566,30,o),
(586,51,q),
(586,306,ls),
(586,342,o),
(542,386,o),
(506,386,qs),
(503,386,l),
(503,396,l),
(825,396,l),
(825,386,l),
(821,386,ls),
(785,386,o),
(741,342,o),
(741,306,qs),
(741,51,l),
(727,37,o),
(672,13,o),
(600,-4,o),
(515,-14,o),
(471,-14,qs),
(371,-14,o),
(211,41,o),
(98,142,o),
(37,287,o),
(37,377,qs),
(37,464,o),
(98,607,o),
(210,708,o),
(366,764,o),
(462,764,qs),
(502,764,o),
(552,759,o),
(594,753,o),
(641,748,o),
(678,748,q),
(708,548,l),
(698,548,l),
(689,595,o),
(648,671,o),
(587,723,o),
(508,751,o),
(462,751,qs)
);
},
{
closed = 1;
nodes = (
(358,912,o),
(402,956,o),
(433,956,qs),
(463,956,o),
(508,912,o),
(508,881,qs),
(508,850,o),
(463,806,o),
(433,806,qs),
(402,806,o),
(358,850,o),
(358,881,qs)
);
}
);
};
layerId = "9BCDAEAC-6304-481D-8AE6-B16EBB77438F";
shapes = (
{
ref = G;
},
{
pos = (328,242);
ref = dotaccentcomb.case;
}
);
width = 825;
}
);
unicode = 288;
},
{
glyphname = H;
kernLeft = H2;
kernRight = H;
lastChange = "2023-01-05 10:52:45 +0000";
layers = (
{
anchors = (
{
name = bottom;
pos = (403,0);
},
{
name = center;
pos = (403,375);
},
{
name = top;
pos = (403,750);
},
{
name = topleft;
pos = (20,750);
}
);
background = {
shapes = (
{
closed = 1;
nodes = (
(568,428,l),
(568,660,ls),
(568,696,o),
(524,740,o),
(488,740,qs),
(485,740,l),
(485,750,l),
(805,750,l),
(805,740,l),
(802,740,ls),
(766,740,o),
(722,696,o),
(722,660,qs),
(722,90,ls),
(722,54,o),
(766,10,o),
(802,10,qs),
(805,10,l),
(805,0,l),
(485,0,l),
(485,10,l),
(488,10,ls),
(524,10,o),
(568,54,o),
(568,90,qs),
(568,414,l),
(238,414,l),
(238,90,ls),
(238,54,o),
(282,10,o),
(318,10,qs),
(320,10,l),
(320,0,l),
(0,0,l),
(0,10,l),
(4,10,ls),
(40,10,o),
(84,54,o),
(84,90,qs),
(84,660,ls),
(84,696,o),
(40,740,o),
(4,740,qs),
(0,740,l),
(0,750,l),
(320,750,l),
(320,740,l),
(318,740,ls),
(282,740,o),
(238,696,o),
(238,660,qs),
(238,428,l)
);
}
);
};
layerId = "9BCDAEAC-6304-481D-8AE6-B16EBB77438F";
shapes = (
{
closed = 1;
nodes = (
(320,0,l),
(320,10,l),
(318,10,ls),
(270,10,o),
(238,42,o),
(238,90,cs),
(238,414,l),
(568,414,l),
(568,90,ls),
(568,42,o),
(536,10,o),
(488,10,cs),
(485,10,l),
(485,0,l),
(805,0,l),
(805,10,l),
(802,10,ls),
(754,10,o),
(722,42,o),
(722,90,cs),
(722,660,ls),
(722,708,o),
(754,740,o),
(802,740,cs),
(805,740,l),
(805,750,l),
(485,750,l),
(485,740,l),
(488,740,ls),
(536,740,o),
(568,708,o),
(568,660,cs),
(568,428,l),
(238,428,l),
(238,660,ls),
(238,708,o),
(270,740,o),
(318,740,cs),
(320,740,l),
(320,750,l),
(0,750,l),
(0,740,l),
(4,740,ls),
(52,740,o),
(84,708,o),
(84,660,cs),
(84,90,ls),
(84,42,o),
(52,10,o),
(4,10,cs),
(0,10,l),
(0,0,l)
);
}
);
width = 805;
}
);
unicode = 72;
},
{
glyphname = Hbar;
kernLeft = J;
lastChange = "2023-01-05 10:52:45 +0000";
layers = (
{
background = {
shapes = (
{
closed = 1;
nodes = (
(238,542,l),
(238,428,l),
(568,428,l),
(568,542,l)
);
},
{
closed = 1;
nodes = (
(7,542,l),
(7,556,l),
(84,556,l),
(84,660,ls),
(84,696,o),
(40,740,o),
(4,740,qs),
(0,740,l),
(0,750,l),
(320,750,l),
(320,740,l),
(318,740,ls),
(282,740,o),
(238,696,o),
(238,660,qs),
(238,556,l),
(568,556,l),
(568,660,ls),
(568,696,o),
(524,740,o),
(488,740,qs),
(485,740,l),
(485,750,l),
(805,750,l),
(805,740,l),
(802,740,ls),
(766,740,o),
(722,696,o),
(722,660,qs),
(722,556,l),
(799,556,l),
(799,542,l),
(722,542,l),
(722,90,ls),
(722,54,o),
(766,10,o),
(802,10,qs),
(805,10,l),
(805,0,l),
(485,0,l),
(485,10,l),
(488,10,ls),
(524,10,o),
(568,54,o),
(568,90,qs),
(568,414,l),
(238,414,l),
(238,90,ls),
(238,54,o),
(282,10,o),
(318,10,qs),
(320,10,l),
(320,0,l),
(0,0,l),
(0,10,l),
(4,10,ls),
(40,10,o),
(84,54,o),
(84,90,qs),
(84,542,l)
);
}
);
};
layerId = "9BCDAEAC-6304-481D-8AE6-B16EBB77438F";
shapes = (
{
closed = 1;
nodes = (
(320,0,l),
(320,10,l),
(318,10,ls),
(270,10,o),
(238,42,o),
(238,90,cs),
(238,414,l),
(568,414,l),
(568,90,ls),
(568,42,o),
(536,10,o),
(488,10,cs),
(485,10,l),
(485,0,l),
(805,0,l),
(805,10,l),
(802,10,ls),
(754,10,o),
(722,42,o),
(722,90,cs),
(722,542,l),
(799,542,l),
(799,556,l),
(722,556,l),
(722,660,ls),
(722,708,o),
(754,740,o),
(802,740,cs),
(805,740,l),
(805,750,l),
(485,750,l),
(485,740,l),
(488,740,ls),
(536,740,o),
(568,708,o),
(568,660,cs),
(568,556,l),
(238,556,l),
(238,660,ls),
(238,708,o),
(270,740,o),
(318,740,cs),
(320,740,l),
(320,750,l),
(0,750,l),
(0,740,l),
(4,740,ls),
(52,740,o),
(84,708,o),
(84,660,cs),
(84,556,l),
(7,556,l),
(7,542,l),
(84,542,l),
(84,90,ls),
(84,42,o),
(52,10,o),
(4,10,cs),
(0,10,l),
(0,0,l)
);
},
{
closed = 1;
nodes = (
(238,542,l),
(568,542,l),
(568,428,l),
(238,428,l)
);
}
);
width = 805;
}
);
unicode = 294;
},
{
glyphname = I;
kernLeft = H2;
kernRight = H;
lastChange = "2023-01-05 10:52:45 +0000";
layers = (
{
anchors = (
{
name = bottom;
pos = (159,0);
},
{
name = ogonek;
pos = (172,10);
},
{
name = top;
pos = (159,750);
},
{
name = topleft;
pos = (20,750);
}
);
background = {
shapes = (
{
closed = 1;
nodes = (
(317,10,l),
(317,0,l),
(0,0,l),
(0,10,l),
(1,10,l),
(37,10,o),
(81,54,o),
(81,90,qs),
(81,660,ls),
(81,696,o),
(37,740,o),
(1,740,q),
(0,740,l),
(0,750,l),
(317,750,l),
(317,740,l),
(316,740,l),
(280,740,o),
(236,696,o),
(236,660,qs),
(236,90,ls),
(236,54,o),
(280,10,o),
(316,10,q)
);
}
);
};
layerId = "9BCDAEAC-6304-481D-8AE6-B16EBB77438F";
shapes = (
{
closed = 1;
nodes = (
(317,0,l),
(317,10,l),
(316,10,ls),
(268,10,o),
(236,42,o),
(236,90,cs),
(236,660,ls),
(236,708,o),
(268,740,o),
(316,740,cs),
(317,740,l),
(317,750,l),
(0,750,l),
(0,740,l),
(1,740,ls),
(49,740,o),
(81,708,o),
(81,660,cs),
(81,90,ls),
(81,42,o),
(49,10,o),
(1,10,cs),
(0,10,l),
(0,0,l)
);
}
);
width = 317;
}
);
unicode = 73;
},
{
glyphname = IJ;
kernLeft = J;
lastChange = "2023-01-05 10:21:30 +0000";
layers = (
{
background = {
shapes = (
{
closed = 1;
nodes = (
(550,62,ls),
(550,11,o),
(515,-76,o),
(452,-141,o),
(362,-182,o),
(308,-187,q),
(307,-178,l),
(328,-176,o),
(362,-140,o),
(386,-77,o),
(399,10,o),
(399,62,qs),
(399,660,ls),
(399,696,o),
(355,740,o),
(319,740,qs),
(316,740,ls),
(280,740,o),
(236,696,o),
(236,660,qs),
(236,90,ls),
(236,54,o),
(280,10,o),
(316,10,q),
(317,10,l),
(317,0,l),
(0,0,l),
(0,10,l),
(1,10,l),
(37,10,o),
(81,54,o),
(81,90,qs),
(81,660,ls),
(81,696,o),
(37,740,o),
(1,740,q),
(0,740,l),
(0,750,l),
(631,750,l),
(631,740,l),
(630,740,l),
(594,740,o),
(550,696,o),
(550,660,qs)
);
}
);
};
layerId = "9BCDAEAC-6304-481D-8AE6-B16EBB77438F";
shapes = (
{
ref = I;
},
{
pos = (317,0);
ref = J;
}
);
width = 631;
}
);
unicode = 306;
},
{
glyphname = Iacute;
kernLeft = H2;
kernRight = H;
lastChange = "2023-01-05 10:26:50 +0000";
layers = (
{
background = {
shapes = (
{
closed = 1;
nodes = (
(317,10,l),
(317,0,l),
(0,0,l),
(0,10,l),
(1,10,l),
(37,10,o),
(81,54,o),
(81,90,qs),
(81,660,ls),
(81,696,o),
(37,740,o),
(1,740,q),
(0,740,l),
(0,750,l),
(317,750,l),
(317,740,l),
(316,740,l),
(280,740,o),
(236,696,o),
(236,660,qs),
(236,90,ls),
(236,54,o),
(280,10,o),
(316,10,q)
);
},
{
closed = 1;
nodes = (
(64,783,l),
(57,793,l),
(194,986,l),
(199,986,l),
(263,928,l),
(263,923,l)
);
}
);
};
layerId = "9BCDAEAC-6304-481D-8AE6-B16EBB77438F";
shapes = (
{
ref = I;
},
{
pos = (87,242);
ref = acutecomb.case;
}
);
width = 317;
}
);
unicode = 205;
},
{
glyphname = Icircumflex;
kernLeft = H2;
kernRight = H;
lastChange = "2023-01-05 10:21:30 +0000";
layers = (
{
background = {
shapes = (
{
closed = 1;
nodes = (
(317,10,l),
(317,0,l),
(0,0,l),
(0,10,l),
(1,10,l),
(37,10,o),
(81,54,o),
(81,90,qs),
(81,660,ls),
(81,696,o),
(37,740,o),
(1,740,q),
(0,740,l),
(0,750,l),
(317,750,l),
(317,740,l),
(316,740,l),
(280,740,o),
(236,696,o),
(236,660,qs),
(236,90,ls),
(236,54,o),
(280,10,o),
(316,10,q)
);
},
{
closed = 1;
nodes = (
(312,790,l),
(305,783,l),
(159,916,l),
(13,783,l),
(6,790,l),
(133,986,l),
(184,986,l)
);
}
);
};
layerId = "9BCDAEAC-6304-481D-8AE6-B16EBB77438F";
shapes = (
{
ref = I;
},
{
pos = (-16,242);
ref = circumflexcomb.case;
}
);
width = 317;
}
);
unicode = 206;
},
{
glyphname = Idieresis;
kernLeft = H2;
kernRight = H;
lastChange = "2023-01-05 10:21:30 +0000";
layers = (
{
background = {
shapes = (
{
closed = 1;
nodes = (
(317,10,l),
(317,0,l),
(0,0,l),
(0,10,l),
(1,10,l),
(37,10,o),
(81,54,o),
(81,90,qs),
(81,660,ls),
(81,696,o),
(37,740,o),
(1,740,q),
(0,740,l),
(0,750,l),
(317,750,l),
(317,740,l),
(316,740,l),
(280,740,o),
(236,696,o),
(236,660,qs),
(236,90,ls),
(236,54,o),
(280,10,o),
(316,10,q)
);
},
{
closed = 1;
nodes = (
(-15,912,o),
(30,956,o),
(61,956,qs),
(91,956,o),
(136,912,o),
(136,881,qs),
(136,850,o),
(91,806,o),
(61,806,qs),
(30,806,o),
(-15,850,o),
(-15,881,qs)
);
},
{
closed = 1;
nodes = (
(184,912,o),
(228,956,o),
(259,956,qs),
(289,956,o),
(334,912,o),
(334,881,qs),
(334,850,o),
(289,806,o),
(259,806,qs),
(228,806,o),
(184,850,o),
(184,881,qs)
);
}
);
};
layerId = "9BCDAEAC-6304-481D-8AE6-B16EBB77438F";
shapes = (
{
ref = I;
},
{
pos = (-47,242);
ref = dieresiscomb.case;
}
);
width = 317;
}
);
unicode = 207;
},
{
glyphname = Idotaccent;
kernLeft = J;
lastChange = "2023-01-05 10:21:30 +0000";
layers = (
{
background = {
shapes = (
{
closed = 1;
nodes = (
(317,10,l),
(317,0,l),
(0,0,l),
(0,10,l),
(1,10,l),
(37,10,o),
(81,54,o),
(81,90,qs),
(81,660,ls),
(81,696,o),
(37,740,o),
(1,740,q),
(0,740,l),
(0,750,l),
(317,750,l),
(317,740,l),
(316,740,l),
(280,740,o),
(236,696,o),
(236,660,qs),
(236,90,ls),
(236,54,o),
(280,10,o),
(316,10,q)
);
},
{
closed = 1;
nodes = (
(84,912,o),
(128,956,o),
(159,956,qs),
(189,956,o),
(234,912,o),
(234,881,qs),
(234,850,o),
(189,806,o),
(159,806,qs),
(128,806,o),
(84,850,o),
(84,881,qs)
);
}
);
};
layerId = "9BCDAEAC-6304-481D-8AE6-B16EBB77438F";
shapes = (
{
ref = I;
},
{
pos = (54,242);
ref = dotaccentcomb.case;
}
);
width = 317;
}
);
unicode = 304;
},
{
glyphname = Igrave;
kernLeft = H2;
kernRight = H;
lastChange = "2023-01-05 10:38:02 +0000";
layers = (
{
background = {
shapes = (
{
closed = 1;
nodes = (
(317,10,l),
(317,0,l),
(0,0,l),
(0,10,l),
(1,10,l),
(37,10,o),
(81,54,o),
(81,90,qs),
(81,660,ls),
(81,696,o),
(37,740,o),
(1,740,q),
(0,740,l),
(0,750,l),
(317,750,l),
(317,740,l),
(316,740,l),
(280,740,o),
(236,696,o),
(236,660,qs),
(236,90,ls),
(236,54,o),
(280,10,o),
(316,10,q)
);
},
{
closed = 1;
nodes = (
(56,928,l),
(120,986,l),
(125,986,l),
(263,793,l),
(256,783,l),
(56,923,l)
);
}
);
};
layerId = "9BCDAEAC-6304-481D-8AE6-B16EBB77438F";
shapes = (
{
ref = I;
},
{
pos = (-18,242);
ref = gravecomb.case;
}
);
width = 317;
}
);
unicode = 204;
},
{
glyphname = Imacron;
kernLeft = J;
lastChange = "2023-01-05 10:21:30 +0000";
layers = (
{
background = {
shapes = (
{
closed = 1;
nodes = (
(317,10,l),
(317,0,l),
(0,0,l),
(0,10,l),
(1,10,l),
(37,10,o),
(81,54,o),
(81,90,qs),
(81,660,ls),
(81,696,o),
(37,740,o),
(1,740,q),
(0,740,l),
(0,750,l),
(317,750,l),
(317,740,l),
(316,740,l),
(280,740,o),
(236,696,o),
(236,660,qs),
(236,90,ls),
(236,54,o),
(280,10,o),
(316,10,q)
);
},
{
closed = 1;
nodes = (
(49,906,l),
(269,906,l),
(269,853,l),
(49,853,l)
);
}
);
};
layerId = "9BCDAEAC-6304-481D-8AE6-B16EBB77438F";
shapes = (
{
ref = I;
},
{
pos = (17,242);
ref = macroncomb.case;
}
);
width = 317;
}
);
unicode = 298;
},
{
glyphname = Iogonek;
kernLeft = J;
lastChange = "2023-01-05 10:51:18 +0000";
layers = (
{
background = {
shapes = (
{
closed = 1;
nodes = (
(317,10,l),
(317,0,l),
(223,0,l),
(204,-6,o),
(172,-32,o),
(148,-70,o),
(135,-115,o),
(135,-140,qs),
(135,-172,o),
(158,-208,o),
(179,-208,qs),
(204,-208,o),
(247,-158,o),
(256,-119,q),
(267,-119,l),
(248,-218,l),
(222,-218,o),
(188,-225,o),
(164,-225,qs),
(112,-225,o),
(55,-177,o),
(55,-133,qs),
(55,-82,o),
(112,-13,o),
(160,0,q),
(0,0,l),
(0,10,l),
(1,10,l),
(37,10,o),
(81,54,o),
(81,90,qs),
(81,660,ls),
(81,696,o),
(37,740,o),
(1,740,q),
(0,740,l),
(0,750,l),
(317,750,l),
(317,740,l),
(316,740,l),
(280,740,o),
(236,696,o),
(236,660,qs),
(236,90,ls),
(236,54,o),
(280,10,o),
(316,10,q)
);
}
);
};
layerId = "9BCDAEAC-6304-481D-8AE6-B16EBB77438F";
shapes = (
{
ref = I;
},
{
pos = (24,10);
ref = ogonekcomb.case;
}
);
width = 317;
}
);
unicode = 302;
},
{
glyphname = J;
kernLeft = J;
lastChange = "2023-01-05 10:52:45 +0000";
layers = (
{
anchors = (
{
name = bottom;
pos = (157,0);
},
{
name = top;
pos = (157,750);
}
);
background = {
shapes = (
{
closed = 1;
nodes = (
(233,62,ls),
(233,11,o),
(198,-76,o),
(135,-141,o),
(45,-182,o),
(-9,-187,q),
(-10,-178,l),
(11,-176,o),
(45,-140,o),
(69,-77,o),
(82,10,o),
(82,62,qs),
(82,660,ls),
(82,696,o),
(38,740,o),
(2,740,qs),
(0,740,l),
(0,750,l),
(314,750,l),
(314,740,l),
(313,740,l),
(277,740,o),
(233,696,o),
(233,660,qs)
);
}
);
};
layerId = "9BCDAEAC-6304-481D-8AE6-B16EBB77438F";
shapes = (
{
closed = 1;
nodes = (
(135,-174,o),
(233,-75,o),
(233,62,cs),
(233,660,ls),
(233,708,o),
(265,740,o),
(313,740,cs),
(314,740,l),
(314,750,l),
(0,750,l),
(0,740,l),
(2,740,ls),
(50,740,o),
(82,708,o),
(82,660,cs),
(82,62,ls),
(82,-80,o),
(46,-173,o),
(-10,-178,c),
(-9,-187,l)
);
}
);
width = 314;
}
);
unicode = 74;
},
{
glyphname = K;
kernLeft = B;
lastChange = "2023-01-05 10:52:45 +0000";
layers = (
{
anchors = (
{
name = bottom;
pos = (357,0);
},
{
name = top;
pos = (367,750);
}
);
background = {
shapes = (
{
closed = 1;
nodes = (
(473,740,l),
(473,750,l),
(685,750,l),
(685,740,l),
(672,739,o),
(632,730,o),
(590,714,o),
(551,693,o),
(537,681,qs),
(325,486,l),
(680,60,ls),
(698,38,o),
(740,10,o),
(760,10,q),
(760,0,l),
(464,0,l),
(464,10,l),
(506,10,o),
(527,43,o),
(505,69,qs),
(223,407,l),
(223,90,ls),
(223,54,o),
(267,10,o),
(303,10,qs),
(307,10,l),
(307,0,l),
(0,0,l),
(0,10,l),
(4,10,ls),
(40,10,o),
(84,54,o),
(84,90,qs),
(84,660,ls),
(84,696,o),
(40,740,o),
(4,740,qs),
(0,740,l),
(0,750,l),
(307,750,l),
(307,740,l),
(303,740,ls),
(267,740,o),
(223,696,o),
(223,660,qs),
(223,412,l),
(479,644,ls),
(499,662,o),
(520,697,o),
(519,724,o),
(497,740,o),
(474,740,q)
);
}
);
};
layerId = "9BCDAEAC-6304-481D-8AE6-B16EBB77438F";
shapes = (
{
closed = 1;
nodes = (
(307,0,l),
(307,10,l),
(303,10,ls),
(255,10,o),
(223,42,o),
(223,90,cs),
(223,407,l),
(505,69,ls),
(534,34,o),
(520,10,o),
(464,10,c),
(464,0,l),
(760,0,l),
(760,10,l),
(733,10,o),
(704,31,o),
(680,60,cs),
(325,486,l),
(537,681,ls),
(574,715,o),
(645,737,o),
(685,740,c),
(685,750,l),
(473,750,l),
(473,740,l),
(474,740,ls),
(535,740,o),
(533,693,o),
(479,644,cs),
(223,412,l),
(223,660,ls),
(223,708,o),
(255,740,o),
(303,740,cs),
(307,740,l),
(307,750,l),
(0,750,l),
(0,740,l),
(4,740,ls),
(52,740,o),
(84,708,o),
(84,660,cs),
(84,90,ls),
(84,42,o),
(52,10,o),
(4,10,cs),
(0,10,l),
(0,0,l)
);
}
);
width = 733;
}
);
unicode = 75;
},
{
glyphname = Kcommaaccent;
kernLeft = J;
lastChange = "2023-01-05 10:45:25 +0000";
layers = (
{
background = {
shapes = (
{
closed = 1;
nodes = (
(473,740,l),
(473,750,l),
(685,750,l),
(685,740,l),
(672,739,o),
(632,730,o),
(590,714,o),
(551,693,o),
(537,681,qs),
(325,486,l),
(680,60,ls),
(698,38,o),
(740,10,o),
(760,10,q),
(760,0,l),
(464,0,l),
(464,10,l),
(506,10,o),
(527,43,o),
(505,69,qs),
(223,407,l),
(223,90,ls),
(223,54,o),
(267,10,o),
(303,10,qs),
(307,10,l),
(307,0,l),
(0,0,l),
(0,10,l),
(4,10,ls),
(40,10,o),
(84,54,o),
(84,90,qs),
(84,660,ls),
(84,696,o),
(40,740,o),
(4,740,qs),
(0,740,l),
(0,750,l),
(307,750,l),
(307,740,l),
(303,740,ls),
(267,740,o),
(223,696,o),
(223,660,qs),
(223,412,l),
(479,644,ls),
(499,662,o),
(520,697,o),
(519,724,o),
(497,740,o),
(474,740,q)
);
},
{
closed = 1;
nodes = (
(276,-93,o),
(320,-52,o),
(355,-52,qs),
(392,-52,o),
(436,-101,o),
(436,-143,qs),
(436,-179,o),
(414,-235,o),
(377,-285,o),
(329,-335,o),
(303,-363,q),
(294,-359,l),
(310,-340,o),
(339,-310,o),
(361,-282,o),
(374,-255,o),
(374,-238,qs),
(374,-216,o),
(343,-199,o),
(307,-184,o),
(276,-158,o),
(276,-128,qs)
);
}
);
};
layerId = "9BCDAEAC-6304-481D-8AE6-B16EBB77438F";
shapes = (
{
ref = K;
},
{
pos = (250,-2);
ref = commaaccentcomb.case;
}
);
width = 733;
}
);
unicode = 310;
},
{
glyphname = L;
kernLeft = B;
lastChange = "2023-01-05 10:52:45 +0000";
layers = (
{
anchors = (
{
name = bottom;
pos = (303,0);
},
{
name = center;
pos = (285,375);
},
{
name = top;
pos = (124,750);
},
{
name = topright;
pos = (326,750);
}
);
background = {
shapes = (
{
closed = 1;
nodes = (
(326,13,ls),
(415,13,o),
(537,123,o),
(553,223,q),
(563,223,l),
(533,0,l),
(0,0,l),
(0,10,l),
(1,10,l),
(37,10,o),
(81,48,o),
(81,84,qs),
(81,660,ls),
(81,696,o),
(37,740,o),
(1,740,q),
(0,740,l),
(0,750,l),
(319,750,l),
(319,740,l),
(315,740,ls),
(279,740,o),
(235,696,o),
(235,660,qs),
(235,80,ls),
(235,48,o),
(266,13,o),
(305,13,qs)
);
}
);
};
layerId = "9BCDAEAC-6304-481D-8AE6-B16EBB77438F";
shapes = (
{
closed = 1;
nodes = (
(533,0,l),
(563,223,l),
(553,223,l),
(532,90,o),
(445,13,o),
(326,13,cs),
(305,13,ls),
(253,13,o),
(235,37,o),
(235,80,cs),
(235,660,ls),
(235,708,o),
(267,740,o),
(315,740,cs),
(319,740,l),
(319,750,l),
(0,750,l),
(0,740,l),
(1,740,ls),
(49,740,o),
(81,708,o),
(81,660,cs),
(81,84,ls),
(81,36,o),
(49,10,o),
(1,10,cs),
(0,10,l),
(0,0,l)
);
}
);
width = 569;
}
);
unicode = 76;
},
{
glyphname = Lacute;
kernLeft = J;
lastChange = "2023-01-05 10:51:34 +0000";
layers = (
{
background = {
shapes = (
{
closed = 1;
nodes = (
(326,13,ls),
(415,13,o),
(537,123,o),
(553,223,q),
(563,223,l),
(533,0,l),
(0,0,l),
(0,10,l),
(1,10,l),
(37,10,o),
(81,48,o),
(81,84,qs),
(81,660,ls),
(81,696,o),
(37,740,o),
(1,740,q),
(0,740,l),
(0,750,l),
(319,750,l),
(319,740,l),
(315,740,ls),
(279,740,o),
(235,696,o),
(235,660,qs),
(235,80,ls),
(235,48,o),
(266,13,o),
(305,13,qs)
);
},
{
closed = 1;
nodes = (
(68,783,l),
(61,793,l),
(198,986,l),
(203,986,l),
(268,928,l),
(268,923,l)
);
}
);
};
layerId = "9BCDAEAC-6304-481D-8AE6-B16EBB77438F";
shapes = (
{
ref = L;
},
{
pos = (52,242);
ref = acutecomb.case;
}
);
width = 569;
}
);
unicode = 313;
},
{
glyphname = Lcaron;
kernLeft = J;
lastChange = "2023-01-05 10:51:59 +0000";
layers = (
{
background = {
shapes = (
{
closed = 1;
nodes = (
(326,13,ls),
(415,13,o),
(537,123,o),
(553,223,q),
(563,223,l),
(533,0,l),
(0,0,l),
(0,10,l),
(1,10,l),
(37,10,o),
(81,48,o),
(81,84,qs),
(81,660,ls),
(81,696,o),
(37,740,o),
(1,740,q),
(0,740,l),
(0,750,l),
(319,750,l),
(319,740,l),
(315,740,ls),
(279,740,o),
(235,696,o),
(235,660,qs),
(235,80,ls),
(235,48,o),
(266,13,o),
(305,13,qs)
);
},
{
closed = 1;
nodes = (
(356,722,o),
(399,764,o),
(434,764,qs),
(472,764,o),
(516,712,o),
(516,664,qs),
(516,639,o),
(502,594,o),
(470,550,o),
(419,507,o),
(383,483,q),
(377,494,l),
(420,522,o),
(454,559,o),
(454,579,qs),
(454,593,o),
(439,609,o),
(418,620,o),
(392,629,o),
(371,644,o),
(356,668,o),
(356,688,qs)
);
}
);
};
layerId = "9BCDAEAC-6304-481D-8AE6-B16EBB77438F";
shapes = (
{
ref = L;
},
{
pos = (306,0);
ref = caroncomb.alt.case;
}
);
width = 569;
}
);
unicode = 317;
},
{
glyphname = Lcommaaccent;
kernLeft = J;
lastChange = "2023-01-05 10:45:30 +0000";
layers = (
{
background = {
shapes = (
{
closed = 1;
nodes = (
(326,13,ls),
(415,13,o),
(537,123,o),
(553,223,q),
(563,223,l),
(533,0,l),
(0,0,l),
(0,10,l),
(1,10,l),
(37,10,o),
(81,48,o),
(81,84,qs),
(81,660,ls),
(81,696,o),
(37,740,o),
(1,740,q),
(0,740,l),
(0,750,l),
(319,750,l),
(319,740,l),
(315,740,ls),
(279,740,o),
(235,696,o),
(235,660,qs),
(235,80,ls),
(235,48,o),
(266,13,o),
(305,13,qs)
);
},
{
closed = 1;
nodes = (
(221,-93,o),
(265,-52,o),
(300,-52,qs),
(337,-52,o),
(381,-101,o),
(381,-143,qs),
(381,-179,o),
(359,-235,o),
(322,-285,o),
(274,-335,o),
(248,-363,q),
(239,-359,l),
(255,-340,o),
(284,-310,o),
(306,-282,o),
(319,-255,o),
(319,-238,qs),
(319,-216,o),
(288,-199,o),
(252,-184,o),
(221,-158,o),
(221,-128,qs)
);
}
);
};
layerId = "9BCDAEAC-6304-481D-8AE6-B16EBB77438F";
shapes = (
{
ref = L;
},
{
pos = (196,-2);
ref = commaaccentcomb.case;
}
);
width = 569;
}
);
unicode = 315;
},
{
glyphname = Lslash;
kernLeft = J;
lastChange = "2023-01-05 10:52:45 +0000";
layers = (
{
background = {
shapes = (
{
closed = 1;
nodes = (
(346,13,ls),
(435,13,o),
(557,123,o),
(573,223,q),
(583,223,l),
(553,0,l),
(20,0,l),
(20,10,l),
(21,10,l),
(57,10,o),
(101,48,o),
(101,84,qs),
(101,305,l),
(20,258,l),
(20,271,l),
(101,318,l),
(101,660,ls),
(101,696,o),
(57,740,o),
(21,740,q),
(20,740,l),
(20,750,l),
(339,750,l),
(339,740,l),
(335,740,ls),
(299,740,o),
(255,696,o),
(255,660,qs),
(255,406,l),
(404,491,l),
(404,478,l),
(255,393,l),
(255,80,ls),
(255,48,o),
(286,13,o),
(325,13,qs)
);
}
);
};
layerId = "9BCDAEAC-6304-481D-8AE6-B16EBB77438F";
shapes = (
{
closed = 1;
nodes = (
(553,0,l),
(583,223,l),
(573,223,l),
(552,90,o),
(465,13,o),
(346,13,cs),
(325,13,ls),
(273,13,o),
(255,37,o),
(255,80,cs),
(255,393,l),
(404,478,l),
(404,491,l),
(255,406,l),
(255,660,ls),
(255,708,o),
(287,740,o),
(335,740,cs),
(339,740,l),
(339,750,l),
(20,750,l),
(20,740,l),
(21,740,ls),
(69,740,o),
(101,708,o),
(101,660,cs),
(101,318,l),
(20,271,l),
(20,258,l),
(101,305,l),
(101,84,ls),
(101,36,o),
(69,10,o),
(21,10,cs),
(20,10,l),
(20,0,l)
);
}
);
width = 589;
}
);
unicode = 321;
},
{
glyphname = M;
kernLeft = J;
lastChange = "2023-01-05 10:52:45 +0000";
layers = (
{
anchors = (
{
name = bottom;
pos = (475,0);
},
{
name = top;
pos = (475,750);
}
);
background = {
shapes = (
{
closed = 1;
nodes = (
(911,740,l),
(879,740,o),
(835,702,o),
(837,669,q),
(888,77,l),
(890,61,o),
(906,36,o),
(931,18,o),
(961,9,o),
(975,9,q),
(975,0,l),
(665,0,l),
(665,9,l),
(678,9,o),
(705,18,o),
(727,35,o),
(740,60,o),
(738,75,q),
(689,627,l),
(411,-14,l),
(131,628,l),
(84,102,ls),
(82,82,o),
(95,49,o),
(120,25,o),
(154,11,o),
(173,10,q),
(173,0,l),
(-27,0,l),
(-27,10,l),
(11,12,o),
(63,64,o),
(67,103,qs),
(117,656,l),
(98,695,o),
(41,740,o),
(-4,740,q),
(-4,750,l),
(236,750,l),
(480,185,l),
(724,750,l),
(911,750,l)
);
}
);
};
layerId = "9BCDAEAC-6304-481D-8AE6-B16EBB77438F";
shapes = (
{
closed = 1;
nodes = (
(689,627,l),
(738,75,ls),
(743,35,o),
(699,9,o),
(665,9,c),
(665,0,l),
(975,0,l),
(975,9,l),
(939,9,o),
(894,32,o),
(888,77,c),
(837,669,ls),
(834,713,o),
(868,740,o),
(911,740,c),
(911,750,l),
(724,750,l),
(480,185,l),
(236,750,l),
(-4,750,l),
(-4,740,l),
(56,740,o),
(92,708,o),
(117,656,c),
(67,103,ls),
(62,51,o),
(24,13,o),
(-27,10,c),
(-27,0,l),
(173,0,l),
(173,10,l),
(121,13,o),
(79,49,o),
(84,102,cs),
(131,628,l),
(411,-14,l)
);
}
);
width = 950;
}
);
unicode = 77;
},
{
glyphname = N;
kernLeft = N2;
kernRight = N;
lastChange = "2023-01-05 10:52:45 +0000";
layers = (
{
anchors = (
{
name = bottom;
pos = (375,0);
},
{
name = top;
pos = (375,750);
}
);
background = {
shapes = (
{
closed = 1;
nodes = (
(139,654,ls),
(132,663,o),
(115,681,o),
(108,687,q),
(108,115,ls),
(108,72,o),
(160,10,o),
(203,10,q),
(203,0,l),
(-5,0,l),
(-5,10,l),
(39,10,o),
(91,72,o),
(91,116,qs),
(91,701,l),
(46,735,o),
(-4,740,q),
(-4,750,l),
(253,750,l),
(646,243,l),
(646,635,ls),
(646,678,o),
(594,740,o),
(551,740,q),
(551,750,l),
(758,750,l),
(758,740,l),
(715,740,o),
(663,678,o),
(663,635,qs),
(663,-14,l)
);
}
);
};
layerId = "9BCDAEAC-6304-481D-8AE6-B16EBB77438F";
shapes = (
{
closed = 1;
nodes = (
(663,635,ls),
(663,692,o),
(701,740,o),
(758,740,c),
(758,750,l),
(551,750,l),
(551,740,l),
(608,740,o),
(646,692,o),
(646,635,cs),
(646,243,l),
(253,750,l),
(-4,750,l),
(-4,740,l),
(29,737,o),
(61,724,o),
(91,701,c),
(91,116,ls),
(91,57,o),
(54,10,o),
(-5,10,c),
(-5,0,l),
(203,0,l),
(203,10,l),
(146,10,o),
(108,58,o),
(108,115,cs),
(108,687,l),
(117,679,o),
(130,666,o),
(139,654,cs),
(663,-14,l)
);
}
);
width = 749;
}
);
unicode = 78;
},
{
glyphname = Nacute;
kernLeft = J;
lastChange = "2023-01-05 10:26:50 +0000";
layers = (
{
background = {
shapes = (
{
closed = 1;
nodes = (
(139,654,ls),
(132,663,o),
(115,681,o),
(108,687,q),
(108,115,ls),
(108,72,o),
(160,10,o),
(203,10,q),
(203,0,l),
(-5,0,l),
(-5,10,l),
(39,10,o),
(91,72,o),
(91,116,qs),
(91,701,l),
(46,735,o),
(-4,740,q),
(-4,750,l),
(253,750,l),
(646,243,l),
(646,635,ls),
(646,678,o),
(594,740,o),
(551,740,q),
(551,750,l),
(758,750,l),
(758,740,l),
(715,740,o),
(663,678,o),
(663,635,qs),
(663,-14,l)
);
},
{
closed = 1;
nodes = (
(298,783,l),
(291,793,l),
(428,986,l),
(433,986,l),
(498,928,l),
(498,923,l)
);
}
);
};
layerId = "9BCDAEAC-6304-481D-8AE6-B16EBB77438F";
shapes = (
{
ref = N;
},
{
pos = (303,242);
ref = acutecomb.case;
}
);
width = 749;
}
);
unicode = 323;
},
{
glyphname = Ncaron;
kernLeft = J;
lastChange = "2023-01-05 10:21:30 +0000";
layers = (
{
background = {
shapes = (
{
closed = 1;
nodes = (
(139,654,ls),
(132,663,o),
(115,681,o),
(108,687,q),
(108,115,ls),
(108,72,o),
(160,10,o),
(203,10,q),
(203,0,l),
(-5,0,l),
(-5,10,l),
(39,10,o),
(91,72,o),
(91,116,qs),
(91,701,l),
(46,735,o),
(-4,740,q),
(-4,750,l),
(253,750,l),
(646,243,l),
(646,635,ls),
(646,678,o),
(594,740,o),
(551,740,q),
(551,750,l),
(758,750,l),
(758,740,l),
(715,740,o),
(663,678,o),
(663,635,qs),
(663,-14,l)
);
},
{
closed = 1;
nodes = (
(349,783,l),
(222,979,l),
(229,986,l),
(375,853,l),
(521,986,l),
(528,979,l),
(400,783,l)
);
}
);
};
layerId = "9BCDAEAC-6304-481D-8AE6-B16EBB77438F";
shapes = (
{
ref = N;
},
{
pos = (200,242);
ref = caroncomb.case;
}
);
width = 749;
}
);
unicode = 327;
},
{
glyphname = Ncommaaccent;
kernLeft = J;
lastChange = "2023-01-05 10:45:15 +0000";
layers = (
{
background = {
shapes = (
{
closed = 1;
nodes = (
(139,654,ls),
(132,663,o),
(115,681,o),
(108,687,q),
(108,115,ls),
(108,72,o),
(160,10,o),
(203,10,q),
(203,0,l),
(-5,0,l),
(-5,10,l),
(39,10,o),
(91,72,o),
(91,116,qs),
(91,701,l),
(46,735,o),
(-4,740,q),
(-4,750,l),
(253,750,l),
(646,243,l),
(646,635,ls),
(646,678,o),
(594,740,o),
(551,740,q),
(551,750,l),
(758,750,l),
(758,740,l),
(715,740,o),
(663,678,o),
(663,635,qs),
(663,-14,l)
);
},
{
closed = 1;
nodes = (
(296,-93,o),
(340,-52,o),
(375,-52,qs),
(412,-52,o),
(456,-101,o),
(456,-143,qs),
(456,-179,o),
(434,-235,o),
(397,-285,o),
(349,-335,o),
(323,-363,q),
(314,-359,l),
(330,-340,o),
(359,-310,o),
(381,-282,o),
(394,-255,o),
(394,-238,qs),
(394,-216,o),
(363,-199,o),
(327,-184,o),
(296,-158,o),
(296,-128,qs)
);
}
);
};
layerId = "9BCDAEAC-6304-481D-8AE6-B16EBB77438F";
shapes = (
{
ref = N;
},
{
pos = (268,-2);
ref = commaaccentcomb.case;
}
);
width = 749;
}
);
unicode = 325;
},
{
glyphname = Ntilde;
kernLeft = N2;
kernRight = N;
lastChange = "2023-01-05 10:21:30 +0000";
layers = (
{
background = {
shapes = (
{
closed = 1;
nodes = (
(139,654,ls),
(132,663,o),
(115,681,o),
(108,687,q),
(108,115,ls),
(108,72,o),
(160,10,o),
(203,10,q),
(203,0,l),
(-5,0,l),
(-5,10,l),
(39,10,o),
(91,72,o),
(91,116,qs),
(91,701,l),
(46,735,o),
(-4,740,q),
(-4,750,l),
(253,750,l),
(646,243,l),
(646,635,ls),
(646,678,o),
(594,740,o),
(551,740,q),
(551,750,l),
(758,750,l),
(758,740,l),
(715,740,o),
(663,678,o),
(663,635,qs),
(663,-14,l)
);
},
{
closed = 1;
nodes = (
(525,925,l),
(512,875,o),
(461,815,o),
(432,815,qs),
(413,815,o),
(381,833,o),
(352,854,o),
(323,872,o),
(306,872,qs),
(289,872,o),
(253,851,o),
(240,828,q),
(230,832,l),
(247,882,o),
(301,942,o),
(328,942,qs),
(348,942,o),
(379,924,o),
(407,903,o),
(437,885,o),
(455,885,qs),
(470,885,o),
(501,903,o),
(515,929,q)
);
}
);
};
layerId = "9BCDAEAC-6304-481D-8AE6-B16EBB77438F";
shapes = (
{
ref = N;
},
{
pos = (196,242);
ref = tildecomb.case;
}
);
width = 749;
}
);
unicode = 209;
},
{
glyphname = Eng;
kernLeft = J;
lastChange = "2023-01-05 10:52:45 +0000";
layers = (
{
anchors = (
{
name = bottom;
pos = (375,0);
},
{
name = top;
pos = (375,750);
}
);
background = {
shapes = (
{
closed = 1;
nodes = (
(677,62,ls),
(677,11,o),
(642,-76,o),
(579,-141,o),
(489,-182,o),
(435,-187,q),
(434,-178,l),
(455,-176,o),
(489,-140,o),
(513,-77,o),
(526,10,o),
(526,62,qs),
(526,161,l),
(139,654,ls),
(132,663,o),
(115,681,o),
(108,687,q),
(108,115,ls),
(108,72,o),
(160,10,o),
(203,10,q),
(203,0,l),
(-5,0,l),
(-5,10,l),
(39,10,o),
(91,72,o),
(91,116,qs),
(91,701,l),
(46,735,o),
(-4,740,q),
(-4,750,l),
(253,750,l),
(526,398,l),
(526,660,ls),
(526,696,o),
(482,740,o),
(446,740,qs),
(444,740,l),
(444,750,l),
(758,750,l),
(758,740,l),
(757,740,l),
(721,740,o),
(677,696,o),
(677,660,qs)
);
}
);
};
layerId = "9BCDAEAC-6304-481D-8AE6-B16EBB77438F";
shapes = (
{
closed = 1;
nodes = (
(579,-174,o),
(677,-75,o),
(677,62,cs),
(677,660,ls),
(677,708,o),
(709,740,o),
(757,740,cs),
(758,740,l),
(758,750,l),
(444,750,l),
(444,740,l),
(446,740,ls),
(494,740,o),
(526,708,o),
(526,660,cs),
(526,398,l),
(253,750,l),
(-4,750,l),
(-4,740,l),
(29,737,o),
(61,724,o),
(91,701,c),
(91,116,ls),
(91,57,o),
(54,10,o),
(-5,10,c),
(-5,0,l),
(203,0,l),
(203,10,l),
(146,10,o),
(108,58,o),
(108,115,cs),
(108,687,l),
(117,679,o),
(130,666,o),
(139,654,cs),
(526,161,l),
(526,62,ls),
(526,-80,o),
(490,-173,o),
(434,-178,c),
(435,-187,l)
);
}
);
width = 749;
}
);
unicode = 330;
},
{
glyphname = O;
kernLeft = C;
kernRight = D;
lastChange = "2023-01-05 10:52:45 +0000";
layers = (
{
anchors = (
{
name = bottom;
pos = (439,0);
},
{
name = center;
pos = (439,375);
},
{
name = ogonek;
pos = (790,10);
},
{
name = top;
pos = (439,750);
},
{
name = topleft;
pos = (20,750);
},
{
name = topright;
pos = (858,750);
}
);
background = {
shapes = (
{
closed = 1;
nodes = (
(37,462,o),
(95,606,o),
(200,708,o),
(349,764,o),
(439,764,qs),
(529,764,o),
(678,708,o),
(783,606,o),
(841,462,o),
(841,375,qs),
(841,288,o),
(783,144,o),
(678,42,o),
(529,-14,o),
(439,-14,qs),
(349,-14,o),
(200,42,o),
(95,144,o),
(37,288,o),
(37,375,qs)
);
},
{
closed = 1;
nodes = (
(207,292,o),
(240,154,o),
(301,56,o),
(387,2,o),
(439,2,qs),
(491,2,o),
(577,56,o),
(638,154,o),
(671,292,o),
(671,376,qs),
(671,460,o),
(638,599,o),
(577,697,o),
(491,751,o),
(439,751,qs),
(387,751,o),
(301,697,o),
(240,599,o),
(207,460,o),
(207,376,qs)
);
}
);
};
layerId = "9BCDAEAC-6304-481D-8AE6-B16EBB77438F";
shapes = (
{
closed = 1;
nodes = (
(679,-14,o),
(841,141,o),
(841,375,cs),
(841,609,o),
(679,764,o),
(439,764,cs),
(199,764,o),
(37,609,o),
(37,375,cs),
(37,141,o),
(199,-14,o),
(439,-14,cs)
);
},
{
closed = 1;
nodes = (
(370,2,o),
(311,40,o),
(271,105,cs),
(230,170,o),
(207,264,o),
(207,376,cs),
(207,488,o),
(230,583,o),
(271,648,cs),
(311,713,o),
(370,751,o),
(439,751,cs),
(508,751,o),
(567,713,o),
(608,648,cs),
(648,583,o),
(671,488,o),
(671,376,cs),
(671,264,o),
(648,170,o),
(608,105,cs),
(567,40,o),
(508,2,o),
(439,2,cs)
);
}
);
width = 878;
}
);
unicode = 79;
},
{
glyphname = Oacute;
kernLeft = C;
kernRight = D;
lastChange = "2023-01-05 10:26:50 +0000";
layers = (
{
background = {
shapes = (
{
closed = 1;
nodes = (
(207,292,o),
(240,154,o),
(301,56,o),
(387,2,o),
(439,2,qs),
(491,2,o),
(577,56,o),
(638,154,o),
(671,292,o),
(671,376,qs),
(671,460,o),
(638,599,o),
(577,697,o),
(491,751,o),
(439,751,qs),
(387,751,o),
(301,697,o),
(240,599,o),
(207,460,o),
(207,376,qs)
);
},
{
closed = 1;
nodes = (
(37,462,o),
(95,606,o),
(200,708,o),
(349,764,o),
(439,764,qs),
(529,764,o),
(678,708,o),
(783,606,o),
(841,462,o),
(841,375,qs),
(841,288,o),
(783,144,o),
(678,42,o),
(529,-14,o),
(439,-14,qs),
(349,-14,o),
(200,42,o),
(95,144,o),
(37,288,o),
(37,375,qs)
);
},
{
closed = 1;
nodes = (
(593,928,l),
(593,923,l),
(393,783,l),
(386,793,l),
(524,986,l),
(529,986,l)
);
}
);
};
layerId = "9BCDAEAC-6304-481D-8AE6-B16EBB77438F";
shapes = (
{
ref = O;
},
{
pos = (367,242);
ref = acutecomb.case;
}
);
width = 878;
}
);
unicode = 211;
},
{
glyphname = Ocircumflex;
kernLeft = C;
kernRight = D;
lastChange = "2023-01-05 10:21:30 +0000";
layers = (
{
background = {
shapes = (
{
closed = 1;
nodes = (
(207,292,o),
(240,154,o),
(301,56,o),
(387,2,o),
(439,2,qs),
(491,2,o),
(577,56,o),
(638,154,o),
(671,292,o),
(671,376,qs),
(671,460,o),
(638,599,o),
(577,697,o),
(491,751,o),
(439,751,qs),
(387,751,o),
(301,697,o),
(240,599,o),
(207,460,o),
(207,376,qs)
);
},
{
closed = 1;
nodes = (
(37,462,o),
(95,606,o),
(200,708,o),
(349,764,o),
(439,764,qs),
(529,764,o),
(678,708,o),
(783,606,o),
(841,462,o),
(841,375,qs),
(841,288,o),
(783,144,o),
(678,42,o),
(529,-14,o),
(439,-14,qs),
(349,-14,o),
(200,42,o),
(95,144,o),
(37,288,o),
(37,375,qs)
);
},
{
closed = 1;
nodes = (
(413,986,l),
(464,986,l),
(592,790,l),
(585,783,l),
(439,916,l),
(293,783,l),
(286,790,l)
);
}
);
};
layerId = "9BCDAEAC-6304-481D-8AE6-B16EBB77438F";
shapes = (
{
ref = O;
},
{
pos = (264,242);
ref = circumflexcomb.case;
}
);
width = 878;
}
);
unicode = 212;
},
{
glyphname = Odieresis;
kernLeft = C;
kernRight = D;
lastChange = "2023-01-05 10:21:30 +0000";
layers = (
{
background = {
shapes = (
{
closed = 1;
nodes = (
(37,462,o),
(95,606,o),
(200,708,o),
(349,764,o),
(439,764,qs),
(529,764,o),
(678,708,o),
(783,606,o),
(841,462,o),
(841,375,qs),
(841,288,o),
(783,144,o),
(678,42,o),
(529,-14,o),
(439,-14,qs),
(349,-14,o),
(200,42,o),
(95,144,o),
(37,288,o),
(37,375,qs)
);
},
{
closed = 1;
nodes = (
(207,292,o),
(240,154,o),
(301,56,o),
(387,2,o),
(439,2,qs),
(491,2,o),
(577,56,o),
(638,154,o),
(671,292,o),
(671,376,qs),
(671,460,o),
(638,599,o),
(577,697,o),
(491,751,o),
(439,751,qs),
(387,751,o),
(301,697,o),
(240,599,o),
(207,460,o),
(207,376,qs)
);
},
{
closed = 1;
nodes = (
(265,912,o),
(309,956,o),
(340,956,qs),
(371,956,o),
(415,912,o),
(415,881,qs),
(415,850,o),
(371,806,o),
(340,806,qs),
(309,806,o),
(265,850,o),
(265,881,qs)
);
},
{
closed = 1;
nodes = (
(463,912,o),
(507,956,o),
(538,956,qs),
(569,956,o),
(613,912,o),
(613,881,qs),
(613,850,o),
(569,806,o),
(538,806,qs),
(507,806,o),
(463,850,o),
(463,881,qs)
);
}
);
};
layerId = "9BCDAEAC-6304-481D-8AE6-B16EBB77438F";
shapes = (
{
ref = O;
},
{
pos = (233,242);
ref = dieresiscomb.case;
}
);
width = 878;
}
);
unicode = 214;
},
{
glyphname = Ograve;
kernLeft = C;
kernRight = D;
lastChange = "2023-01-05 10:38:02 +0000";
layers = (
{
background = {
shapes = (
{
closed = 1;
nodes = (
(207,292,o),
(240,154,o),
(301,56,o),
(387,2,o),
(439,2,qs),
(491,2,o),
(577,56,o),
(638,154,o),
(671,292,o),
(671,376,qs),
(671,460,o),
(638,599,o),
(577,697,o),
(491,751,o),
(439,751,qs),
(387,751,o),
(301,697,o),
(240,599,o),
(207,460,o),
(207,376,qs)
);
},
{
closed = 1;
nodes = (
(37,462,o),
(95,606,o),
(200,708,o),
(349,764,o),
(439,764,qs),
(529,764,o),
(678,708,o),
(783,606,o),
(841,462,o),
(841,375,qs),
(841,288,o),
(783,144,o),
(678,42,o),
(529,-14,o),
(439,-14,qs),
(349,-14,o),
(200,42,o),
(95,144,o),
(37,288,o),
(37,375,qs)
);
},
{
closed = 1;
nodes = (
(485,783,l),
(285,923,l),
(285,928,l),
(350,986,l),
(355,986,l),
(492,793,l)
);
}
);
};
layerId = "9BCDAEAC-6304-481D-8AE6-B16EBB77438F";
shapes = (
{
ref = O;
},
{
pos = (262,242);
ref = gravecomb.case;
}
);
width = 878;
}
);
unicode = 210;
},
{
glyphname = Ohungarumlaut;
kernLeft = J;
lastChange = "2023-01-05 10:52:31 +0000";
layers = (
{
background = {
shapes = (
{
closed = 1;
nodes = (
(207,292,o),
(240,154,o),
(301,56,o),
(387,2,o),
(439,2,qs),
(491,2,o),
(577,56,o),
(638,154,o),
(671,292,o),
(671,376,qs),
(671,460,o),
(638,599,o),
(577,697,o),
(491,751,o),
(439,751,qs),
(387,751,o),
(301,697,o),
(240,599,o),
(207,460,o),
(207,376,qs)
);
},
{
closed = 1;
nodes = (
(37,462,o),
(95,606,o),
(200,708,o),
(349,764,o),
(439,764,qs),
(529,764,o),
(678,708,o),
(783,606,o),
(841,462,o),
(841,375,qs),
(841,288,o),
(783,144,o),
(678,42,o),
(529,-14,o),
(439,-14,qs),
(349,-14,o),
(200,42,o),
(95,144,o),
(37,288,o),
(37,375,qs)
);
},
{
closed = 1;
nodes = (
(530,923,l),
(330,783,l),
(323,793,l),
(460,986,l),
(465,986,l),
(530,928,l)
);
},
{
closed = 1;
nodes = (
(696,923,l),
(496,783,l),
(489,793,l),
(627,986,l),
(632,986,l),
(696,928,l)
);
}
);
};
layerId = "9BCDAEAC-6304-481D-8AE6-B16EBB77438F";
shapes = (
{
ref = O;
},
{
pos = (291,242);
ref = hungarumlautcomb.case;
}
);
width = 878;
}
);
unicode = 336;
},
{
glyphname = Omacron;
kernLeft = J;
lastChange = "2023-01-05 10:21:30 +0000";
layers = (
{
background = {
shapes = (
{
closed = 1;
nodes = (
(37,462,o),
(95,606,o),
(200,708,o),
(349,764,o),
(439,764,qs),
(529,764,o),
(678,708,o),
(783,606,o),
(841,462,o),
(841,375,qs),
(841,288,o),
(783,144,o),
(678,42,o),
(529,-14,o),
(439,-14,qs),
(349,-14,o),
(200,42,o),
(95,144,o),
(37,288,o),
(37,375,qs)
);
},
{
closed = 1;
nodes = (
(207,292,o),
(240,154,o),
(301,56,o),
(387,2,o),
(439,2,qs),
(491,2,o),
(577,56,o),
(638,154,o),
(671,292,o),
(671,376,qs),
(671,460,o),
(638,599,o),
(577,697,o),
(491,751,o),
(439,751,qs),
(387,751,o),
(301,697,o),
(240,599,o),
(207,460,o),
(207,376,qs)
);
},
{
closed = 1;
nodes = (
(329,916,l),
(549,916,l),
(549,863,l),
(329,863,l)
);
}
);
};
layerId = "9BCDAEAC-6304-481D-8AE6-B16EBB77438F";
shapes = (
{
ref = O;
},
{
pos = (297,242);
ref = macroncomb.case;
}
);
width = 878;
}
);
unicode = 332;
},
{
glyphname = Oslash;
kernLeft = C;
kernRight = D;
lastChange = "2023-01-05 10:52:45 +0000";
layers = (
{
anchors = (
{
name = bottom;
pos = (439,0);
},
{
name = top;
pos = (439,750);
}
);
background = {
shapes = (
{
closed = 1;
nodes = (
(207,244,o),
(247,152,q),
(626,612,l),
(596,678,o),
(500,751,o),
(439,751,qs),
(387,751,o),
(301,697,o),
(240,599,o),
(207,460,o),
(207,376,qs)
);
},
{
closed = 1;
nodes = (
(252,139,l),
(283,74,o),
(378,2,o),
(439,2,qs),
(491,2,o),
(577,56,o),
(638,154,o),
(671,292,o),
(671,376,qs),
(671,442,o),
(651,554,o),
(632,600,q)
);
},
{
closed = 1;
nodes = (
(37,462,o),
(95,606,o),
(200,708,o),
(349,764,o),
(439,764,qs),
(514,764,o),
(640,726,o),
(690,690,q),
(740,750,l),
(756,750,l),
(700,683,l),
(767,632,o),
(841,475,o),
(841,375,qs),
(841,288,o),
(783,144,o),
(678,42,o),
(529,-14,o),
(439,-14,qs),
(364,-14,o),
(237,25,o),
(187,60,q),
(137,0,l),
(121,0,l),
(177,68,l),
(111,119,o),
(37,275,o),
(37,375,qs)
);
}
);
};
layerId = "9BCDAEAC-6304-481D-8AE6-B16EBB77438F";
shapes = (
{
closed = 1;
nodes = (
(679,-14,o),
(841,141,o),
(841,375,cs),
(841,508,o),
(789,615,o),
(700,683,c),
(756,750,l),
(740,750,l),
(690,690,l),
(623,738,o),
(539,764,o),
(439,764,cs),
(199,764,o),
(37,609,o),
(37,375,cs),
(37,242,o),
(89,136,o),
(177,68,c),
(121,0,l),
(137,0,l),
(187,60,l),
(254,13,o),
(339,-14,o),
(439,-14,cs)
);
},
{
closed = 1;
nodes = (
(358,2,o),
(293,52,o),
(252,139,c),
(632,600,l),
(657,539,o),
(671,464,o),
(671,376,cs),
(671,264,o),
(648,170,o),
(608,105,cs),
(567,40,o),
(508,2,o),
(439,2,cs)
);
},
{
closed = 1;
nodes = (
(220,213,o),
(207,288,o),
(207,376,cs),
(207,488,o),
(230,583,o),
(271,648,cs),
(311,713,o),
(370,751,o),
(439,751,cs),
(520,751,o),
(586,700,o),
(626,612,c),
(247,152,l)
);
}
);
width = 878;
}
);
unicode = 216;
},
{
glyphname = Otilde;
kernLeft = C;
kernRight = D;
lastChange = "2023-01-05 10:21:30 +0000";
layers = (
{
background = {
shapes = (
{
closed = 1;
nodes = (
(207,292,o),
(240,154,o),
(301,56,o),
(387,2,o),
(439,2,qs),
(491,2,o),
(577,56,o),
(638,154,o),
(671,292,o),
(671,376,qs),
(671,460,o),
(638,599,o),
(577,697,o),
(491,751,o),
(439,751,qs),
(387,751,o),
(301,697,o),
(240,599,o),
(207,460,o),
(207,376,qs)
);
},
{
closed = 1;
nodes = (
(37,462,o),
(95,606,o),
(200,708,o),
(349,764,o),
(439,764,qs),
(529,764,o),
(678,708,o),
(783,606,o),
(841,462,o),
(841,375,qs),
(841,288,o),
(783,144,o),
(678,42,o),
(529,-14,o),
(439,-14,qs),
(349,-14,o),
(200,42,o),
(95,144,o),
(37,288,o),
(37,375,qs)
);
},
{
closed = 1;
nodes = (
(587,925,l),
(574,875,o),
(523,815,o),
(494,815,qs),
(475,815,o),
(443,833,o),
(414,854,o),
(385,872,o),
(368,872,qs),
(351,872,o),
(315,851,o),
(302,828,q),
(292,832,l),
(309,882,o),
(363,942,o),
(390,942,qs),
(410,942,o),
(441,924,o),
(469,903,o),
(499,885,o),
(517,885,qs),
(532,885,o),
(563,903,o),
(577,929,q)
);
}
);
};
layerId = "9BCDAEAC-6304-481D-8AE6-B16EBB77438F";
shapes = (
{
ref = O;
},
{
pos = (260,242);
ref = tildecomb.case;
}
);
width = 878;
}
);
unicode = 213;
},
{
glyphname = OE;
kernLeft = C;
kernRight = E;
lastChange = "2023-01-05 10:52:45 +0000";
layers = (
{
anchors = (
{
name = bottom;
pos = (533,0);
},
{
name = top;
pos = (533,750);
}
);
background = {
shapes = (
{
closed = 1;
nodes = (
(207,292,o),
(240,154,o),
(301,56,o),
(387,2,o),
(439,2,qs),
(500,2,o),
(549,39,q),
(549,714,l),
(500,751,o),
(439,751,qs),
(387,751,o),
(301,697,o),
(240,599,o),
(207,460,o),
(207,376,qs)
);
},
{
closed = 1;
nodes = (
(703,737,l),
(703,448,l),
(793,448,ls),
(843,448,o),
(903,509,o),
(903,559,q),
(913,559,l),
(913,313,l),
(903,313,l),
(902,367,o),
(836,435,o),
(782,435,qs),
(703,435,l),
(703,77,ls),
(703,48,o),
(738,13,o),
(767,13,qs),
(815,13,ls),
(912,13,o),
(1026,113,o),
(1042,220,q),
(1052,220,l),
(1022,0,l),
(618,0,ls),
(585,0,o),
(539,-4,o),
(500,-10,o),
(462,-14,o),
(439,-14,qs),
(349,-14,o),
(200,42,o),
(95,144,o),
(37,288,o),
(37,375,qs),
(37,462,o),
(95,606,o),
(200,708,o),
(349,764,o),
(439,764,qs),
(462,764,o),
(500,760,o),
(539,754,o),
(585,750,o),
(618,750,qs),
(1004,750,l),
(1034,549,l),
(1024,549,l),
(994,737,o),
(787,737,qs)
);
}
);
};
layerId = "9BCDAEAC-6304-481D-8AE6-B16EBB77438F";
shapes = (
{
closed = 1;
nodes = (
(512,-14,o),
(524,0,o),
(618,0,cs),
(1022,0,l),
(1052,220,l),
(1042,220,l),
(1021,77,o),
(944,13,o),
(815,13,cs),
(767,13,ls),
(728,13,o),
(703,38,o),
(703,77,cs),
(703,435,l),
(782,435,ls),
(854,435,o),
(902,385,o),
(903,313,c),
(913,313,l),
(913,559,l),
(903,559,l),
(903,492,o),
(860,448,o),
(793,448,cs),
(703,448,l),
(703,737,l),
(787,737,ls),
(925,737,o),
(1004,674,o),
(1024,549,c),
(1034,549,l),
(1004,750,l),
(618,750,ls),
(524,750,o),
(512,764,o),
(439,764,cs),
(199,764,o),
(37,609,o),
(37,375,cs),
(37,141,o),
(199,-14,o),
(439,-14,cs)
);
},
{
closed = 1;
nodes = (
(370,2,o),
(311,40,o),
(271,105,cs),
(230,170,o),
(207,264,o),
(207,376,cs),
(207,488,o),
(230,583,o),
(271,648,cs),
(311,713,o),
(370,751,o),
(439,751,cs),
(480,751,o),
(516,739,o),
(549,714,c),
(549,39,l),
(516,14,o),
(480,2,o),
(439,2,cs)
);
}
);
width = 1065;
}
);
unicode = 338;
},
{
glyphname = P;
kernLeft = B;
lastChange = "2023-01-05 10:52:45 +0000";
layers = (
{
anchors = (
{
name = bottom;
pos = (304,0);
},
{
name = top;
pos = (304,750);
}
);
background = {
shapes = (
{
closed = 1;
nodes = (
(234,737,l),
(234,357,l),
(293,357,ls),
(325,357,o),
(376,385,o),
(414,435,o),
(434,505,o),
(434,547,qs),
(434,589,o),
(413,659,o),
(376,709,o),
(324,737,o),
(292,737,qs)
);
},
{
closed = 1;
nodes = (
(316,10,l),
(316,0,l),
(0,0,l),
(0,10,l),
(36,10,o),
(80,54,o),
(80,90,qs),
(80,660,ls),
(80,696,o),
(36,740,o),
(0,740,q),
(0,750,l),
(334,750,l),
(392,749,o),
(487,719,o),
(554,666,o),
(591,592,o),
(591,547,qs),
(591,501,o),
(553,426,o),
(483,373,o),
(386,344,o),
(326,344,qs),
(234,344,l),
(234,90,ls),
(234,54,o),
(278,10,o),
(314,10,qs)
);
}
);
};
layerId = "9BCDAEAC-6304-481D-8AE6-B16EBB77438F";
shapes = (
{
closed = 1;
nodes = (
(316,0,l),
(316,10,l),
(314,10,ls),
(266,10,o),
(234,42,o),
(234,90,cs),
(234,344,l),
(326,344,ls),
(487,344,o),
(591,425,o),
(591,547,cs),
(591,668,o),
(487,747,o),
(334,750,cs),
(0,750,l),
(0,740,l),
(48,740,o),
(80,708,o),
(80,660,cs),
(80,90,ls),
(80,42,o),
(48,10,o),
(0,10,c),
(0,0,l)
);
},
{
closed = 1;
nodes = (
(234,737,l),
(292,737,ls),
(378,737,o),
(434,657,o),
(434,547,cs),
(434,436,o),
(378,357,o),
(293,357,cs),
(234,357,l)
);
}
);
width = 608;
}
);
unicode = 80;
},
{
glyphname = Thorn;
kernLeft = B;
lastChange = "2023-01-05 10:52:45 +0000";
layers = (
{
anchors = (
{
name = bottom;
pos = (296,0);
},
{
name = top;
pos = (296,750);
}
);
background = {
shapes = (
{
closed = 1;
nodes = (
(225,592,l),
(225,157,l),
(264,158,l),
(296,158,o),
(349,190,o),
(387,247,o),
(407,327,o),
(407,375,qs),
(407,424,o),
(387,504,o),
(349,561,o),
(297,592,o),
(265,592,qs)
);
},
{
closed = 1;
nodes = (
(225,147,l),
(225,90,ls),
(225,54,o),
(269,10,o),
(305,10,q),
(306,10,l),
(306,0,l),
(0,0,l),
(0,10,l),
(1,10,l),
(37,10,o),
(81,54,o),
(81,90,qs),
(81,660,ls),
(81,696,o),
(37,740,o),
(1,740,q),
(0,740,l),
(0,750,l),
(306,750,l),
(306,740,l),
(305,740,l),
(269,740,o),
(225,696,o),
(225,660,qs),
(225,603,l),
(295,603,ls),
(357,603,o),
(457,570,o),
(528,510,o),
(567,426,o),
(567,375,qs),
(567,324,o),
(528,240,o),
(457,180,o),
(357,147,o),
(295,147,qs)
);
}
);
};
layerId = "9BCDAEAC-6304-481D-8AE6-B16EBB77438F";
shapes = (
{
closed = 1;
nodes = (
(306,0,l),
(306,10,l),
(305,10,ls),
(257,10,o),
(225,42,o),
(225,90,cs),
(225,147,l),
(295,147,ls),
(458,147,o),
(567,238,o),
(567,375,cs),
(567,512,o),
(458,603,o),
(295,603,cs),
(225,603,l),
(225,660,ls),
(225,708,o),
(257,740,o),
(305,740,cs),
(306,740,l),
(306,750,l),
(0,750,l),
(0,740,l),
(1,740,ls),
(49,740,o),
(81,708,o),
(81,660,cs),
(81,90,ls),
(81,42,o),
(49,10,o),
(1,10,cs),
(0,10,l),
(0,0,l)
);
},
{
closed = 1;
nodes = (
(225,592,l),
(265,592,ls),
(352,592,o),
(407,502,o),
(407,375,cs),
(407,248,o),
(351,158,o),
(264,158,cs),
(225,157,l)
);
}
);
width = 591;
}
);
unicode = 222;
},
{
glyphname = Q;
kernLeft = C;
kernRight = D;
lastChange = "2023-01-05 10:52:45 +0000";
layers = (
{
anchors = (
{
name = bottom;
pos = (436,0);
},
{
name = top;
pos = (436,750);
}
);
background = {
shapes = (
{
closed = 1;
nodes = (
(206,295,o),
(239,158,o),
(299,61,o),
(384,8,o),
(436,8,qs),
(488,8,o),
(573,61,o),
(634,158,o),
(667,295,o),
(667,378,qs),
(667,462,o),
(634,600,o),
(573,697,o),
(488,751,o),
(436,751,qs),
(384,751,o),
(299,697,o),
(239,600,o),
(206,462,o),
(206,378,qs)
);
},
{
closed = 1;
nodes = (
(37,465,o),
(94,607,o),
(199,709,o),
(346,764,o),
(436,764,qs),
(526,764,o),
(673,709,o),
(778,607,o),
(835,465,o),
(835,378,qs),
(835,304,o),
(793,178,o),
(715,81,o),
(605,16,o),
(537,2,q),
(604,-50,o),
(749,-104,o),
(817,-104,qs),
(889,-104,o),
(944,-74,q),
(943,-85,l),
(905,-123,o),
(795,-159,o),
(730,-159,qs),
(680,-159,o),
(572,-138,o),
(465,-96,o),
(362,-34,o),
(316,6,q),
(252,23,o),
(149,89,o),
(76,185,o),
(37,307,o),
(37,378,qs)
);
}
);
};
layerId = "9BCDAEAC-6304-481D-8AE6-B16EBB77438F";
shapes = (
{
closed = 1;
nodes = (
(817,-159,o),
(892,-136,o),
(943,-85,c),
(944,-74,l),
(907,-94,o),
(865,-104,o),
(817,-104,cs),
(726,-104,o),
(626,-67,o),
(537,2,c),
(718,39,o),
(835,178,o),
(835,378,cs),
(835,611,o),
(675,764,o),
(436,764,cs),
(197,764,o),
(37,611,o),
(37,378,cs),
(37,187,o),
(144,52,o),
(316,6,c),
(439,-101,o),
(593,-159,o),
(730,-159,cs)
);
},
{
closed = 1;
nodes = (
(297,8,o),
(206,155,o),
(206,378,cs),
(206,490,o),
(229,584,o),
(269,649,cs),
(309,713,o),
(367,751,o),
(436,751,cs),
(505,751,o),
(563,713,o),
(604,649,cs),
(644,584,o),
(667,490,o),
(667,378,cs),
(667,267,o),
(644,174,o),
(604,110,cs),
(563,45,o),
(505,8,o),
(436,8,cs)
);
}
);
width = 872;
}
);
unicode = 81;
},
{
glyphname = R;
kernLeft = B;
lastChange = "2023-01-05 10:54:23 +0000";
layers = (
{
anchors = (
{
name = bottom;
pos = (335,0);
},
{
name = top;
pos = (267,750);
}
);
background = {
shapes = (
{
closed = 1;
nodes = (
(234,737,l),
(234,377,l),
(285,377,ls),
(317,377,o),
(369,403,o),
(407,450,o),
(427,517,o),
(427,557,qs),
(427,598,o),
(408,664,o),
(372,711,o),
(322,737,o),
(292,737,qs)
);
},
{
closed = 1;
nodes = (
(316,10,l),
(316,0,l),
(0,0,l),
(0,10,l),
(36,10,o),
(80,54,o),
(80,90,qs),
(80,660,ls),
(80,696,o),
(36,740,o),
(0,740,q),
(0,750,l),
(334,750,ls),
(388,750,o),
(475,722,o),
(538,671,o),
(572,600,o),
(572,556,qs),
(572,519,o),
(548,454,o),
(504,404,o),
(442,373,o),
(405,368,q),
(422,363,o),
(469,313,o),
(491,276,qs),
(617,60,ls),
(631,37,o),
(670,10,o),
(694,10,q),
(694,0,l),
(487,0,l),
(473,23,o),
(441,77,o),
(429,100,qs),
(331,280,ls),
(317,307,o),
(296,340,o),
(277,358,o),
(258,364,o),
(244,364,qs),
(234,364,l),
(234,90,ls),
(234,54,o),
(278,10,o),
(314,10,qs)
);
}
);
};
layerId = "9BCDAEAC-6304-481D-8AE6-B16EBB77438F";
shapes = (
{
closed = 1;
nodes = (
(316,0,l),
(316,10,l),
(314,10,ls),
(266,10,o),
(234,42,o),
(234,90,cs),
(234,364,l),
(244,364,ls),
(282,364,o),
(295,346,o),
(331,280,cs),
(429,100,ls),
(446,69,o),
(468,31,o),
(487,0,c),
(694,0,l),
(694,10,l),
(662,10,o),
(635,29,o),
(617,60,cs),
(491,276,ls),
(462,325,o),
(428,361,o),
(405,368,c),
(508,382,o),
(572,458,o),
(572,556,cs),
(572,672,o),
(477,750,o),
(334,750,cs),
(0,750,l),
(0,740,l),
(48,740,o),
(80,708,o),
(80,660,cs),
(80,90,ls),
(80,42,o),
(48,10,o),
(0,10,c),
(0,0,l)
);
},
{
closed = 1;
nodes = (
(234,737,l),
(292,737,ls),
(373,737,o),
(427,665,o),
(427,557,cs),
(427,450,o),
(371,377,o),
(285,377,cs),
(234,377,l)
);
}
);
width = 669;
}
);
unicode = 82;
},
{
glyphname = Racute;
kernLeft = J;
lastChange = "2023-01-05 10:54:23 +0000";
layers = (
{
background = {
shapes = (
{
closed = 1;
nodes = (
(234,737,l),
(234,377,l),
(285,377,ls),
(317,377,o),
(369,403,o),
(407,450,o),
(427,517,o),
(427,557,qs),
(427,598,o),
(408,664,o),
(372,711,o),
(322,737,o),
(292,737,qs)
);
},
{
closed = 1;
nodes = (
(316,10,l),
(316,0,l),
(0,0,l),
(0,10,l),
(36,10,o),
(80,54,o),
(80,90,qs),
(80,660,ls),
(80,696,o),
(36,740,o),
(0,740,q),
(0,750,l),
(334,750,ls),
(388,750,o),
(475,722,o),
(538,671,o),
(572,600,o),
(572,556,qs),
(572,519,o),
(548,454,o),
(504,404,o),
(442,373,o),
(405,368,q),
(422,363,o),
(469,313,o),
(491,276,qs),
(617,60,ls),
(631,37,o),
(670,10,o),
(694,10,q),
(694,0,l),
(487,0,l),
(473,23,o),
(441,77,o),
(429,100,qs),
(331,280,ls),
(317,307,o),
(296,340,o),
(277,358,o),
(258,364,o),
(244,364,qs),
(234,364,l),
(234,90,ls),
(234,54,o),
(278,10,o),
(314,10,qs)
);
},
{
closed = 1;
nodes = (
(408,923,l),
(208,783,l),
(201,793,l),
(338,986,l),
(343,986,l),
(408,928,l)
);
}
);
};
layerId = "9BCDAEAC-6304-481D-8AE6-B16EBB77438F";
shapes = (
{
ref = R;
},
{
pos = (195,242);
ref = acutecomb.case;
}
);
width = 669;
}
);
unicode = 340;
},
{
glyphname = Rcaron;
kernLeft = J;
lastChange = "2023-01-05 10:54:23 +0000";
layers = (
{
background = {
shapes = (
{
closed = 1;
nodes = (
(234,737,l),
(234,377,l),
(285,377,ls),
(317,377,o),
(369,403,o),
(407,450,o),
(427,517,o),
(427,557,qs),
(427,598,o),
(408,664,o),
(372,711,o),
(322,737,o),
(292,737,qs)
);
},
{
closed = 1;
nodes = (
(316,10,l),
(316,0,l),
(0,0,l),
(0,10,l),
(36,10,o),
(80,54,o),
(80,90,qs),
(80,660,ls),
(80,696,o),
(36,740,o),
(0,740,q),
(0,750,l),
(334,750,ls),
(388,750,o),
(475,722,o),
(538,671,o),
(572,600,o),
(572,556,qs),
(572,519,o),
(548,454,o),
(504,404,o),
(442,373,o),
(405,368,q),
(422,363,o),
(469,313,o),
(491,276,qs),
(617,60,ls),
(631,37,o),
(670,10,o),
(694,10,q),
(694,0,l),
(487,0,l),
(473,23,o),
(441,77,o),
(429,100,qs),
(331,280,ls),
(317,307,o),
(296,340,o),
(277,358,o),
(258,364,o),
(244,364,qs),
(234,364,l),
(234,90,ls),
(234,54,o),
(278,10,o),
(314,10,qs)
);
},
{
closed = 1;
nodes = (
(300,783,l),
(249,783,l),
(122,979,l),
(129,986,l),
(275,853,l),
(421,986,l),
(428,979,l)
);
}
);
};
layerId = "9BCDAEAC-6304-481D-8AE6-B16EBB77438F";
shapes = (
{
ref = R;
},
{
pos = (92,242);
ref = caroncomb.case;
}
);
width = 669;
}
);
unicode = 344;
},
{
glyphname = Rcommaaccent;
kernLeft = J;
lastChange = "2023-01-05 10:45:15 +0000";
layers = (
{
background = {
shapes = (
{
closed = 1;
nodes = (
(234,737,l),
(234,377,l),
(285,377,ls),
(317,377,o),
(369,403,o),
(407,450,o),
(427,517,o),
(427,557,qs),
(427,598,o),
(408,664,o),
(372,711,o),
(322,737,o),
(292,737,qs)
);
},
{
closed = 1;
nodes = (
(316,10,l),
(316,0,l),
(0,0,l),
(0,10,l),
(36,10,o),
(80,54,o),
(80,90,qs),
(80,660,ls),
(80,696,o),
(36,740,o),
(0,740,q),
(0,750,l),
(334,750,ls),
(388,750,o),
(475,722,o),
(538,671,o),
(572,600,o),
(572,556,qs),
(572,519,o),
(548,454,o),
(504,404,o),
(442,373,o),
(405,368,q),
(422,363,o),
(469,313,o),
(491,276,qs),
(617,60,ls),
(631,37,o),
(670,10,o),
(694,10,q),
(694,0,l),
(487,0,l),
(473,23,o),
(441,77,o),
(429,100,qs),
(331,280,ls),
(317,307,o),
(296,340,o),
(277,358,o),
(258,364,o),
(244,364,qs),
(234,364,l),
(234,90,ls),
(234,54,o),
(278,10,o),
(314,10,qs)
);
},
{
closed = 1;
nodes = (
(251,-93,o),
(295,-52,o),
(330,-52,qs),
(367,-52,o),
(411,-101,o),
(411,-143,qs),
(411,-179,o),
(389,-235,o),
(352,-285,o),
(304,-335,o),
(278,-363,q),
(269,-359,l),
(285,-340,o),
(314,-310,o),
(336,-282,o),
(349,-255,o),
(349,-238,qs),
(349,-216,o),
(318,-199,o),
(282,-184,o),
(251,-158,o),
(251,-128,qs)
);
}
);
};
layerId = "9BCDAEAC-6304-481D-8AE6-B16EBB77438F";
shapes = (
{
ref = R;
},
{
pos = (228,-2);
ref = commaaccentcomb.case;
}
);
width = 669;
}
);
unicode = 342;
},
{
glyphname = S;
kernLeft = J;
lastChange = "2023-01-05 10:52:45 +0000";
layers = (
{
anchors = (
{
name = bottom;
pos = (255,0);
},
{
name = top;
pos = (255,750);
}
);
background = {
shapes = (
{
closed = 1;
nodes = (
(218,749,o),
(163,695,o),
(163,650,qs),
(163,611,o),
(214,540,o),
(277,493,qs),
(320,461,ls),
(370,424,o),
(438,361,o),
(479,303,o),
(497,245,o),
(497,213,qs),
(497,163,o),
(459,80,o),
(390,20,o),
(294,-13,o),
(235,-14,q),
(212,-14,o),
(179,-10,o),
(143,-4,o),
(96,0,o),
(58,0,q),
(23,260,l),
(35,260,l),
(50,137,o),
(157,4,o),
(241,4,qs),
(303,4,o),
(381,74,o),
(381,130,qs),
(381,154,o),
(364,198,o),
(324,248,o),
(258,307,o),
(209,344,qs),
(168,375,ls),
(131,403,o),
(81,452,o),
(49,500,o),
(35,548,o),
(35,575,qs),
(35,619,o),
(68,688,o),
(129,738,o),
(216,764,o),
(270,764,qs),
(294,764,o),
(328,760,o),
(363,754,o),
(405,750,o),
(435,750,q),
(445,548,l),
(435,548,l),
(421,641,o),
(329,749,o),
(264,749,qs)
);
}
);
};
layerId = "9BCDAEAC-6304-481D-8AE6-B16EBB77438F";
shapes = (
{
closed = 1;
nodes = (
(392,-11,o),
(497,80,o),
(497,213,cs),
(497,299,o),
(451,364,o),
(320,461,cs),
(277,493,ls),
(193,556,o),
(163,598,o),
(163,650,cs),
(163,710,o),
(203,749,o),
(264,749,cs),
(351,749,o),
(416,672,o),
(435,548,c),
(445,548,l),
(435,750,l),
(346,750,o),
(338,764,o),
(270,764,cs),
(128,764,o),
(35,692,o),
(35,575,cs),
(35,504,o),
(68,451,o),
(168,375,cs),
(209,344,ls),
(274,295,o),
(317,256,o),
(344,223,cs),
(371,190,o),
(381,162,o),
(381,130,cs),
(381,55,o),
(324,4,o),
(241,4,cs),
(129,4,o),
(55,96,o),
(35,260,c),
(23,260,l),
(58,0,l),
(164,0,o),
(165,-14,o),
(235,-14,cs)
);
}
);
width = 510;
}
);
unicode = 83;
},
{
glyphname = Sacute;
kernLeft = J;
lastChange = "2023-01-05 10:26:50 +0000";
layers = (
{
background = {
shapes = (
{
closed = 1;
nodes = (
(218,749,o),
(163,695,o),
(163,650,qs),
(163,611,o),
(214,540,o),
(277,493,qs),
(320,461,ls),
(370,424,o),
(438,361,o),
(479,303,o),
(497,245,o),
(497,213,qs),
(497,163,o),
(459,80,o),
(390,20,o),
(294,-13,o),
(235,-14,q),
(212,-14,o),
(179,-10,o),
(143,-4,o),
(96,0,o),
(58,0,q),
(23,260,l),
(35,260,l),
(50,137,o),
(157,4,o),
(241,4,qs),
(303,4,o),
(381,74,o),
(381,130,qs),
(381,154,o),
(364,198,o),
(324,248,o),
(258,307,o),
(209,344,qs),
(168,375,ls),
(131,403,o),
(81,452,o),
(49,500,o),
(35,548,o),
(35,575,qs),
(35,619,o),
(68,688,o),
(129,738,o),
(216,764,o),
(270,764,qs),
(294,764,o),
(328,760,o),
(363,754,o),
(405,750,o),
(435,750,q),
(445,548,l),
(435,548,l),
(421,641,o),
(329,749,o),
(264,749,qs)
);
},
{
closed = 1;
nodes = (
(159,783,l),
(152,793,l),
(289,986,l),
(294,986,l),
(359,928,l),
(359,923,l)
);
}
);
};
layerId = "9BCDAEAC-6304-481D-8AE6-B16EBB77438F";
shapes = (
{
ref = S;
},
{
pos = (183,242);
ref = acutecomb.case;
}
);
width = 510;
}
);
unicode = 346;
},
{
glyphname = Scaron;
kernLeft = J;
lastChange = "2023-01-05 10:21:30 +0000";
layers = (
{
background = {
shapes = (
{
closed = 1;
nodes = (
(218,749,o),
(163,695,o),
(163,650,qs),
(163,630,o),
(175,594,o),
(202,557,o),
(246,517,o),
(277,493,qs),
(319,461,ls),
(369,424,o),
(437,361,o),
(479,303,o),
(497,245,o),
(497,213,qs),
(497,163,o),
(459,80,o),
(390,20,o),
(294,-13,o),
(235,-14,q),
(212,-14,o),
(179,-10,o),
(143,-4,o),
(96,0,o),
(58,0,q),
(23,260,l),
(35,260,l),
(50,137,o),
(157,4,o),
(240,4,qs),
(303,4,o),
(381,74,o),
(381,130,qs),
(381,154,o),
(364,198,o),
(324,248,o),
(258,307,o),
(209,344,qs),
(168,375,ls),
(131,403,o),
(81,452,o),
(49,500,o),
(35,548,o),
(35,575,qs),
(35,619,o),
(68,688,o),
(129,738,o),
(216,764,o),
(270,764,qs),
(294,764,o),
(328,760,o),
(363,754,o),
(405,750,o),
(435,750,q),
(445,548,l),
(435,548,l),
(421,641,o),
(329,749,o),
(264,749,qs)
);
},
{
closed = 1;
nodes = (
(233,797,l),
(106,993,l),
(113,1000,l),
(259,867,l),
(405,1000,l),
(412,993,l),
(284,797,l)
);
}
);
};
layerId = "9BCDAEAC-6304-481D-8AE6-B16EBB77438F";
shapes = (
{
ref = S;
},
{
pos = (80,242);
ref = caroncomb.case;
}
);
width = 510;
}
);
unicode = 352;
},
{
glyphname = Scedilla;
kernLeft = J;
lastChange = "2023-01-05 10:21:30 +0000";
layers = (
{
background = {
shapes = (
{
closed = 1;
nodes = (
(218,749,o),
(163,695,o),
(163,650,qs),
(163,611,o),
(214,540,o),
(277,493,qs),
(320,461,ls),
(370,424,o),
(438,361,o),
(479,303,o),
(497,245,o),
(497,213,qs),
(497,164,o),
(461,83,o),
(397,24,o),
(306,-10,o),
(250,-13,q),
(233,-56,l),
(289,-57,o),
(356,-105,o),
(356,-145,qs),
(356,-181,o),
(297,-225,o),
(247,-225,qs),
(235,-225,o),
(219,-223,o),
(204,-220,o),
(186,-218,o),
(173,-218,q),
(154,-119,l),
(165,-119,l),
(185,-208,o),
(233,-208,qs),
(253,-208,o),
(276,-177,o),
(276,-150,qs),
(276,-117,o),
(243,-68,o),
(219,-63,q),
(219,-57,l),
(236,-14,l),
(212,-14,o),
(179,-10,o),
(143,-4,o),
(96,0,o),
(58,0,q),
(23,260,l),
(35,260,l),
(50,137,o),
(157,4,o),
(241,4,qs),
(303,4,o),
(381,74,o),
(381,130,qs),
(381,154,o),
(364,198,o),
(324,248,o),
(258,307,o),
(209,344,qs),
(168,375,ls),
(131,403,o),
(81,452,o),
(49,500,o),
(35,548,o),
(35,575,qs),
(35,619,o),
(68,688,o),
(129,738,o),
(216,764,o),
(270,764,qs),
(294,764,o),
(328,760,o),
(363,754,o),
(405,750,o),
(435,750,q),
(445,548,l),
(435,548,l),
(421,641,o),
(329,749,o),
(264,749,qs)
);
}
);
};
layerId = "9BCDAEAC-6304-481D-8AE6-B16EBB77438F";
shapes = (
{
ref = S;
},
{
pos = (127,0);
ref = cedillacomb.case;
}
);
width = 510;
}
);
unicode = 350;
},
{
glyphname = Scommaaccent;
kernLeft = J;
lastChange = "2023-01-05 10:45:15 +0000";
layers = (
{
background = {
shapes = (
{
closed = 1;
nodes = (
(218,749,o),
(163,695,o),
(163,650,qs),
(163,611,o),
(214,540,o),
(277,493,qs),
(320,461,ls),
(370,424,o),
(438,361,o),
(479,303,o),
(497,245,o),
(497,213,qs),
(497,163,o),
(459,80,o),
(390,20,o),
(294,-13,o),
(235,-14,q),
(212,-14,o),
(179,-10,o),
(143,-4,o),
(96,0,o),
(58,0,q),
(23,260,l),
(35,260,l),
(50,137,o),
(157,4,o),
(241,4,qs),
(303,4,o),
(381,74,o),
(381,130,qs),
(381,154,o),
(364,198,o),
(324,248,o),
(258,307,o),
(209,344,qs),
(168,375,ls),
(131,403,o),
(81,452,o),
(49,500,o),
(35,548,o),
(35,575,qs),
(35,619,o),
(68,688,o),
(129,738,o),
(216,764,o),
(270,764,qs),
(294,764,o),
(328,760,o),
(363,754,o),
(405,750,o),
(435,750,q),
(445,548,l),
(435,548,l),
(421,641,o),
(329,749,o),
(264,749,qs)
);
},
{
closed = 1;
nodes = (
(174,-93,o),
(218,-52,o),
(253,-52,qs),
(290,-52,o),
(334,-101,o),
(334,-143,qs),
(334,-179,o),
(312,-235,o),
(275,-285,o),
(227,-335,o),
(201,-363,q),
(192,-359,l),
(208,-340,o),
(237,-310,o),
(259,-282,o),
(272,-255,o),
(272,-238,qs),
(272,-216,o),
(241,-199,o),
(205,-184,o),
(174,-158,o),
(174,-128,qs)
);
}
);
};
layerId = "9BCDAEAC-6304-481D-8AE6-B16EBB77438F";
shapes = (
{
ref = S;
},
{
pos = (148,-2);
ref = commaaccentcomb.case;
}
);
width = 510;
}
);
unicode = 536;
},
{
glyphname = Germandbls;
kernLeft = J;
lastChange = "2023-01-05 10:52:45 +0000";
layers = (
{
anchors = (
{
name = bottom;
pos = (354,0);
},
{
name = top;
pos = (354,750);
}
);
background = {
shapes = (
{
closed = 1;
nodes = (
(89,418,ls),
(89,454,o),
(45,498,o),
(9,498,q),
(8,498,l),
(7,508,l),
(90,508,l),
(91,534,l),
(91,586,o),
(126,671,o),
(189,731,o),
(278,764,o),
(333,764,qs),
(385,764,o),
(470,735,o),
(531,682,o),
(565,609,o),
(565,564,q),
(519,564,o),
(443,549,o),
(388,522,o),
(358,484,o),
(358,461,qs),
(358,431,o),
(407,385,o),
(481,343,o),
(568,300,o),
(642,247,o),
(691,179,o),
(691,134,qs),
(691,65,o),
(583,-14,o),
(482,-14,qs),
(457,-14,o),
(423,-10,o),
(393,-4,o),
(358,0,o),
(332,0,q),
(309,202,l),
(319,202,l),
(327,142,o),
(347,64,o),
(378,18,o),
(420,0,o),
(450,0,qs),
(488,0,o),
(534,58,o),
(534,107,qs),
(534,147,o),
(504,208,o),
(459,260,o),
(406,305,o),
(361,352,o),
(331,406,o),
(331,441,qs),
(331,524,o),
(444,564,q),
(444,649,o),
(390,750,o),
(345,750,qs),
(299,750,o),
(244,646,o),
(244,559,qs),
(244,0,l),
(7,0,l),
(8,10,l),
(9,10,l),
(45,10,o),
(89,54,o),
(89,90,qs)
);
}
);
};
layerId = "9BCDAEAC-6304-481D-8AE6-B16EBB77438F";
shapes = (
{
closed = 1;
nodes = (
(617,-14,o),
(691,42,o),
(691,134,cs),
(691,220,o),
(613,278,o),
(525,322,cs),
(437,365,o),
(358,404,o),
(358,461,cs),
(358,522,o),
(440,564,o),
(565,564,c),
(565,684,o),
(469,764,o),
(333,764,cs),
(188,764,o),
(91,673,o),
(91,534,cs),
(90,508,l),
(7,508,l),
(8,498,l),
(9,498,ls),
(57,498,o),
(89,466,o),
(89,418,cs),
(89,90,ls),
(89,42,o),
(57,10,o),
(9,10,cs),
(8,10,l),
(7,0,l),
(244,0,l),
(244,559,ls),
(244,675,o),
(284,750,o),
(345,750,cs),
(405,750,o),
(444,677,o),
(444,564,c),
(369,537,o),
(331,496,o),
(331,441,cs),
(331,374,o),
(379,328,o),
(433,283,cs),
(488,236,o),
(534,183,o),
(534,107,cs),
(534,42,o),
(501,0,o),
(450,0,cs),
(367,0,o),
(340,48,o),
(319,202,c),
(309,202,l),
(332,0,l),
(404,0,o),
(413,-14,o),
(482,-14,cs)
);
}
);
width = 707;
}
);
unicode = 7838;
},
{
glyphname = T;
kernLeft = J;
lastChange = "2023-01-05 10:52:45 +0000";
layers = (
{
anchors = (
{
name = bottom;
pos = (347,0);
},
{
name = center;
pos = (347,375);
},
{
name = top;
pos = (347,750);
}
);
background = {
shapes = (
{
closed = 1;
nodes = (
(659,750,l),
(688,548,l),
(678,548,l),
(669,604,o),
(625,677,o),
(563,719,o),
(489,736,o),
(451,736,qs),
(425,736,l),
(425,90,ls),
(425,54,o),
(469,10,o),
(505,10,q),
(506,0,l),
(188,0,l),
(189,10,l),
(190,10,l),
(226,10,o),
(270,54,o),
(270,90,qs),
(270,736,l),
(241,736,ls),
(204,736,o),
(131,719,o),
(70,677,o),
(27,604,o),
(18,548,q),
(8,548,l),
(36,750,l)
);
}
);
};
layerId = "9BCDAEAC-6304-481D-8AE6-B16EBB77438F";
shapes = (
{
closed = 1;
nodes = (
(506,0,l),
(505,10,l),
(457,10,o),
(425,42,o),
(425,90,cs),
(425,736,l),
(451,736,ls),
(552,736,o),
(654,698,o),
(678,548,c),
(688,548,l),
(659,750,l),
(36,750,l),
(8,548,l),
(18,548,l),
(42,699,o),
(142,736,o),
(241,736,cs),
(270,736,l),
(270,90,ls),
(270,42,o),
(238,10,o),
(190,10,cs),
(189,10,l),
(188,0,l)
);
}
);
width = 694;
}
);
unicode = 84;
},
{
glyphname = Tcaron;
kernLeft = J;
lastChange = "2023-01-05 10:21:30 +0000";
layers = (
{
background = {
shapes = (
{
closed = 1;
nodes = (
(659,750,l),
(688,548,l),
(678,548,l),
(669,604,o),
(625,677,o),
(563,719,o),
(489,736,o),
(451,736,qs),
(425,736,l),
(425,90,ls),
(425,54,o),
(469,10,o),
(505,10,q),
(506,0,l),
(188,0,l),
(189,10,l),
(190,10,l),
(226,10,o),
(270,54,o),
(270,90,qs),
(270,736,l),
(241,736,ls),
(204,736,o),
(131,719,o),
(70,677,o),
(27,604,o),
(18,548,q),
(8,548,l),
(36,750,l)
);
},
{
closed = 1;
nodes = (
(321,783,l),
(194,979,l),
(201,986,l),
(347,853,l),
(493,986,l),
(500,979,l),
(372,783,l)
);
}
);
};
layerId = "9BCDAEAC-6304-481D-8AE6-B16EBB77438F";
shapes = (
{
ref = T;
},
{
pos = (172,242);
ref = caroncomb.case;
}
);
width = 694;
}
);
unicode = 356;
},
{
glyphname = Tcommaaccent;
kernLeft = J;
lastChange = "2023-01-05 10:45:15 +0000";
layers = (
{
background = {
shapes = (
{
closed = 1;
nodes = (
(659,750,l),
(688,548,l),
(678,548,l),
(669,604,o),
(625,677,o),
(563,719,o),
(489,736,o),
(451,736,qs),
(425,736,l),
(425,90,ls),
(425,54,o),
(469,10,o),
(505,10,q),
(506,0,l),
(188,0,l),
(189,10,l),
(190,10,l),
(226,10,o),
(270,54,o),
(270,90,qs),
(270,736,l),
(241,736,ls),
(204,736,o),
(131,719,o),
(70,677,o),
(27,604,o),
(18,548,q),
(8,548,l),
(36,750,l)
);
},
{
closed = 1;
nodes = (
(273,-93,o),
(317,-52,o),
(352,-52,qs),
(389,-52,o),
(433,-101,o),
(433,-143,qs),
(433,-179,o),
(411,-235,o),
(374,-285,o),
(326,-335,o),
(300,-363,q),
(291,-359,l),
(307,-340,o),
(336,-310,o),
(358,-282,o),
(371,-255,o),
(371,-238,qs),
(371,-216,o),
(340,-199,o),
(304,-184,o),
(273,-158,o),
(273,-128,qs)
);
}
);
};
layerId = "9BCDAEAC-6304-481D-8AE6-B16EBB77438F";
shapes = (
{
ref = T;
},
{
pos = (240,-2);
ref = commaaccentcomb.case;
}
);
width = 694;
}
);
unicode = 538;
},
{
glyphname = U;
kernLeft = U2;
kernRight = U;
lastChange = "2023-01-05 10:55:33 +0000";
layers = (
{
anchors = (
{
name = bottom;
pos = (373,0);
},
{
name = ogonek;
pos = (418,10);
},
{
name = top;
pos = (403,750);
},
{
name = topright;
pos = (725,750);
}
);
background = {
shapes = (
{
closed = 1;
nodes = (
(79,660,ls),
(79,696,o),
(35,740,o),
(-1,740,qs),
(-5,740,l),
(-5,750,l),
(317,750,l),
(317,740,l),
(314,740,ls),
(278,740,o),
(234,696,o),
(234,660,qs),
(234,263,ls),
(234,211,o),
(262,126,o),
(314,66,o),
(389,34,o),
(436,34,qs),
(483,34,o),
(557,66,o),
(610,126,o),
(638,211,o),
(638,263,qs),
(638,645,ls),
(638,688,o),
(586,738,o),
(543,740,q),
(543,750,l),
(750,750,l),
(750,740,l),
(707,738,o),
(655,688,o),
(655,645,qs),
(655,263,ls),
(655,200,o),
(615,97,o),
(540,25,o),
(434,-14,o),
(368,-14,qs),
(302,-14,o),
(195,25,o),
(120,97,o),
(79,200,o),
(79,263,qs)
);
}
);
};
layerId = "9BCDAEAC-6304-481D-8AE6-B16EBB77438F";
shapes = (
{
closed = 1;
nodes = (
(546,-14,o),
(655,95,o),
(655,263,cs),
(655,645,ls),
(655,702,o),
(693,737,o),
(750,740,c),
(750,750,l),
(543,750,l),
(543,740,l),
(600,737,o),
(638,702,o),
(638,645,cs),
(638,263,ls),
(638,124,o),
(561,34,o),
(436,34,cs),
(312,34,o),
(234,121,o),
(234,263,cs),
(234,660,ls),
(234,708,o),
(266,740,o),
(314,740,cs),
(317,740,l),
(317,750,l),
(-5,750,l),
(-5,740,l),
(-1,740,ls),
(47,740,o),
(79,708,o),
(79,660,cs),
(79,263,ls),
(79,94,o),
(192,-14,o),
(368,-14,cs)
);
}
);
width = 745;
}
);
unicode = 85;
},
{
glyphname = Uacute;
kernLeft = U2;
kernRight = U;
lastChange = "2023-01-05 10:55:21 +0000";
layers = (
{
background = {
shapes = (
{
closed = 1;
nodes = (
(79,660,ls),
(79,696,o),
(35,740,o),
(-1,740,qs),
(-5,740,l),
(-5,750,l),
(317,750,l),
(317,740,l),
(314,740,ls),
(278,740,o),
(234,696,o),
(234,660,qs),
(234,263,ls),
(234,211,o),
(262,126,o),
(314,66,o),
(389,34,o),
(436,34,qs),
(483,34,o),
(557,66,o),
(610,126,o),
(638,211,o),
(638,263,qs),
(638,645,ls),
(638,688,o),
(586,738,o),
(543,740,q),
(543,750,l),
(750,750,l),
(750,740,l),
(707,738,o),
(655,688,o),
(655,645,qs),
(655,263,ls),
(655,200,o),
(615,97,o),
(540,25,o),
(434,-14,o),
(368,-14,qs),
(302,-14,o),
(195,25,o),
(120,97,o),
(79,200,o),
(79,263,qs)
);
},
{
closed = 1;
nodes = (
(307,783,l),
(300,793,l),
(438,986,l),
(443,986,l),
(507,928,l),
(507,923,l)
);
}
);
};
layerId = "9BCDAEAC-6304-481D-8AE6-B16EBB77438F";
shapes = (
{
ref = U;
},
{
pos = (331,242);
ref = acutecomb.case;
}
);
width = 745;
}
);
unicode = 218;
},
{
glyphname = Ubreve;
kernLeft = J;
lastChange = "2023-01-05 10:55:21 +0000";
layers = (
{
background = {
shapes = (
{
closed = 1;
nodes = (
(79,660,ls),
(79,696,o),
(35,740,o),
(-1,740,qs),
(-5,740,l),
(-5,750,l),
(317,750,l),
(317,740,l),
(314,740,ls),
(278,740,o),
(234,696,o),
(234,660,qs),
(234,263,ls),
(234,211,o),
(262,126,o),
(314,66,o),
(389,34,o),
(436,34,qs),
(483,34,o),
(557,66,o),
(610,126,o),
(638,211,o),
(638,263,qs),
(638,645,ls),
(638,688,o),
(586,738,o),
(543,740,q),
(543,750,l),
(750,750,l),
(750,740,l),
(707,738,o),
(655,688,o),
(655,645,qs),
(655,263,ls),
(655,200,o),
(615,97,o),
(540,25,o),
(434,-14,o),
(368,-14,qs),
(302,-14,o),
(195,25,o),
(120,97,o),
(79,200,o),
(79,263,qs)
);
},
{
closed = 1;
nodes = (
(330,820,o),
(271,900,o),
(270,966,q),
(280,966,l),
(281,948,o),
(300,916,o),
(330,893,o),
(370,880,o),
(393,880,qs),
(416,880,o),
(456,893,o),
(486,916,o),
(505,948,o),
(506,966,q),
(516,966,l),
(515,900,o),
(455,820,o),
(393,820,qs)
);
}
);
};
layerId = "9BCDAEAC-6304-481D-8AE6-B16EBB77438F";
shapes = (
{
ref = U;
},
{
pos = (249,242);
ref = brevecomb.case;
}
);
width = 745;
}
);
unicode = 364;
},
{
glyphname = Ucircumflex;
kernLeft = U2;
kernRight = U;
lastChange = "2023-01-05 10:55:21 +0000";
layers = (
{
background = {
shapes = (
{
closed = 1;
nodes = (
(79,660,ls),
(79,696,o),
(35,740,o),
(-1,740,qs),
(-5,740,l),
(-5,750,l),
(317,750,l),
(317,740,l),
(314,740,ls),
(278,740,o),
(234,696,o),
(234,660,qs),
(234,263,ls),
(234,211,o),
(262,126,o),
(314,66,o),
(389,34,o),
(436,34,qs),
(483,34,o),
(557,66,o),
(610,126,o),
(638,211,o),
(638,263,qs),
(638,645,ls),
(638,688,o),
(586,738,o),
(543,740,q),
(543,750,l),
(750,750,l),
(750,740,l),
(707,738,o),
(655,688,o),
(655,645,qs),
(655,263,ls),
(655,200,o),
(615,97,o),
(540,25,o),
(434,-14,o),
(368,-14,qs),
(302,-14,o),
(195,25,o),
(120,97,o),
(79,200,o),
(79,263,qs)
);
},
{
closed = 1;
nodes = (
(556,790,l),
(549,783,l),
(403,916,l),
(257,783,l),
(250,790,l),
(377,986,l),
(428,986,l)
);
}
);
};
layerId = "9BCDAEAC-6304-481D-8AE6-B16EBB77438F";
shapes = (
{
ref = U;
},
{
pos = (228,242);
ref = circumflexcomb.case;
}
);
width = 745;
}
);
unicode = 219;
},
{
glyphname = Udieresis;
kernLeft = U2;
kernRight = U;
lastChange = "2023-01-05 10:55:21 +0000";
layers = (
{
background = {
shapes = (
{
closed = 1;
nodes = (
(79,660,ls),
(79,696,o),
(35,740,o),
(-1,740,qs),
(-5,740,l),
(-5,750,l),
(317,750,l),
(317,740,l),
(314,740,ls),
(278,740,o),
(234,696,o),
(234,660,qs),
(234,263,ls),
(234,211,o),
(262,126,o),
(314,66,o),
(389,34,o),
(436,34,qs),
(483,34,o),
(557,66,o),
(610,126,o),
(638,211,o),
(638,263,qs),
(638,645,ls),
(638,688,o),
(586,738,o),
(543,740,q),
(543,750,l),
(750,750,l),
(750,740,l),
(707,738,o),
(655,688,o),
(655,645,qs),
(655,263,ls),
(655,200,o),
(615,97,o),
(540,25,o),
(434,-14,o),
(368,-14,qs),
(302,-14,o),
(195,25,o),
(120,97,o),
(79,200,o),
(79,263,qs)
);
},
{
closed = 1;
nodes = (
(229,912,o),
(273,956,o),
(304,956,qs),
(335,956,o),
(379,912,o),
(379,881,qs),
(379,850,o),
(335,806,o),
(304,806,qs),
(273,806,o),
(229,850,o),
(229,881,qs)
);
},
{
closed = 1;
nodes = (
(427,912,o),
(471,956,o),
(502,956,qs),
(533,956,o),
(577,912,o),
(577,881,qs),
(577,850,o),
(533,806,o),
(502,806,qs),
(471,806,o),
(427,850,o),
(427,881,qs)
);
}
);
};
layerId = "9BCDAEAC-6304-481D-8AE6-B16EBB77438F";
shapes = (
{
ref = U;
},
{
pos = (197,242);
ref = dieresiscomb.case;
}
);
width = 745;
}
);
unicode = 220;
},
{
glyphname = Ugrave;
kernLeft = U2;
kernRight = U;
lastChange = "2023-01-05 10:55:21 +0000";
layers = (
{
background = {
shapes = (
{
closed = 1;
nodes = (
(79,660,ls),
(79,696,o),
(35,740,o),
(-1,740,qs),
(-5,740,l),
(-5,750,l),
(317,750,l),
(317,740,l),
(314,740,ls),
(278,740,o),
(234,696,o),
(234,660,qs),
(234,263,ls),
(234,211,o),
(262,126,o),
(314,66,o),
(389,34,o),
(436,34,qs),
(483,34,o),
(557,66,o),
(610,126,o),
(638,211,o),
(638,263,qs),
(638,645,ls),
(638,688,o),
(586,738,o),
(543,740,q),
(543,750,l),
(750,750,l),
(750,740,l),
(707,738,o),
(655,688,o),
(655,645,qs),
(655,263,ls),
(655,200,o),
(615,97,o),
(540,25,o),
(434,-14,o),
(368,-14,qs),
(302,-14,o),
(195,25,o),
(120,97,o),
(79,200,o),
(79,263,qs)
);
},
{
closed = 1;
nodes = (
(269,928,l),
(334,986,l),
(339,986,l),
(476,793,l),
(469,783,l),
(269,923,l)
);
}
);
};
layerId = "9BCDAEAC-6304-481D-8AE6-B16EBB77438F";
shapes = (
{
ref = U;
},
{
pos = (226,242);
ref = gravecomb.case;
}
);
width = 745;
}
);
unicode = 217;
},
{
glyphname = Uhungarumlaut;
kernLeft = J;
lastChange = "2023-01-05 10:55:21 +0000";
layers = (
{
background = {
shapes = (
{
closed = 1;
nodes = (
(79,660,ls),
(79,696,o),
(35,740,o),
(-1,740,qs),
(-5,740,l),
(-5,750,l),
(317,750,l),
(317,740,l),
(314,740,ls),
(278,740,o),
(234,696,o),
(234,660,qs),
(234,263,ls),
(234,211,o),
(262,126,o),
(314,66,o),
(389,34,o),
(436,34,qs),
(483,34,o),
(557,66,o),
(610,126,o),
(638,211,o),
(638,263,qs),
(638,645,ls),
(638,688,o),
(586,738,o),
(543,740,q),
(543,750,l),
(750,750,l),
(750,740,l),
(707,738,o),
(655,688,o),
(655,645,qs),
(655,263,ls),
(655,200,o),
(615,97,o),
(540,25,o),
(434,-14,o),
(368,-14,qs),
(302,-14,o),
(195,25,o),
(120,97,o),
(79,200,o),
(79,263,qs)
);
},
{
closed = 1;
nodes = (
(223,783,l),
(216,793,l),
(353,986,l),
(358,986,l),
(423,928,l),
(423,923,l)
);
},
{
closed = 1;
nodes = (
(389,783,l),
(382,793,l),
(520,986,l),
(525,986,l),
(589,928,l),
(589,923,l)
);
}
);
};
layerId = "9BCDAEAC-6304-481D-8AE6-B16EBB77438F";
shapes = (
{
ref = U;
},
{
pos = (255,242);
ref = hungarumlautcomb.case;
}
);
width = 745;
}
);
unicode = 368;
},
{
glyphname = Umacron;
kernLeft = J;
lastChange = "2023-01-05 10:55:21 +0000";
layers = (
{
background = {
shapes = (
{
closed = 1;
nodes = (
(79,660,ls),
(79,696,o),
(35,740,o),
(-1,740,qs),
(-5,740,l),
(-5,750,l),
(317,750,l),
(317,740,l),
(314,740,ls),
(278,740,o),
(234,696,o),
(234,660,qs),
(234,263,ls),
(234,211,o),
(262,126,o),
(314,66,o),
(389,34,o),
(436,34,qs),
(483,34,o),
(557,66,o),
(610,126,o),
(638,211,o),
(638,263,qs),
(638,645,ls),
(638,688,o),
(586,738,o),
(543,740,q),
(543,750,l),
(750,750,l),
(750,740,l),
(707,738,o),
(655,688,o),
(655,645,qs),
(655,263,ls),
(655,200,o),
(615,97,o),
(540,25,o),
(434,-14,o),
(368,-14,qs),
(302,-14,o),
(195,25,o),
(120,97,o),
(79,200,o),
(79,263,qs)
);
},
{
closed = 1;
nodes = (
(283,916,l),
(503,916,l),
(503,863,l),
(283,863,l)
);
}
);
};
layerId = "9BCDAEAC-6304-481D-8AE6-B16EBB77438F";
shapes = (
{
ref = U;
},
{
pos = (261,242);
ref = macroncomb.case;
}
);
width = 745;
}
);
unicode = 362;
},
{
glyphname = Uogonek;
kernLeft = J;
lastChange = "2023-01-05 10:55:33 +0000";
layers = (
{
background = {
shapes = (
{
closed = 1;
nodes = (
(79,660,ls),
(79,696,o),
(35,740,o),
(-1,740,qs),
(-5,740,l),
(-5,750,l),
(317,750,l),
(317,740,l),
(314,740,ls),
(278,740,o),
(234,696,o),
(234,660,qs),
(234,263,ls),
(234,211,o),
(262,126,o),
(314,66,o),
(389,34,o),
(436,34,qs),
(483,34,o),
(557,66,o),
(610,126,o),
(638,211,o),
(638,263,qs),
(638,645,ls),
(638,688,o),
(586,738,o),
(543,740,q),
(543,750,l),
(750,750,l),
(750,740,l),
(707,738,o),
(655,688,o),
(655,645,qs),
(655,263,l),
(656,160,o),
(553,24,o),
(463,-3,qs),
(445,-9,o),
(414,-35,o),
(393,-72,o),
(381,-116,o),
(381,-140,qs),
(381,-172,o),
(404,-208,o),
(425,-208,qs),
(450,-208,o),
(493,-158,o),
(502,-119,q),
(513,-119,l),
(494,-218,l),
(468,-218,o),
(434,-225,o),
(410,-225,qs),
(358,-225,o),
(301,-177,o),
(301,-133,qs),
(301,-93,o),
(338,-31,o),
(370,-14,q),
(303,-14,o),
(196,25,o),
(120,97,o),
(79,200,o),
(79,263,qs)
);
}
);
};
layerId = "9BCDAEAC-6304-481D-8AE6-B16EBB77438F";
shapes = (
{
ref = U;
},
{
pos = (270,10);
ref = ogonekcomb.case;
}
);
width = 745;
}
);
unicode = 370;
},
{
glyphname = Uring;
kernLeft = J;
lastChange = "2023-01-05 10:55:21 +0000";
layers = (
{
background = {
shapes = (
{
closed = 1;
nodes = (
(347,868,o),
(379,835,o),
(402,835,qs),
(425,835,o),
(458,868,o),
(458,891,qs),
(458,914,o),
(425,947,o),
(402,947,qs),
(379,947,o),
(347,914,o),
(347,891,qs)
);
},
{
closed = 1;
nodes = (
(79,660,ls),
(79,696,o),
(35,740,o),
(-1,740,qs),
(-5,740,l),
(-5,750,l),
(317,750,l),
(317,740,l),
(314,740,ls),
(278,740,o),
(234,696,o),
(234,660,qs),
(234,263,ls),
(234,211,o),
(262,126,o),
(314,66,o),
(389,34,o),
(436,34,qs),
(483,34,o),
(557,66,o),
(610,126,o),
(638,211,o),
(638,263,qs),
(638,645,ls),
(638,688,o),
(586,738,o),
(543,740,q),
(543,750,l),
(750,750,l),
(750,740,l),
(707,738,o),
(655,688,o),
(655,645,qs),
(655,263,ls),
(655,200,o),
(615,97,o),
(540,25,o),
(434,-14,o),
(368,-14,qs),
(302,-14,o),
(195,25,o),
(120,97,o),
(79,200,o),
(79,263,qs)
);
},
{
closed = 1;
nodes = (
(325,922,o),
(370,966,o),
(402,966,qs),
(434,966,o),
(480,922,o),
(480,891,qs),
(480,860,o),
(434,816,o),
(402,816,qs),
(370,816,o),
(325,860,o),
(325,891,qs)
);
}
);
};
layerId = "9BCDAEAC-6304-481D-8AE6-B16EBB77438F";
shapes = (
{
ref = U;
},
{
pos = (293,242);
ref = ringcomb.case;
}
);
width = 745;
}
);
unicode = 366;
},
{
glyphname = V;
kernLeft = V2;
kernRight = V;
lastChange = "2023-01-05 10:52:45 +0000";
layers = (
{
anchors = (
{
name = bottom;
pos = (342,0);
},
{
name = top;
pos = (342,750);
}
);
background = {
shapes = (
{
closed = 1;
nodes = (
(343,-15,l),
(333,-15,l),
(73,631,l),
(30,740,o),
(-24,740,qs),
(-27,740,l),
(-27,750,l),
(293,750,l),
(293,740,l),
(289,740,ls),
(243,740,o),
(213,685,o),
(233,636,qs),
(411,186,l),
(594,636,ls),
(612,681,o),
(567,738,o),
(513,740,q),
(513,750,l),
(708,750,l),
(708,740,l),
(694,739,o),
(665,719,o),
(638,689,o),
(615,651,o),
(607,631,qs)
);
}
);
};
layerId = "9BCDAEAC-6304-481D-8AE6-B16EBB77438F";
shapes = (
{
closed = 1;
nodes = (
(343,-15,l),
(607,631,ls),
(626,680,o),
(670,737,o),
(708,740,c),
(708,750,l),
(513,750,l),
(513,740,l),
(585,737,o),
(618,696,o),
(594,636,cs),
(411,186,l),
(233,636,ls),
(206,701,o),
(228,740,o),
(289,740,cs),
(293,740,l),
(293,750,l),
(-27,750,l),
(-27,740,l),
(-24,740,ls),
(12,740,o),
(44,704,o),
(73,631,cs),
(333,-15,l)
);
}
);
width = 683;
}
);
unicode = 86;
},
{
glyphname = W;
kernLeft = V2;
kernRight = V;
lastChange = "2023-01-05 10:56:18 +0000";
layers = (
{
anchors = (
{
name = bottom;
pos = (502,0);
},
{
name = top;
pos = (522,750);
}
);
background = {
shapes = (
{
closed = 1;
nodes = (
(684,-15,l),
(676,-15,l),
(518,427,l),
(339,-15,l),
(330,-15,l),
(72,631,ls),
(29,740,o),
(-24,740,qs),
(-27,740,l),
(-27,750,l),
(290,750,l),
(290,740,l),
(286,740,ls),
(241,740,o),
(211,685,o),
(230,637,qs),
(407,186,l),
(512,446,l),
(446,631,ls),
(427,685,o),
(374,740,o),
(334,740,qs),
(332,740,l),
(332,750,l),
(653,750,l),
(653,740,l),
(649,740,ls),
(606,740,o),
(579,686,o),
(596,637,qs),
(749,186,l),
(920,636,ls),
(937,681,o),
(896,738,o),
(845,740,q),
(845,750,l),
(1028,750,l),
(1028,740,l),
(1001,740,o),
(955,688,o),
(939,648,qs)
);
}
);
};
layerId = "9BCDAEAC-6304-481D-8AE6-B16EBB77438F";
shapes = (
{
closed = 1;
nodes = (
(339,-15,l),
(518,427,l),
(676,-15,l),
(684,-15,l),
(939,648,ls),
(959,701,o),
(992,740,o),
(1028,740,c),
(1028,750,l),
(845,750,l),
(845,740,l),
(913,737,o),
(943,696,o),
(920,636,cs),
(749,186,l),
(596,637,ls),
(574,702,o),
(592,740,o),
(649,740,cs),
(653,740,l),
(653,750,l),
(332,750,l),
(332,740,l),
(334,740,ls),
(387,740,o),
(420,703,o),
(446,631,cs),
(512,446,l),
(407,186,l),
(230,637,ls),
(205,701,o),
(226,740,o),
(286,740,cs),
(290,740,l),
(290,750,l),
(-27,750,l),
(-27,740,l),
(-24,740,ls),
(11,740,o),
(43,704,o),
(72,631,cs),
(330,-15,l)
);
}
);
width = 1003;
}
);
unicode = 87;
},
{
glyphname = Wacute;
kernLeft = J;
lastChange = "2023-01-05 10:56:18 +0000";
layers = (
{
background = {
shapes = (
{
closed = 1;
nodes = (
(684,-15,l),
(676,-15,l),
(518,427,l),
(339,-15,l),
(330,-15,l),
(72,631,ls),
(29,740,o),
(-24,740,qs),
(-27,740,l),
(-27,750,l),
(290,750,l),
(290,740,l),
(286,740,ls),
(241,740,o),
(211,685,o),
(230,637,qs),
(407,186,l),
(512,446,l),
(446,631,ls),
(427,685,o),
(374,740,o),
(334,740,qs),
(332,740,l),
(332,750,l),
(653,750,l),
(653,740,l),
(649,740,ls),
(606,740,o),
(579,686,o),
(596,637,qs),
(749,186,l),
(920,636,ls),
(937,681,o),
(896,738,o),
(845,740,q),
(845,750,l),
(1028,750,l),
(1028,740,l),
(1001,740,o),
(955,688,o),
(939,648,qs)
);
},
{
closed = 1;
nodes = (
(445,783,l),
(438,793,l),
(575,986,l),
(580,986,l),
(645,928,l),
(645,923,l)
);
}
);
};
layerId = "9BCDAEAC-6304-481D-8AE6-B16EBB77438F";
shapes = (
{
ref = W;
},
{
pos = (450,242);
ref = acutecomb.case;
}
);
width = 1003;
}
);
unicode = 7810;
},
{
glyphname = Wcircumflex;
kernLeft = J;
lastChange = "2023-01-05 10:56:18 +0000";
layers = (
{
background = {
shapes = (
{
closed = 1;
nodes = (
(684,-15,l),
(676,-15,l),
(518,427,l),
(339,-15,l),
(330,-15,l),
(72,631,ls),
(29,740,o),
(-24,740,qs),
(-27,740,l),
(-27,750,l),
(290,750,l),
(290,740,l),
(286,740,ls),
(241,740,o),
(211,685,o),
(230,637,qs),
(407,186,l),
(512,446,l),
(446,631,ls),
(427,685,o),
(374,740,o),
(334,740,qs),
(332,740,l),
(332,750,l),
(653,750,l),
(653,740,l),
(649,740,ls),
(606,740,o),
(579,686,o),
(596,637,qs),
(749,186,l),
(920,636,ls),
(937,681,o),
(896,738,o),
(845,740,q),
(845,750,l),
(1028,750,l),
(1028,740,l),
(1001,740,o),
(955,688,o),
(939,648,qs)
);
},
{
closed = 1;
nodes = (
(675,790,l),
(668,783,l),
(522,916,l),
(376,783,l),
(369,790,l),
(496,986,l),
(547,986,l)
);
}
);
};
layerId = "9BCDAEAC-6304-481D-8AE6-B16EBB77438F";
shapes = (
{
ref = W;
},
{
pos = (347,242);
ref = circumflexcomb.case;
}
);
width = 1003;
}
);
unicode = 372;
},
{
glyphname = Wdieresis;
kernLeft = J;
lastChange = "2023-01-05 10:56:18 +0000";
layers = (
{
background = {
shapes = (
{
closed = 1;
nodes = (
(684,-15,l),
(676,-15,l),
(518,427,l),
(339,-15,l),
(330,-15,l),
(72,631,ls),
(29,740,o),
(-24,740,qs),
(-27,740,l),
(-27,750,l),
(290,750,l),
(290,740,l),
(286,740,ls),
(241,740,o),
(211,685,o),
(230,637,qs),
(407,186,l),
(512,446,l),
(446,631,ls),
(427,685,o),
(374,740,o),
(334,740,qs),
(332,740,l),
(332,750,l),
(653,750,l),
(653,740,l),
(649,740,ls),
(606,740,o),
(579,686,o),
(596,637,qs),
(749,186,l),
(920,636,ls),
(937,681,o),
(896,738,o),
(845,740,q),
(845,750,l),
(1028,750,l),
(1028,740,l),
(1001,740,o),
(955,688,o),
(939,648,qs)
);
},
{
closed = 1;
nodes = (
(348,912,o),
(392,956,o),
(423,956,qs),
(453,956,o),
(498,912,o),
(498,881,qs),
(498,850,o),
(453,806,o),
(423,806,qs),
(392,806,o),
(348,850,o),
(348,881,qs)
);
},
{
closed = 1;
nodes = (
(546,912,o),
(590,956,o),
(621,956,qs),
(651,956,o),
(696,912,o),
(696,881,qs),
(696,850,o),
(651,806,o),
(621,806,qs),
(590,806,o),
(546,850,o),
(546,881,qs)
);
}
);
};
layerId = "9BCDAEAC-6304-481D-8AE6-B16EBB77438F";
shapes = (
{
ref = W;
},
{
pos = (316,242);
ref = dieresiscomb.case;
}
);
width = 1003;
}
);
unicode = 7812;
},
{
glyphname = Wgrave;
kernLeft = J;
lastChange = "2023-01-05 10:56:18 +0000";
layers = (
{
background = {
shapes = (
{
closed = 1;
nodes = (
(684,-15,l),
(676,-15,l),
(518,427,l),
(339,-15,l),
(330,-15,l),
(72,631,ls),
(29,740,o),
(-24,740,qs),
(-27,740,l),
(-27,750,l),
(290,750,l),
(290,740,l),
(286,740,ls),
(241,740,o),
(211,685,o),
(230,637,qs),
(407,186,l),
(512,446,l),
(446,631,ls),
(427,685,o),
(374,740,o),
(334,740,qs),
(332,740,l),
(332,750,l),
(653,750,l),
(653,740,l),
(649,740,ls),
(606,740,o),
(579,686,o),
(596,637,qs),
(749,186,l),
(920,636,ls),
(937,681,o),
(896,738,o),
(845,740,q),
(845,750,l),
(1028,750,l),
(1028,740,l),
(1001,740,o),
(955,688,o),
(939,648,qs)
);
},
{
closed = 1;
nodes = (
(418,928,l),
(483,986,l),
(488,986,l),
(625,793,l),
(618,783,l),
(418,923,l)
);
}
);
};
layerId = "9BCDAEAC-6304-481D-8AE6-B16EBB77438F";
shapes = (
{
ref = W;
},
{
pos = (345,242);
ref = gravecomb.case;
}
);
width = 1003;
}
);
unicode = 7808;
},
{
glyphname = X;
kernLeft = J;
lastChange = "2023-01-05 10:52:45 +0000";
layers = (
{
anchors = (
{
name = bottom;
pos = (354,0);
},
{
name = top;
pos = (354,750);
}
);
background = {
shapes = (
{
closed = 1;
nodes = (
(216,485,ls),
(199,514,o),
(170,561,o),
(159,577,qs),
(123,633,o),
(76,697,o),
(42,730,o),
(15,739,o),
(0,740,q),
(0,750,l),
(344,750,l),
(344,740,l),
(314,738,o),
(284,717,o),
(277,685,o),
(289,644,o),
(302,621,q),
(322,589,o),
(378,493,o),
(410,441,q),
(539,621,ls),
(575,672,o),
(555,736,o),
(501,740,q),
(500,740,l),
(500,750,l),
(708,750,l),
(708,740,l),
(679,738,o),
(605,689,o),
(575,647,qs),
(417,429,l),
(439,393,o),
(482,323,o),
(518,265,o),
(545,221,o),
(551,210,q),
(586,155,o),
(637,79,o),
(678,32,o),
(713,11,o),
(732,10,q),
(732,0,l),
(388,0,l),
(388,10,l),
(414,10,o),
(444,30,o),
(453,64,o),
(443,107,o),
(430,129,qs),
(421,145,o),
(393,193,o),
(358,250,o),
(319,315,o),
(299,348,q),
(298,347,l),
(221,239,l),
(137,122,ls),
(105,78,o),
(126,13,o),
(180,10,q),
(181,10,l),
(181,0,l),
(-27,0,l),
(-27,10,l),
(2,12,o),
(77,61,o),
(106,103,q),
(138,148,o),
(173,193,o),
(204,239,cs),
(232,279,o),
(262,319,o),
(289,360,c)
);
}
);
};
layerId = "9BCDAEAC-6304-481D-8AE6-B16EBB77438F";
shapes = (
{
closed = 1;
nodes = (
(181,0,l),
(181,10,l),
(180,10,ls),
(108,14,o),
(94,63,o),
(137,122,cs),
(298,347,l),
(299,348,l),
(349,265,o),
(404,176,o),
(430,129,cs),
(468,65,o),
(455,10,o),
(388,10,c),
(388,0,l),
(732,0,l),
(732,10,l),
(681,13,o),
(646,61,o),
(551,210,c),
(535,240,o),
(474,335,o),
(417,429,c),
(575,647,ls),
(615,703,o),
(669,737,o),
(708,740,c),
(708,750,l),
(500,750,l),
(500,740,l),
(501,740,ls),
(573,735,o),
(587,689,o),
(539,621,cs),
(410,441,l),
(350,541,ls),
(331,573,o),
(315,600,o),
(302,621,cs),
(269,679,o),
(263,735,o),
(344,740,c),
(344,750,l),
(0,750,l),
(0,740,l),
(49,737,o),
(76,707,o),
(159,577,cs),
(174,556,o),
(193,524,o),
(216,485,cs),
(289,360,l),
(262,319,o),
(232,279,o),
(204,239,cs),
(173,193,o),
(138,148,o),
(106,103,cs),
(67,47,o),
(12,13,o),
(-27,10,c),
(-27,0,l)
);
}
);
width = 707;
}
);
unicode = 88;
},
{
glyphname = Y;
kernLeft = J;
lastChange = "2023-01-05 10:56:38 +0000";
layers = (
{
anchors = (
{
name = bottom;
pos = (320,0);
},
{
name = top;
pos = (350,750);
},
{
name = topleft;
pos = (20,750);
}
);
background = {
shapes = (
{
closed = 1;
nodes = (
(474,750,l),
(664,750,l),
(664,740,l),
(630,738,o),
(577,682,o),
(543,637,qs),
(403,448,l),
(403,90,ls),
(403,55,o),
(447,10,o),
(481,10,qs),
(483,10,l),
(484,0,l),
(175,0,l),
(176,10,l),
(178,10,ls),
(214,10,o),
(258,54,o),
(258,90,qs),
(258,430,l),
(48,702,ls),
(35,719,o),
(0,740,o),
(-26,740,q),
(-27,740,l),
(-27,750,l),
(312,750,l),
(312,740,l),
(257,740,o),
(231,677,o),
(263,634,qs),
(393,458,l),
(514,621,ls),
(552,673,o),
(534,740,o),
(474,740,q)
);
}
);
};
layerId = "9BCDAEAC-6304-481D-8AE6-B16EBB77438F";
shapes = (
{
closed = 1;
nodes = (
(484,0,l),
(483,10,l),
(481,10,ls),
(436,10,o),
(403,43,o),
(403,90,cs),
(403,448,l),
(543,637,ls),
(588,697,o),
(619,737,o),
(664,740,c),
(664,750,l),
(474,750,l),
(474,740,l),
(554,740,o),
(565,690,o),
(514,621,cs),
(393,458,l),
(263,634,ls),
(221,691,o),
(239,740,o),
(312,740,c),
(312,750,l),
(-27,750,l),
(-27,740,l),
(-26,740,ls),
(9,740,o),
(31,725,o),
(48,702,cs),
(258,430,l),
(258,90,ls),
(258,42,o),
(226,10,o),
(178,10,cs),
(176,10,l),
(175,0,l)
);
}
);
width = 639;
}
);
unicode = 89;
},
{
glyphname = Yacute;
kernLeft = J;
lastChange = "2023-01-05 10:56:38 +0000";
layers = (
{
background = {
shapes = (
{
closed = 1;
nodes = (
(474,750,l),
(664,750,l),
(664,740,l),
(630,738,o),
(577,682,o),
(543,637,qs),
(403,448,l),
(403,90,ls),
(403,55,o),
(446,10,o),
(481,10,qs),
(483,10,l),
(484,0,l),
(175,0,l),
(176,10,l),
(178,10,ls),
(214,10,o),
(258,54,o),
(258,90,qs),
(258,430,l),
(48,702,ls),
(35,719,o),
(0,740,o),
(-26,740,q),
(-27,740,l),
(-27,750,l),
(312,750,l),
(312,740,l),
(257,740,o),
(232,676,o),
(263,634,qs),
(393,458,l),
(514,621,ls),
(552,673,o),
(534,740,o),
(474,740,q)
);
},
{
closed = 1;
nodes = (
(300,783,l),
(293,793,l),
(431,986,l),
(436,986,l),
(500,928,l),
(500,923,l)
);
}
);
};
layerId = "9BCDAEAC-6304-481D-8AE6-B16EBB77438F";
shapes = (
{
ref = Y;
},
{
pos = (278,242);
ref = acutecomb.case;
}
);
width = 639;
}
);
unicode = 221;
},
{
glyphname = Ycircumflex;
kernLeft = J;
lastChange = "2023-01-05 10:56:38 +0000";
layers = (
{
background = {
shapes = (
{
closed = 1;
nodes = (
(474,750,l),
(664,750,l),
(664,740,l),
(630,738,o),
(577,682,o),
(543,637,qs),
(403,448,l),
(403,90,ls),
(403,55,o),
(447,10,o),
(481,10,qs),
(483,10,l),
(484,0,l),
(175,0,l),
(176,10,l),
(178,10,ls),
(214,10,o),
(258,54,o),
(258,90,qs),
(258,430,l),
(48,702,ls),
(35,719,o),
(0,740,o),
(-26,740,q),
(-27,740,l),
(-27,750,l),
(312,750,l),
(312,740,l),
(257,740,o),
(231,677,o),
(263,634,qs),
(393,458,l),
(514,621,ls),
(552,673,o),
(534,740,o),
(474,740,q)
);
},
{
closed = 1;
nodes = (
(513,790,l),
(506,783,l),
(360,916,l),
(214,783,l),
(207,790,l),
(334,986,l),
(385,986,l)
);
}
);
};
layerId = "9BCDAEAC-6304-481D-8AE6-B16EBB77438F";
shapes = (
{
ref = Y;
},
{
pos = (175,242);
ref = circumflexcomb.case;
}
);
width = 639;
}
);
unicode = 374;
},
{
glyphname = Ydieresis;
kernLeft = J;
lastChange = "2023-01-05 10:56:38 +0000";
layers = (
{
background = {
shapes = (
{
closed = 1;
nodes = (
(474,750,l),
(664,750,l),
(664,740,l),
(630,738,o),
(577,682,o),
(543,637,qs),
(403,448,l),
(403,90,ls),
(403,55,o),
(446,10,o),
(481,10,qs),
(483,10,l),
(484,0,l),
(175,0,l),
(176,10,l),
(178,10,ls),
(214,10,o),
(258,54,o),
(258,90,qs),
(258,430,l),
(48,702,ls),
(35,719,o),
(0,740,o),
(-26,740,q),
(-27,740,l),
(-27,750,l),
(312,750,l),
(312,740,l),
(257,740,o),
(232,676,o),
(263,634,qs),
(393,458,l),
(514,621,ls),
(552,673,o),
(534,740,o),
(474,740,q)
);
},
{
closed = 1;
nodes = (
(172,912,o),
(216,956,o),
(247,956,qs),
(278,956,o),
(322,912,o),
(322,881,qs),
(322,850,o),
(278,806,o),
(247,806,qs),
(216,806,o),
(172,850,o),
(172,881,qs)
);
},
{
closed = 1;
nodes = (
(370,912,o),
(414,956,o),
(445,956,qs),
(476,956,o),
(520,912,o),
(520,881,qs),
(520,850,o),
(476,806,o),
(445,806,qs),
(414,806,o),
(370,850,o),
(370,881,qs)
);
}
);
};
layerId = "9BCDAEAC-6304-481D-8AE6-B16EBB77438F";
shapes = (
{
ref = Y;
},
{
pos = (144,242);
ref = dieresiscomb.case;
}
);
width = 639;
}
);
unicode = 376;
},
{
glyphname = Ygrave;
kernLeft = J;
lastChange = "2023-01-05 10:56:38 +0000";
layers = (
{
background = {
shapes = (
{
closed = 1;
nodes = (
(474,750,l),
(664,750,l),
(664,740,l),
(630,738,o),
(577,682,o),
(543,637,qs),
(403,448,l),
(403,90,ls),
(403,55,o),
(447,10,o),
(481,10,qs),
(483,10,l),
(484,0,l),
(175,0,l),
(176,10,l),
(178,10,ls),
(214,10,o),
(258,54,o),
(258,90,qs),
(258,430,l),
(48,702,ls),
(35,719,o),
(0,740,o),
(-26,740,q),
(-27,740,l),
(-27,750,l),
(312,750,l),
(312,740,l),
(257,740,o),
(231,677,o),
(263,634,qs),
(393,458,l),
(514,621,ls),
(552,673,o),
(534,740,o),
(474,740,q)
);
},
{
closed = 1;
nodes = (
(236,928,l),
(301,986,l),
(306,986,l),
(443,793,l),
(436,783,l),
(236,923,l)
);
}
);
};
layerId = "9BCDAEAC-6304-481D-8AE6-B16EBB77438F";
shapes = (
{
ref = Y;
},
{
pos = (173,242);
ref = gravecomb.case;
}
);
width = 639;
}
);
unicode = 7922;
},
{
glyphname = Z;
kernLeft = J;
lastChange = "2023-01-05 10:56:55 +0000";
layers = (
{
anchors = (
{
name = bottom;
pos = (285,0);
},
{
name = center;
pos = (285,375);
},
{
name = top;
pos = (305,750);
}
);
background = {
shapes = (
{
closed = 1;
nodes = (
(1,0,l),
(1,10,l),
(366,737,l),
(315,737,ls),
(209,737,o),
(86,642,o),
(73,548,q),
(63,548,l),
(93,750,l),
(530,750,l),
(530,740,l),
(166,13,l),
(333,13,ls),
(430,13,o),
(544,111,o),
(560,222,q),
(570,222,l),
(540,0,l)
);
}
);
};
layerId = "9BCDAEAC-6304-481D-8AE6-B16EBB77438F";
shapes = (
{
closed = 1;
nodes = (
(540,0,l),
(570,222,l),
(560,222,l),
(539,74,o),
(462,13,o),
(333,13,cs),
(166,13,l),
(530,740,l),
(530,750,l),
(93,750,l),
(63,548,l),
(73,548,l),
(90,673,o),
(174,737,o),
(315,737,cs),
(366,737,l),
(1,10,l),
(1,0,l)
);
}
);
width = 570;
}
);
unicode = 90;
},
{
glyphname = Zacute;
kernLeft = J;
lastChange = "2023-01-05 10:56:55 +0000";
layers = (
{
background = {
shapes = (
{
closed = 1;
nodes = (
(1,0,l),
(1,10,l),
(366,737,l),
(315,737,ls),
(209,737,o),
(86,642,o),
(73,548,q),
(63,548,l),
(93,750,l),
(530,750,l),
(530,740,l),
(166,13,l),
(333,13,ls),
(430,13,o),
(544,111,o),
(560,222,q),
(570,222,l),
(540,0,l)
);
},
{
closed = 1;
nodes = (
(229,783,l),
(222,793,l),
(359,986,l),
(364,986,l),
(429,928,l),
(429,923,l)
);
}
);
};
layerId = "9BCDAEAC-6304-481D-8AE6-B16EBB77438F";
shapes = (
{
ref = Z;
},
{
pos = (233,242);
ref = acutecomb.case;
}
);
width = 570;
}
);
unicode = 377;
},
{
glyphname = Zcaron;
kernLeft = J;
lastChange = "2023-01-05 10:56:55 +0000";
layers = (
{
background = {
shapes = (
{
closed = 1;
nodes = (
(1,0,l),
(1,10,l),
(366,737,l),
(315,737,ls),
(209,737,o),
(86,642,o),
(73,548,q),
(63,548,l),
(93,750,l),
(530,750,l),
(530,740,l),
(166,13,l),
(333,13,ls),
(430,13,o),
(544,111,o),
(560,222,q),
(570,222,l),
(540,0,l)
);
},
{
closed = 1;
nodes = (
(300,798,l),
(173,994,l),
(180,1001,l),
(326,868,l),
(472,1001,l),
(479,994,l),
(351,798,l)
);
}
);
};
layerId = "9BCDAEAC-6304-481D-8AE6-B16EBB77438F";
shapes = (
{
ref = Z;
},
{
pos = (130,242);
ref = caroncomb.case;
}
);
width = 570;
}
);
unicode = 381;
},
{
glyphname = Zdotaccent;
kernLeft = J;
lastChange = "2023-01-05 10:56:55 +0000";
layers = (
{
background = {
shapes = (
{
closed = 1;
nodes = (
(1,0,l),
(1,10,l),
(366,737,l),
(315,737,ls),
(209,737,o),
(86,642,o),
(73,548,q),
(63,548,l),
(93,750,l),
(530,750,l),
(530,740,l),
(166,13,l),
(333,13,ls),
(430,13,o),
(544,111,o),
(560,222,q),
(570,222,l),
(540,0,l)
);
},
{
closed = 1;
nodes = (
(233,910,o),
(276,951,o),
(305,951,qs),
(334,951,o),
(378,910,o),
(378,881,qs),
(378,867,o),
(366,841,o),
(346,822,o),
(320,811,o),
(305,811,qs),
(276,811,o),
(233,852,o),
(233,881,qs)
);
}
);
};
layerId = "9BCDAEAC-6304-481D-8AE6-B16EBB77438F";
shapes = (
{
ref = Z;
},
{
pos = (200,242);
ref = dotaccentcomb.case;
}
);
width = 570;
}
);
unicode = 379;
},
{
glyphname = a;
kernLeft = a2;
kernRight = a;
lastChange = "2023-01-05 10:56:00 +0000";
layers = (
{
anchors = (
{
name = bottom;
pos = (276,0);
},
{
name = ogonek;
pos = (441,10);
},
{
name = top;
pos = (266,508);
}
);
background = {
shapes = (
{
closed = 1;
nodes = (
(331,298,l),
(291,283,ls),
(252,268,o),
(202,238,o),
(175,205,o),
(165,168,o),
(165,146,qs),
(165,103,o),
(208,48,o),
(241,48,qs),
(263,48,o),
(304,70,o),
(330,95,q)
);
},
{
closed = 1;
nodes = (
(326,523,o),
(397,498,o),
(447,451,o),
(475,386,o),
(475,346,qs),
(475,105,l),
(474,77,o),
(495,47,o),
(514,47,qs),
(537,47,o),
(559,72,q),
(567,65,l),
(541,30,o),
(467,-14,o),
(432,-14,qs),
(394,-14,o),
(339,38,o),
(332,81,q),
(307,55,o),
(265,19,o),
(226,-4,o),
(187,-14,o),
(166,-14,qs),
(105,-14,o),
(31,52,o),
(31,106,qs),
(31,129,o),
(46,170,o),
(91,210,o),
(172,253,o),
(238,277,qs),
(331,311,l),
(331,386,ls),
(331,443,o),
(295,510,o),
(263,510,q),
(225,509,o),
(172,411,o),
(163,324,q),
(55,386,l),
(68,417,o),
(114,467,o),
(174,503,o),
(245,523,o),
(283,523,qs)
);
}
);
};
layerId = "9BCDAEAC-6304-481D-8AE6-B16EBB77438F";
shapes = (
{
closed = 1;
nodes = (
(224,-14,o),
(267,14,o),
(332,81,c),
(341,24,o),
(381,-14,o),
(432,-14,cs),
(479,-14,o),
(532,18,o),
(567,65,c),
(559,72,l),
(544,55,o),
(529,47,o),
(514,47,cs),
(489,47,o),
(475,68,o),
(475,105,cs),
(475,346,ls),
(475,455,o),
(396,523,o),
(283,523,cs),
(183,523,o),
(89,468,o),
(55,386,c),
(163,324,l),
(175,440,o),
(212,509,o),
(263,510,cs),
(306,510,o),
(331,462,o),
(331,386,cs),
(331,311,l),
(238,277,ls),
(150,245,o),
(99,217,o),
(69,190,cs),
(39,163,o),
(31,137,o),
(31,106,cs),
(31,34,o),
(85,-14,o),
(166,-14,cs)
);
},
{
closed = 1;
nodes = (
(197,48,o),
(165,89,o),
(165,146,cs),
(165,208,o),
(190,245,o),
(291,283,cs),
(331,298,l),
(330,95,l),
(295,62,o),
(270,48,o),
(241,48,cs)
);
}
);
width = 551;
}
);
unicode = 97;
},
{
glyphname = aacute;
kernLeft = a2;
kernRight = a;
lastChange = "2023-01-05 10:37:16 +0000";
layers = (
{
background = {
shapes = (
{
closed = 1;
nodes = (
(331,298,l),
(291,283,ls),
(252,268,o),
(202,238,o),
(175,205,o),
(165,168,o),
(165,146,qs),
(165,103,o),
(208,48,o),
(241,48,qs),
(263,48,o),
(304,70,o),
(330,95,q)
);
},
{
closed = 1;
nodes = (
(326,523,o),
(397,498,o),
(447,451,o),
(475,386,o),
(475,346,qs),
(475,105,l),
(474,77,o),
(495,47,o),
(514,47,qs),
(537,47,o),
(559,72,q),
(567,65,l),
(541,30,o),
(467,-14,o),
(432,-14,qs),
(394,-14,o),
(339,38,o),
(332,81,q),
(307,55,o),
(265,19,o),
(226,-4,o),
(187,-14,o),
(166,-14,qs),
(105,-14,o),
(31,52,o),
(31,106,qs),
(31,129,o),
(46,170,o),
(91,210,o),
(172,253,o),
(238,277,qs),
(331,311,l),
(331,386,ls),
(331,443,o),
(295,510,o),
(263,510,q),
(225,509,o),
(172,411,o),
(163,324,q),
(55,386,l),
(68,417,o),
(114,467,o),
(174,503,o),
(245,523,o),
(283,523,qs)
);
},
{
closed = 1;
nodes = (
(414,726,l),
(414,721,l),
(214,581,l),
(207,591,l),
(345,784,l),
(350,784,l)
);
}
);
};
layerId = "9BCDAEAC-6304-481D-8AE6-B16EBB77438F";
shapes = (
{
ref = a;
},
{
pos = (161,0);
ref = acutecomb;
}
);
width = 551;
}
);
unicode = 225;
},
{
glyphname = abreve;
kernLeft = J;
lastChange = "2023-01-05 10:31:08 +0000";
layers = (
{
background = {
shapes = (
{
closed = 1;
nodes = (
(331,298,l),
(291,283,ls),
(252,268,o),
(202,238,o),
(175,205,o),
(165,168,o),
(165,146,qs),
(165,103,o),
(208,48,o),
(241,48,qs),
(263,48,o),
(304,70,o),
(330,95,q)
);
},
{
closed = 1;
nodes = (
(326,523,o),
(397,498,o),
(447,451,o),
(475,386,o),
(475,346,qs),
(475,105,l),
(474,77,o),
(495,47,o),
(514,47,qs),
(537,47,o),
(559,72,q),
(567,65,l),
(541,30,o),
(467,-14,o),
(432,-14,qs),
(394,-14,o),
(339,38,o),
(332,81,q),
(307,55,o),
(265,19,o),
(226,-4,o),
(187,-14,o),
(166,-14,qs),
(105,-14,o),
(31,52,o),
(31,106,qs),
(31,129,o),
(46,170,o),
(91,210,o),
(172,253,o),
(238,277,qs),
(331,311,l),
(331,386,ls),
(331,443,o),
(295,510,o),
(263,510,q),
(225,509,o),
(172,411,o),
(163,324,q),
(55,386,l),
(68,417,o),
(114,467,o),
(174,503,o),
(245,523,o),
(283,523,qs)
);
},
{
closed = 1;
nodes = (
(203,618,o),
(144,698,o),
(143,764,q),
(153,764,l),
(154,746,o),
(173,714,o),
(203,691,o),
(243,678,o),
(266,678,qs),
(289,678,o),
(329,691,o),
(359,714,o),
(378,746,o),
(379,764,q),
(389,764,l),
(388,698,o),
(328,618,o),
(266,618,qs)
);
}
);
};
layerId = "9BCDAEAC-6304-481D-8AE6-B16EBB77438F";
shapes = (
{
ref = a;
},
{
pos = (112,0);
ref = brevecomb;
}
);
width = 551;
}
);
unicode = 259;
},
{
glyphname = acaron;
kernLeft = J;
lastChange = "2023-01-05 10:38:02 +0000";
layers = (
{
background = {
shapes = (
{
closed = 1;
nodes = (
(331,298,l),
(291,283,ls),
(252,268,o),
(202,238,o),
(175,205,o),
(165,168,o),
(165,146,qs),
(165,103,o),
(208,48,o),
(241,48,qs),
(263,48,o),
(304,70,o),
(330,95,q)
);
},
{
closed = 1;
nodes = (
(326,523,o),
(397,498,o),
(447,451,o),
(475,386,o),
(475,346,qs),
(475,105,l),
(474,77,o),
(495,47,o),
(514,47,qs),
(537,47,o),
(559,72,q),
(567,65,l),
(541,30,o),
(467,-14,o),
(432,-14,qs),
(394,-14,o),
(339,38,o),
(332,81,q),
(307,55,o),
(265,19,o),
(226,-4,o),
(187,-14,o),
(166,-14,qs),
(105,-14,o),
(31,52,o),
(31,106,qs),
(31,129,o),
(46,170,o),
(91,210,o),
(172,253,o),
(238,277,qs),
(331,311,l),
(331,386,ls),
(331,443,o),
(295,510,o),
(263,510,q),
(225,509,o),
(172,411,o),
(163,324,q),
(55,386,l),
(68,417,o),
(114,467,o),
(174,503,o),
(245,523,o),
(283,523,qs)
);
},
{
closed = 1;
nodes = (
(291,581,l),
(240,581,l),
(113,777,l),
(120,784,l),
(266,651,l),
(412,784,l),
(419,777,l)
);
}
);
};
layerId = "9BCDAEAC-6304-481D-8AE6-B16EBB77438F";
shapes = (
{
ref = a;
},
{
pos = (91,0);
ref = caroncomb;
}
);
width = 551;
}
);
unicode = 462;
},
{
glyphname = acircumflex;
kernLeft = a2;
kernRight = a;
lastChange = "2023-01-05 10:31:08 +0000";
layers = (
{
background = {
shapes = (
{
closed = 1;
nodes = (
(331,298,l),
(291,283,ls),
(252,268,o),
(202,238,o),
(175,205,o),
(165,168,o),
(165,146,qs),
(165,103,o),
(208,48,o),
(241,48,qs),
(263,48,o),
(304,70,o),
(330,95,q)
);
},
{
closed = 1;
nodes = (
(326,523,o),
(397,498,o),
(447,451,o),
(475,386,o),
(475,346,qs),
(475,105,l),
(474,77,o),
(495,47,o),
(514,47,qs),
(537,47,o),
(559,72,q),
(567,65,l),
(541,30,o),
(467,-14,o),
(432,-14,qs),
(394,-14,o),
(339,38,o),
(332,81,q),
(307,55,o),
(265,19,o),
(226,-4,o),
(187,-14,o),
(166,-14,qs),
(105,-14,o),
(31,52,o),
(31,106,qs),
(31,129,o),
(46,170,o),
(91,210,o),
(172,253,o),
(238,277,qs),
(331,311,l),
(331,386,ls),
(331,443,o),
(295,510,o),
(263,510,q),
(225,509,o),
(172,411,o),
(163,324,q),
(55,386,l),
(68,417,o),
(114,467,o),
(174,503,o),
(245,523,o),
(283,523,qs)
);
},
{
closed = 1;
nodes = (
(244,784,l),
(295,784,l),
(423,588,l),
(416,581,l),
(270,714,l),
(124,581,l),
(117,588,l)
);
}
);
};
layerId = "9BCDAEAC-6304-481D-8AE6-B16EBB77438F";
shapes = (
{
ref = a;
},
{
pos = (91,0);
ref = circumflexcomb;
}
);
width = 551;
}
);
unicode = 226;
},
{
glyphname = adieresis;
kernLeft = a2;
kernRight = a;
lastChange = "2023-01-05 10:31:08 +0000";
layers = (
{
background = {
shapes = (
{
closed = 1;
nodes = (
(331,298,l),
(291,283,ls),
(252,268,o),
(202,238,o),
(175,205,o),
(165,168,o),
(165,146,qs),
(165,103,o),
(208,48,o),
(241,48,qs),
(263,48,o),
(304,70,o),
(330,95,q)
);
},
{
closed = 1;
nodes = (
(326,523,o),
(397,498,o),
(447,451,o),
(475,386,o),
(475,346,qs),
(475,105,l),
(474,77,o),
(495,47,o),
(514,47,qs),
(537,47,o),
(559,72,q),
(567,65,l),
(541,30,o),
(467,-14,o),
(432,-14,qs),
(394,-14,o),
(339,38,o),
(332,81,q),
(307,55,o),
(265,19,o),
(226,-4,o),
(187,-14,o),
(166,-14,qs),
(105,-14,o),
(31,52,o),
(31,106,qs),
(31,129,o),
(46,170,o),
(91,210,o),
(172,253,o),
(238,277,qs),
(331,311,l),
(331,386,ls),
(331,443,o),
(295,510,o),
(263,510,q),
(225,509,o),
(172,411,o),
(163,324,q),
(55,386,l),
(68,417,o),
(114,467,o),
(174,503,o),
(245,523,o),
(283,523,qs)
);
},
{
closed = 1;
nodes = (
(86,710,o),
(130,754,o),
(161,754,qs),
(192,754,o),
(236,710,o),
(236,679,qs),
(236,648,o),
(192,604,o),
(161,604,qs),
(130,604,o),
(86,648,o),
(86,679,qs)
);
},
{
closed = 1;
nodes = (
(284,710,o),
(328,754,o),
(359,754,qs),
(390,754,o),
(434,710,o),
(434,679,qs),
(434,648,o),
(390,604,o),
(359,604,qs),
(328,604,o),
(284,648,o),
(284,679,qs)
);
}
);
};
layerId = "9BCDAEAC-6304-481D-8AE6-B16EBB77438F";
shapes = (
{
ref = a;
},
{
pos = (60,0);
ref = dieresiscomb;
}
);
width = 551;
}
);
unicode = 228;
},
{
glyphname = agrave;
kernLeft = a2;
kernRight = a;
lastChange = "2023-01-05 10:40:44 +0000";
layers = (
{
background = {
shapes = (
{
closed = 1;
nodes = (
(331,298,l),
(291,283,ls),
(252,268,o),
(202,238,o),
(175,205,o),
(165,168,o),
(165,146,qs),
(165,103,o),
(208,48,o),
(241,48,qs),
(263,48,o),
(304,70,o),
(330,95,q)
);
},
{
closed = 1;
nodes = (
(326,523,o),
(397,498,o),
(447,451,o),
(475,386,o),
(475,346,qs),
(475,105,l),
(474,77,o),
(495,47,o),
(514,47,qs),
(537,47,o),
(559,72,q),
(567,65,l),
(541,30,o),
(467,-14,o),
(432,-14,qs),
(394,-14,o),
(339,38,o),
(332,81,q),
(307,55,o),
(265,19,o),
(226,-4,o),
(187,-14,o),
(166,-14,qs),
(105,-14,o),
(31,52,o),
(31,106,qs),
(31,129,o),
(46,170,o),
(91,210,o),
(172,253,o),
(238,277,qs),
(331,311,l),
(331,386,ls),
(331,443,o),
(295,510,o),
(263,510,q),
(225,509,o),
(172,411,o),
(163,324,q),
(55,386,l),
(68,417,o),
(114,467,o),
(174,503,o),
(245,523,o),
(283,523,qs)
);
},
{
closed = 1;
nodes = (
(336,581,l),
(136,721,l),
(136,726,l),
(201,784,l),
(206,784,l),
(343,591,l)
);
}
);
};
layerId = "9BCDAEAC-6304-481D-8AE6-B16EBB77438F";
shapes = (
{
ref = a;
},
{
pos = (101,0);
ref = gravecomb;
}
);
width = 551;
}
);
unicode = 224;
},
{
glyphname = amacron;
kernLeft = J;
lastChange = "2023-01-05 10:31:08 +0000";
layers = (
{
background = {
shapes = (
{
closed = 1;
nodes = (
(331,298,l),
(291,283,ls),
(252,268,o),
(202,238,o),
(175,205,o),
(165,168,o),
(165,146,qs),
(165,103,o),
(208,48,o),
(241,48,qs),
(263,48,o),
(304,70,o),
(330,95,q)
);
},
{
closed = 1;
nodes = (
(326,523,o),
(397,498,o),
(447,451,o),
(475,386,o),
(475,346,qs),
(475,105,l),
(474,77,o),
(495,47,o),
(514,47,qs),
(537,47,o),
(559,72,q),
(567,65,l),
(541,30,o),
(467,-14,o),
(432,-14,qs),
(394,-14,o),
(339,38,o),
(332,81,q),
(307,55,o),
(265,19,o),
(226,-4,o),
(187,-14,o),
(166,-14,qs),
(105,-14,o),
(31,52,o),
(31,106,qs),
(31,129,o),
(46,170,o),
(91,210,o),
(172,253,o),
(238,277,qs),
(331,311,l),
(331,386,ls),
(331,443,o),
(295,510,o),
(263,510,q),
(225,509,o),
(172,411,o),
(163,324,q),
(55,386,l),
(68,417,o),
(114,467,o),
(174,503,o),
(245,523,o),
(283,523,qs)
);
},
{
closed = 1;
nodes = (
(156,651,l),
(156,704,l),
(376,704,l),
(376,651,l)
);
}
);
};
layerId = "9BCDAEAC-6304-481D-8AE6-B16EBB77438F";
shapes = (
{
ref = a;
},
{
pos = (124,0);
ref = macroncomb;
}
);
width = 551;
}
);
unicode = 257;
},
{
glyphname = aogonek;
kernLeft = J;
lastChange = "2023-01-05 10:56:00 +0000";
layers = (
{
background = {
shapes = (
{
closed = 1;
nodes = (
(331,298,l),
(291,283,ls),
(252,268,o),
(202,238,o),
(175,205,o),
(165,168,o),
(165,146,qs),
(165,103,o),
(208,48,o),
(241,48,qs),
(263,48,o),
(304,70,o),
(330,95,q)
);
},
{
closed = 1;
nodes = (
(326,523,o),
(397,498,o),
(447,451,o),
(475,386,o),
(475,346,qs),
(475,105,l),
(474,77,o),
(495,47,o),
(514,47,qs),
(537,47,o),
(559,72,q),
(567,65,l),
(552,44,o),
(512,11,o),
(492,0,qs),
(451,-22,o),
(407,-95,o),
(407,-140,qs),
(407,-172,o),
(430,-208,o),
(451,-208,qs),
(476,-208,o),
(519,-158,o),
(528,-119,q),
(539,-119,l),
(520,-218,l),
(494,-218,o),
(460,-225,o),
(436,-225,qs),
(383,-225,o),
(327,-175,o),
(327,-129,qs),
(327,-90,o),
(368,-27,o),
(404,-10,q),
(376,-2,o),
(337,46,o),
(332,81,q),
(307,55,o),
(265,19,o),
(226,-4,o),
(187,-14,o),
(166,-14,qs),
(105,-14,o),
(31,52,o),
(31,106,qs),
(31,129,o),
(46,170,o),
(91,210,o),
(172,253,o),
(238,277,qs),
(331,311,l),
(331,386,ls),
(331,443,o),
(295,510,o),
(263,510,q),
(225,509,o),
(172,411,o),
(163,324,q),
(55,386,l),
(68,417,o),
(114,467,o),
(174,503,o),
(245,523,o),
(283,523,qs)
);
}
);
};
layerId = "9BCDAEAC-6304-481D-8AE6-B16EBB77438F";
shapes = (
{
ref = a;
},
{
pos = (297,1);
ref = ogonekcomb;
}
);
width = 551;
}
);
unicode = 261;
},
{
glyphname = aring;
kernLeft = a2;
kernRight = a;
lastChange = "2023-01-05 10:31:08 +0000";
layers = (
{
background = {
shapes = (
{
closed = 1;
nodes = (
(331,298,l),
(291,283,ls),
(252,268,o),
(202,238,o),
(175,205,o),
(165,168,o),
(165,146,qs),
(165,103,o),
(208,48,o),
(241,48,qs),
(263,48,o),
(304,70,o),
(330,95,q)
);
},
{
closed = 1;
nodes = (
(205,666,o),
(237,633,o),
(260,633,qs),
(283,633,o),
(316,666,o),
(316,689,qs),
(316,712,o),
(283,745,o),
(260,745,qs),
(237,745,o),
(205,712,o),
(205,689,qs)
);
},
{
closed = 1;
nodes = (
(326,523,o),
(397,498,o),
(447,451,o),
(475,386,o),
(475,346,qs),
(475,105,l),
(474,77,o),
(495,47,o),
(514,47,qs),
(537,47,o),
(559,72,q),
(567,65,l),
(541,30,o),
(467,-14,o),
(432,-14,qs),
(394,-14,o),
(339,38,o),
(332,81,q),
(307,55,o),
(265,19,o),
(226,-4,o),
(187,-14,o),
(166,-14,qs),
(105,-14,o),
(31,52,o),
(31,106,qs),
(31,129,o),
(46,170,o),
(91,210,o),
(172,253,o),
(238,277,qs),
(331,311,l),
(331,386,ls),
(331,443,o),
(295,510,o),
(263,510,q),
(225,509,o),
(172,411,o),
(163,324,q),
(55,386,l),
(68,417,o),
(114,467,o),
(174,503,o),
(245,523,o),
(283,523,qs)
);
},
{
closed = 1;
nodes = (
(183,720,o),
(228,764,o),
(260,764,qs),
(292,764,o),
(337,720,o),
(337,689,qs),
(337,658,o),
(292,614,o),
(260,614,qs),
(228,614,o),
(183,658,o),
(183,689,qs)
);
}
);
};
layerId = "9BCDAEAC-6304-481D-8AE6-B16EBB77438F";
shapes = (
{
ref = a;
},
{
pos = (156,0);
ref = ringcomb;
}
);
width = 551;
}
);
unicode = 229;
},
{
glyphname = atilde;
kernLeft = a2;
kernRight = a;
lastChange = "2023-01-05 10:31:08 +0000";
layers = (
{
background = {
shapes = (
{
closed = 1;
nodes = (
(331,298,l),
(291,283,ls),
(252,268,o),
(202,238,o),
(175,205,o),
(165,168,o),
(165,146,qs),
(165,103,o),
(208,48,o),
(241,48,qs),
(263,48,o),
(304,70,o),
(330,95,q)
);
},
{
closed = 1;
nodes = (
(326,523,o),
(397,498,o),
(447,451,o),
(475,386,o),
(475,346,qs),
(475,105,l),
(474,77,o),
(495,47,o),
(514,47,qs),
(537,47,o),
(559,72,q),
(567,65,l),
(541,30,o),
(467,-14,o),
(432,-14,qs),
(394,-14,o),
(339,38,o),
(332,81,q),
(307,55,o),
(265,19,o),
(226,-4,o),
(187,-14,o),
(166,-14,qs),
(105,-14,o),
(31,52,o),
(31,106,qs),
(31,129,o),
(46,170,o),
(91,210,o),
(172,253,o),
(238,277,qs),
(331,311,l),
(331,386,ls),
(331,443,o),
(295,510,o),
(263,510,q),
(225,509,o),
(172,411,o),
(163,324,q),
(55,386,l),
(68,417,o),
(114,467,o),
(174,503,o),
(245,523,o),
(283,523,qs)
);
},
{
closed = 1;
nodes = (
(418,723,l),
(405,673,o),
(354,613,o),
(325,613,qs),
(306,613,o),
(274,631,o),
(245,652,o),
(216,670,o),
(199,670,qs),
(182,670,o),
(146,649,o),
(133,626,q),
(123,630,l),
(140,680,o),
(194,740,o),
(221,740,qs),
(241,740,o),
(272,722,o),
(300,701,o),
(330,683,o),
(348,683,qs),
(363,683,o),
(394,701,o),
(408,727,q)
);
}
);
};
layerId = "9BCDAEAC-6304-481D-8AE6-B16EBB77438F";
shapes = (
{
ref = a;
},
{
pos = (87,0);
ref = tildecomb;
}
);
width = 551;
}
);
unicode = 227;
},
{
glyphname = ae;
kernLeft = a2;
kernRight = b;
lastChange = "2023-01-05 10:52:45 +0000";
layers = (
{
anchors = (
{
name = bottom;
pos = (413,0);
},
{
name = top;
pos = (413,508);
}
);
background = {
shapes = (
{
closed = 1;
nodes = (
(344,307,l),
(290,284,ls),
(221,255,o),
(163,193,o),
(163,148,qs),
(163,101,o),
(207,46,o),
(243,46,qs),
(275,46,o),
(343,92,o),
(366,130,q),
(344,186,o),
(344,255,qs)
);
},
{
closed = 1;
nodes = (
(662,330,l),
(662,411,o),
(610,507,o),
(565,507,qs),
(521,507,o),
(463,411,o),
(459,330,q)
);
},
{
closed = 1;
nodes = (
(323,522,o),
(401,497,o),
(427,474,q),
(489,522,o),
(576,522,qs),
(623,522,o),
(701,494,o),
(758,443,o),
(792,373,o),
(793,330,q),
(793,315,l),
(458,315,l),
(458,310,ls),
(458,257,o),
(482,170,o),
(527,107,o),
(591,72,o),
(629,72,qs),
(676,72,o),
(764,122,o),
(793,164,q),
(802,161,l),
(776,80,o),
(650,-12,o),
(568,-12,qs),
(497,-12,o),
(393,57,o),
(371,119,q),
(355,90,o),
(309,41,o),
(253,6,o),
(192,-14,o),
(162,-14,qs),
(104,-14,o),
(31,52,o),
(31,106,qs),
(31,132,o),
(50,174,o),
(97,213,o),
(176,253,o),
(235,277,qs),
(344,321,l),
(344,386,ls),
(344,446,o),
(308,509,o),
(274,509,qs),
(232,509,o),
(172,409,o),
(163,324,q),
(55,384,l),
(84,451,o),
(197,522,o),
(275,522,qs)
);
}
);
};
layerId = "9BCDAEAC-6304-481D-8AE6-B16EBB77438F";
shapes = (
{
closed = 1;
nodes = (
(245,-14,o),
(329,44,o),
(371,119,c),
(400,36,o),
(473,-12,o),
(568,-12,cs),
(677,-12,o),
(767,53,o),
(802,161,c),
(793,164,l),
(754,108,o),
(692,72,o),
(629,72,cs),
(525,72,o),
(458,171,o),
(458,310,cs),
(458,315,l),
(793,315,l),
(793,330,ls),
(790,444,o),
(697,522,o),
(576,522,cs),
(518,522,o),
(468,506,o),
(427,474,c),
(392,505,o),
(339,522,o),
(275,522,cs),
(171,522,o),
(94,473,o),
(55,384,c),
(163,324,l),
(175,437,o),
(218,509,o),
(274,509,cs),
(319,509,o),
(344,466,o),
(344,386,cs),
(344,321,l),
(235,277,ls),
(76,212,o),
(31,175,o),
(31,106,cs),
(31,34,o),
(85,-14,o),
(162,-14,cs)
);
},
{
closed = 1;
nodes = (
(195,46,o),
(163,85,o),
(163,148,cs),
(163,208,o),
(198,245,o),
(290,284,cs),
(344,307,l),
(344,255,ls),
(344,209,o),
(351,167,o),
(366,130,c),
(335,79,o),
(286,46,o),
(243,46,cs)
);
},
{
closed = 1;
nodes = (
(464,438,o),
(506,507,o),
(565,507,cs),
(625,507,o),
(662,438,o),
(662,330,c),
(459,330,l)
);
}
);
width = 826;
}
);
unicode = 230;
},
{
glyphname = b;
kernLeft = J;
kernRight = b;
lastChange = "2023-01-05 10:58:39 +0000";
layers = (
{
anchors = (
{
name = bottom;
pos = (292,0);
},
{
name = center;
pos = (292,254);
},
{
name = top;
pos = (292,508);
}
);
background = {
shapes = (
{
closed = 1;
nodes = (
(190,138,l),
(194,76,o),
(244,3,o),
(285,3,qs),
(338,3,o),
(392,135,o),
(392,263,qs),
(392,375,o),
(350,483,o),
(305,483,qs),
(288,483,o),
(253,468,o),
(221,442,o),
(197,408,o),
(190,389,q)
);
},
{
closed = 1;
nodes = (
(56,-14,l),
(46,-14,l),
(46,660,ls),
(46,696,o),
(1,740,o),
(-35,740,q),
(-35,750,l),
(67,750,ls),
(95,750,o),
(134,756,o),
(160,766,o),
(175,780,o),
(180,788,q),
(190,788,l),
(190,424,l),
(213,469,o),
(296,523,o),
(346,523,qs),
(389,523,o),
(464,483,o),
(519,412,o),
(550,314,o),
(550,256,qs),
(550,195,o),
(516,95,o),
(453,25,o),
(367,-14,o),
(314,-14,qs),
(195,-14,o),
(154,85,q)
);
}
);
};
layerId = "9BCDAEAC-6304-481D-8AE6-B16EBB77438F";
shapes = (
{
closed = 1;
nodes = (
(56,-14,l),
(154,85,l),
(181,19,o),
(235,-14,o),
(314,-14,cs),
(455,-14,o),
(550,95,o),
(550,256,cs),
(550,409,o),
(463,523,o),
(346,523,cs),
(279,523,o),
(221,484,o),
(190,424,c),
(190,788,l),
(180,788,l),
(167,767,o),
(145,750,o),
(67,750,cs),
(-35,750,l),
(-35,740,l),
(13,740,o),
(46,708,o),
(46,660,cs),
(46,-14,l)
);
},
{
closed = 1;
nodes = (
(230,3,o),
(195,55,o),
(190,138,c),
(190,389,l),
(208,437,o),
(251,483,o),
(305,483,cs),
(335,483,o),
(357,465,o),
(371,429,cs),
(385,393,o),
(392,338,o),
(392,263,cs),
(392,178,o),
(383,113,o),
(365,69,cs),
(347,25,o),
(320,3,o),
(285,3,cs)
);
}
);
width = 583;
}
);
unicode = 98;
},
{
glyphname = c;
kernLeft = c2;
kernRight = c;
lastChange = "2023-01-05 10:52:45 +0000";
layers = (
{
anchors = (
{
name = bottom;
pos = (294,0);
},
{
name = top;
pos = (268,508);
}
);
background = {
shapes = (
{
closed = 1;
nodes = (
(33,310,o),
(71,410,o),
(139,482,o),
(231,522,o),
(286,522,qs),
(370,522,o),
(481,431,o),
(492,353,q),
(372,286,l),
(372,389,o),
(320,507,o),
(273,507,qs),
(250,507,o),
(212,478,o),
(184,427,o),
(169,355,o),
(169,313,qs),
(169,260,o),
(193,174,o),
(238,113,o),
(300,80,o),
(339,80,qs),
(387,80,o),
(474,128,o),
(502,169,q),
(512,166,l),
(499,125,o),
(450,59,o),
(385,12,o),
(308,-14,o),
(266,-14,qs),
(215,-14,o),
(129,25,o),
(67,95,o),
(33,192,o),
(33,250,qs)
);
}
);
};
layerId = "9BCDAEAC-6304-481D-8AE6-B16EBB77438F";
shapes = (
{
closed = 1;
nodes = (
(377,-14,o),
(478,58,o),
(512,166,c),
(502,169,l),
(465,114,o),
(403,80,o),
(339,80,cs),
(235,80,o),
(169,174,o),
(169,313,cs),
(169,420,o),
(209,507,o),
(273,507,cs),
(304,507,o),
(329,487,o),
(346,448,cs),
(363,409,o),
(372,355,o),
(372,286,c),
(492,353,l),
(477,457,o),
(398,522,o),
(286,522,cs),
(141,522,o),
(33,410,o),
(33,250,cs),
(33,95,o),
(129,-14,o),
(266,-14,cs)
);
}
);
width = 536;
}
);
unicode = 99;
},
{
glyphname = cacute;
kernLeft = J;
lastChange = "2023-01-05 10:37:16 +0000";
layers = (
{
background = {
shapes = (
{
closed = 1;
nodes = (
(33,310,o),
(71,410,o),
(139,482,o),
(231,522,o),
(286,522,qs),
(370,522,o),
(481,431,o),
(492,353,q),
(372,286,l),
(372,389,o),
(320,507,o),
(273,507,qs),
(250,507,o),
(212,478,o),
(184,427,o),
(169,355,o),
(169,313,qs),
(169,260,o),
(193,174,o),
(238,113,o),
(300,80,o),
(339,80,qs),
(387,80,o),
(474,128,o),
(502,169,q),
(512,166,l),
(499,125,o),
(450,59,o),
(385,12,o),
(308,-14,o),
(266,-14,qs),
(215,-14,o),
(129,25,o),
(67,95,o),
(33,192,o),
(33,250,qs)
);
},
{
closed = 1;
nodes = (
(172,581,l),
(165,591,l),
(302,784,l),
(307,784,l),
(372,726,l),
(372,721,l)
);
}
);
};
layerId = "9BCDAEAC-6304-481D-8AE6-B16EBB77438F";
shapes = (
{
ref = c;
},
{
pos = (163,0);
ref = acutecomb;
}
);
width = 536;
}
);
unicode = 263;
},
{
glyphname = ccaron;
kernLeft = J;
lastChange = "2023-01-05 10:13:30 +0000";
layers = (
{
background = {
shapes = (
{
closed = 1;
nodes = (
(33,310,o),
(71,410,o),
(139,482,o),
(231,522,o),
(286,522,qs),
(370,522,o),
(481,431,o),
(492,353,q),
(372,286,l),
(372,389,o),
(320,507,o),
(273,507,qs),
(250,507,o),
(212,478,o),
(184,427,o),
(169,355,o),
(169,313,qs),
(169,260,o),
(193,174,o),
(238,113,o),
(300,80,o),
(339,80,qs),
(387,80,o),
(474,128,o),
(502,169,q),
(512,166,l),
(499,125,o),
(450,59,o),
(385,12,o),
(308,-14,o),
(266,-14,qs),
(215,-14,o),
(129,25,o),
(67,95,o),
(33,192,o),
(33,250,qs)
);
},
{
closed = 1;
nodes = (
(242,581,l),
(115,777,l),
(122,784,l),
(268,651,l),
(414,784,l),
(421,777,l),
(293,581,l)
);
}
);
};
layerId = "9BCDAEAC-6304-481D-8AE6-B16EBB77438F";
shapes = (
{
ref = c;
},
{
pos = (93,0);
ref = caroncomb;
}
);
width = 536;
}
);
unicode = 269;
},
{
glyphname = ccedilla;
kernLeft = c2;
kernRight = c;
lastChange = "2023-01-05 10:31:41 +0000";
layers = (
{
background = {
shapes = (
{
closed = 1;
nodes = (
(33,311,o),
(69,411,o),
(133,482,o),
(222,522,o),
(276,522,qs),
(361,522,o),
(472,431,o),
(483,353,q),
(363,286,l),
(363,389,o),
(311,507,o),
(264,507,qs),
(241,507,o),
(203,478,o),
(175,426,o),
(160,355,o),
(160,312,qs),
(160,259,o),
(184,172,o),
(228,109,o),
(290,75,o),
(327,75,qs),
(374,75,o),
(464,126,o),
(493,169,q),
(503,166,l),
(478,89,o),
(364,-6,o),
(289,-13,q),
(272,-56,l),
(328,-57,o),
(395,-105,o),
(395,-145,qs),
(395,-181,o),
(336,-225,o),
(286,-225,qs),
(274,-225,o),
(258,-223,o),
(243,-220,o),
(226,-218,o),
(213,-218,q),
(194,-119,l),
(205,-119,l),
(223,-208,o),
(272,-208,qs),
(292,-208,o),
(315,-177,o),
(315,-150,qs),
(315,-117,o),
(282,-68,o),
(258,-63,q),
(258,-57,l),
(275,-14,l),
(217,-14,o),
(126,27,o),
(65,98,o),
(33,195,o),
(33,251,qs)
);
}
);
};
layerId = "9BCDAEAC-6304-481D-8AE6-B16EBB77438F";
shapes = (
{
ref = c;
},
{
pos = (166,0);
ref = cedillacomb;
}
);
width = 536;
}
);
unicode = 231;
},
{
glyphname = cdotaccent;
kernLeft = J;
lastChange = "2023-01-05 10:13:30 +0000";
layers = (
{
background = {
shapes = (
{
closed = 1;
nodes = (
(33,310,o),
(71,410,o),
(139,482,o),
(231,522,o),
(286,522,qs),
(370,522,o),
(481,431,o),
(492,353,q),
(372,286,l),
(372,389,o),
(320,507,o),
(273,507,qs),
(250,507,o),
(212,478,o),
(184,427,o),
(169,355,o),
(169,313,qs),
(169,260,o),
(193,174,o),
(238,113,o),
(300,80,o),
(339,80,qs),
(387,80,o),
(474,128,o),
(502,169,q),
(512,166,l),
(499,125,o),
(450,59,o),
(385,12,o),
(308,-14,o),
(266,-14,qs),
(215,-14,o),
(129,25,o),
(67,95,o),
(33,192,o),
(33,250,qs)
);
},
{
closed = 1;
nodes = (
(196,708,o),
(239,749,o),
(268,749,qs),
(297,749,o),
(341,708,o),
(341,679,qs),
(341,665,o),
(329,639,o),
(309,620,o),
(283,609,o),
(268,609,qs),
(239,609,o),
(196,650,o),
(196,679,qs)
);
}
);
};
layerId = "9BCDAEAC-6304-481D-8AE6-B16EBB77438F";
shapes = (
{
ref = c;
},
{
pos = (163,0);
ref = dotaccentcomb;
}
);
width = 536;
}
);
unicode = 267;
},
{
glyphname = d;
kernLeft = c2;
kernRight = d;
lastChange = "2023-01-05 10:57:30 +0000";
layers = (
{
anchors = (
{
name = bottom;
pos = (303,0);
},
{
name = center;
pos = (303,254);
},
{
name = top;
pos = (303,780);
},
{
name = topright;
pos = (576,830);
}
);
background = {
shapes = (
{
closed = 1;
nodes = (
(397,373,l),
(392,433,o),
(343,505,o),
(304,505,qs),
(251,505,o),
(195,372,o),
(195,244,qs),
(195,25,o),
(280,25,qs),
(297,25,o),
(333,42,o),
(364,70,o),
(390,108,o),
(397,129,q)
);
},
{
closed = 1;
nodes = (
(541,788,l),
(541,90,ls),
(541,54,o),
(585,10,o),
(622,10,q),
(622,0,l),
(520,0,ls),
(476,0,o),
(425,-18,o),
(411,-38,q),
(401,-38,l),
(400,104,l),
(388,78,o),
(351,34,o),
(305,3,o),
(252,-15,o),
(225,-15,qs),
(185,-15,o),
(115,24,o),
(64,94,o),
(35,190,o),
(35,247,qs),
(35,310,o),
(71,411,o),
(136,483,o),
(228,522,o),
(283,522,qs),
(324,522,o),
(376,497,o),
(397,467,q),
(397,660,ls),
(397,696,o),
(352,740,o),
(316,740,q),
(316,750,l),
(418,750,ls),
(446,750,o),
(484,756,o),
(510,766,o),
(526,780,o),
(531,788,q)
);
}
);
};
layerId = "9BCDAEAC-6304-481D-8AE6-B16EBB77438F";
shapes = (
{
closed = 1;
nodes = (
(411,-38,l),
(430,-11,o),
(461,0,o),
(520,0,cs),
(622,0,l),
(622,10,l),
(573,10,o),
(541,42,o),
(541,90,cs),
(541,788,l),
(531,788,l),
(516,764,o),
(485,750,o),
(418,750,cs),
(316,750,l),
(316,740,l),
(364,740,o),
(397,708,o),
(397,660,cs),
(397,467,l),
(369,507,o),
(338,522,o),
(283,522,cs),
(136,522,o),
(35,415,o),
(35,247,cs),
(35,96,o),
(116,-15,o),
(225,-15,cs),
(298,-15,o),
(368,35,o),
(400,104,c),
(401,-38,l)
);
},
{
closed = 1;
nodes = (
(223,25,o),
(195,98,o),
(195,244,cs),
(195,329,o),
(204,394,o),
(223,439,cs),
(242,483,o),
(269,505,o),
(304,505,cs),
(356,505,o),
(390,453,o),
(397,373,c),
(397,129,l),
(379,74,o),
(326,25,o),
(280,25,cs)
);
}
);
width = 605;
}
);
unicode = 100;
},
{
glyphname = eth;
kernLeft = J;
lastChange = "2023-01-05 10:52:45 +0000";
layers = (
{
anchors = (
{
name = bottom;
pos = (306,0);
},
{
name = top;
pos = (306,780);
}
);
background = {
shapes = (
{
closed = 1;
nodes = (
(193,190,o),
(210,100,o),
(240,35,o),
(281,-2,o),
(305,-2,qs),
(330,-2,o),
(371,35,o),
(401,100,o),
(418,190,o),
(418,244,qs),
(418,298,o),
(401,388,o),
(371,453,o),
(330,489,o),
(306,489,qs),
(281,489,o),
(240,453,o),
(210,388,o),
(193,298,o),
(193,244,qs)
);
},
{
closed = 1;
nodes = (
(33,301,o),
(70,396,o),
(138,463,o),
(232,500,o),
(290,500,qs),
(325,500,o),
(387,477,o),
(401,457,q),
(390,499,o),
(354,584,o),
(332,619,q),
(179,567,l),
(176,576,l),
(327,627,l),
(312,650,o),
(270,697,o),
(222,739,o),
(170,775,o),
(146,787,q),
(150,796,l),
(184,786,o),
(254,754,o),
(321,717,o),
(381,674,o),
(404,653,q),
(513,690,l),
(516,681,l),
(411,646,l),
(448,610,o),
(508,520,o),
(550,419,o),
(573,312,o),
(573,260,qs),
(573,197,o),
(536,95,o),
(466,24,o),
(366,-14,o),
(304,-14,qs),
(243,-14,o),
(143,23,o),
(72,90,o),
(33,185,o),
(33,243,qs)
);
}
);
};
layerId = "9BCDAEAC-6304-481D-8AE6-B16EBB77438F";
shapes = (
{
closed = 1;
nodes = (
(470,-14,o),
(573,90,o),
(573,260,cs),
(573,404,o),
(509,551,o),
(411,646,c),
(516,681,l),
(513,690,l),
(404,653,l),
(342,709,o),
(239,770,o),
(150,796,c),
(146,787,l),
(211,754,o),
(287,689,o),
(327,627,c),
(176,576,l),
(179,567,l),
(332,619,l),
(361,572,o),
(386,513,o),
(401,457,c),
(382,484,o),
(337,500,o),
(290,500,cs),
(135,500,o),
(33,396,o),
(33,243,cs),
(33,89,o),
(141,-14,o),
(304,-14,cs)
);
},
{
closed = 1;
nodes = (
(240,-2,o),
(193,104,o),
(193,244,cs),
(193,379,o),
(237,489,o),
(306,489,cs),
(370,489,o),
(418,389,o),
(418,244,cs),
(418,111,o),
(375,-2,o),
(305,-2,cs)
);
}
);
width = 612;
}
);
unicode = 240;
},
{
glyphname = dcaron;
kernLeft = J;
kernRight = lcaron;
lastChange = "2023-01-05 10:57:36 +0000";
layers = (
{
background = {
shapes = (
{
closed = 1;
nodes = (
(397,373,l),
(392,433,o),
(343,505,o),
(304,505,qs),
(251,505,o),
(195,372,o),
(195,244,qs),
(195,25,o),
(280,25,qs),
(297,25,o),
(333,42,o),
(364,70,o),
(390,108,o),
(397,129,q)
);
},
{
closed = 1;
nodes = (
(541,788,l),
(541,90,ls),
(541,54,o),
(585,10,o),
(622,10,q),
(622,0,l),
(520,0,ls),
(476,0,o),
(425,-18,o),
(411,-38,q),
(401,-38,l),
(400,104,l),
(388,78,o),
(351,34,o),
(305,3,o),
(252,-15,o),
(225,-15,qs),
(185,-15,o),
(115,24,o),
(64,94,o),
(35,190,o),
(35,247,qs),
(35,310,o),
(71,411,o),
(136,483,o),
(228,522,o),
(283,522,qs),
(324,522,o),
(376,497,o),
(397,467,q),
(397,660,ls),
(397,696,o),
(352,740,o),
(316,740,q),
(316,750,l),
(418,750,ls),
(446,750,o),
(484,756,o),
(510,766,o),
(526,780,o),
(531,788,q)
);
},
{
closed = 1;
nodes = (
(566,772,o),
(609,814,o),
(644,814,qs),
(682,814,o),
(726,762,o),
(726,714,qs),
(726,689,o),
(712,644,o),
(680,600,o),
(629,557,o),
(593,533,q),
(587,544,l),
(630,572,o),
(664,609,o),
(664,629,qs),
(664,643,o),
(649,659,o),
(628,670,o),
(602,679,o),
(581,694,o),
(566,718,o),
(566,738,qs)
);
}
);
};
layerId = "9BCDAEAC-6304-481D-8AE6-B16EBB77438F";
shapes = (
{
ref = d;
},
{
pos = (515,50);
ref = caroncomb.alt;
}
);
width = 605;
}
);
unicode = 271;
},
{
glyphname = dcroat;
kernLeft = J;
kernRight = d;
lastChange = "2023-01-05 10:52:45 +0000";
layers = (
{
background = {
shapes = (
{
closed = 1;
nodes = (
(393,373,l),
(388,433,o),
(339,505,o),
(300,505,qs),
(247,505,o),
(191,372,o),
(191,244,qs),
(191,25,o),
(276,25,qs),
(293,25,o),
(329,42,o),
(360,70,o),
(386,108,o),
(393,129,q)
);
},
{
closed = 1;
nodes = (
(537,604,l),
(537,104,ls),
(537,59,o),
(574,19,o),
(618,19,q),
(618,10,l),
(516,10,ls),
(416,10,o),
(402,-28,q),
(397,-28,l),
(396,104,l),
(384,78,o),
(347,34,o),
(301,3,o),
(248,-15,o),
(221,-15,qs),
(181,-15,o),
(113,24,o),
(63,94,o),
(35,190,o),
(35,247,qs),
(35,310,o),
(70,411,o),
(133,483,o),
(224,522,o),
(279,522,qs),
(320,522,o),
(372,497,o),
(393,467,q),
(393,604,l),
(240,604,l),
(240,619,l),
(393,619,l),
(393,660,ls),
(393,696,o),
(348,740,o),
(312,740,q),
(312,750,l),
(414,750,ls),
(442,750,o),
(480,756,o),
(506,766,o),
(522,780,o),
(527,788,q),
(537,788,l),
(537,619,l),
(599,619,l),
(599,604,l)
);
}
);
};
layerId = "9BCDAEAC-6304-481D-8AE6-B16EBB77438F";
shapes = (
{
closed = 1;
nodes = (
(402,-28,l),
(411,-3,o),
(449,10,o),
(516,10,cs),
(618,10,l),
(618,19,l),
(559,19,o),
(537,44,o),
(537,104,cs),
(537,604,l),
(599,604,l),
(599,619,l),
(537,619,l),
(537,788,l),
(527,788,l),
(512,764,o),
(481,750,o),
(414,750,cs),
(312,750,l),
(312,740,l),
(360,740,o),
(393,708,o),
(393,660,cs),
(393,619,l),
(240,619,l),
(240,604,l),
(393,604,l),
(393,467,l),
(365,507,o),
(334,522,o),
(279,522,cs),
(133,522,o),
(35,416,o),
(35,247,cs),
(35,93,o),
(115,-15,o),
(221,-15,cs),
(294,-15,o),
(364,35,o),
(396,104,c),
(397,-28,l)
);
},
{
closed = 1;
nodes = (
(219,25,o),
(191,98,o),
(191,244,cs),
(191,329,o),
(200,394,o),
(219,439,cs),
(238,483,o),
(265,505,o),
(300,505,cs),
(352,505,o),
(386,453,o),
(393,373,c),
(393,129,l),
(375,74,o),
(322,25,o),
(276,25,cs)
);
}
);
width = 601;
}
);
unicode = 273;
},
{
glyphname = e;
kernLeft = c2;
kernRight = c;
lastChange = "2023-01-05 10:52:45 +0000";
layers = (
{
anchors = (
{
name = bottom;
pos = (269,0);
},
{
name = ogonek;
pos = (293,10);
},
{
name = top;
pos = (285,508);
}
);
background = {
shapes = (
{
closed = 1;
nodes = (
(373,330,l),
(373,370,o),
(359,436,o),
(334,482,o),
(298,507,o),
(276,507,qs),
(232,507,o),
(174,411,o),
(170,330,q)
);
},
{
closed = 1;
nodes = (
(33,315,o),
(71,413,o),
(138,483,o),
(232,522,o),
(287,522,qs),
(334,522,o),
(412,494,o),
(469,443,o),
(503,373,o),
(504,330,q),
(505,315,l),
(169,315,l),
(169,310,ls),
(169,258,o),
(193,172,o),
(238,110,o),
(303,77,o),
(342,77,qs),
(390,77,o),
(477,124,o),
(504,164,q),
(513,161,l),
(500,122,o),
(452,58,o),
(387,13,o),
(310,-12,o),
(269,-12,qs),
(217,-12,o),
(130,27,o),
(68,98,o),
(33,196,o),
(33,255,qs)
);
}
);
};
layerId = "9BCDAEAC-6304-481D-8AE6-B16EBB77438F";
shapes = (
{
closed = 1;
nodes = (
(382,-12,o),
(479,58,o),
(513,161,c),
(504,164,l),
(468,111,o),
(406,77,o),
(342,77,cs),
(236,77,o),
(169,169,o),
(169,310,cs),
(169,315,l),
(505,315,l),
(504,330,ls),
(496,444,o),
(408,522,o),
(287,522,cs),
(140,522,o),
(33,415,o),
(33,255,cs),
(33,98,o),
(130,-12,o),
(269,-12,cs)
);
},
{
closed = 1;
nodes = (
(175,438,o),
(217,507,o),
(276,507,cs),
(337,507,o),
(373,435,o),
(373,330,c),
(170,330,l)
);
}
);
width = 537;
}
);
unicode = 101;
},
{
glyphname = eacute;
kernLeft = c2;
kernRight = c;
lastChange = "2023-01-05 10:37:16 +0000";
layers = (
{
background = {
shapes = (
{
closed = 1;
nodes = (
(373,330,l),
(373,411,o),
(321,507,o),
(276,507,qs),
(232,507,o),
(174,411,o),
(169,330,q)
);
},
{
closed = 1;
nodes = (
(33,315,o),
(71,413,o),
(138,483,o),
(232,522,o),
(287,522,qs),
(334,522,o),
(412,494,o),
(469,443,o),
(503,373,o),
(504,330,q),
(504,315,l),
(169,315,l),
(169,310,ls),
(169,258,o),
(193,172,o),
(238,110,o),
(303,77,o),
(342,77,qs),
(390,77,o),
(477,124,o),
(504,164,q),
(513,161,l),
(500,122,o),
(452,58,o),
(387,13,o),
(310,-12,o),
(269,-12,qs),
(217,-12,o),
(130,27,o),
(68,98,o),
(33,196,o),
(33,255,qs)
);
},
{
closed = 1;
nodes = (
(421,726,l),
(421,721,l),
(222,581,l),
(215,591,l),
(352,784,l),
(357,784,l)
);
}
);
};
layerId = "9BCDAEAC-6304-481D-8AE6-B16EBB77438F";
shapes = (
{
ref = e;
},
{
pos = (180,0);
ref = acutecomb;
}
);
width = 537;
}
);
unicode = 233;
},
{
glyphname = ecaron;
kernLeft = c2;
kernRight = c;
lastChange = "2023-01-05 10:59:20 +0000";
layers = (
{
background = {
shapes = (
{
closed = 1;
nodes = (
(373,330,l),
(373,370,o),
(359,436,o),
(334,482,o),
(298,507,o),
(276,507,qs),
(232,507,o),
(174,411,o),
(170,330,q)
);
},
{
closed = 1;
nodes = (
(33,315,o),
(71,413,o),
(138,483,o),
(232,522,o),
(287,522,qs),
(334,522,o),
(412,494,o),
(469,443,o),
(503,373,o),
(504,330,q),
(505,315,l),
(169,315,l),
(169,310,ls),
(169,258,o),
(193,172,o),
(238,110,o),
(303,77,o),
(342,77,qs),
(390,77,o),
(477,124,o),
(504,164,q),
(513,161,l),
(500,122,o),
(452,58,o),
(387,13,o),
(310,-12,o),
(269,-12,qs),
(217,-12,o),
(130,27,o),
(68,98,o),
(33,196,o),
(33,255,qs)
);
},
{
closed = 1;
nodes = (
(294,581,l),
(243,581,l),
(116,777,l),
(123,784,l),
(269,651,l),
(415,784,l),
(422,777,l)
);
}
);
};
layerId = "9BCDAEAC-6304-481D-8AE6-B16EBB77438F";
shapes = (
{
ref = e;
},
{
pos = (110,0);
ref = caroncomb;
}
);
width = 537;
}
);
unicode = 283;
},
{
glyphname = ecircumflex;
kernLeft = c2;
kernRight = c;
lastChange = "2023-01-05 10:31:53 +0000";
layers = (
{
background = {
shapes = (
{
closed = 1;
nodes = (
(373,330,l),
(373,411,o),
(321,507,o),
(276,507,qs),
(232,507,o),
(174,411,o),
(169,330,q)
);
},
{
closed = 1;
nodes = (
(33,315,o),
(71,413,o),
(138,483,o),
(232,522,o),
(287,522,qs),
(334,522,o),
(412,494,o),
(469,443,o),
(503,373,o),
(504,330,q),
(504,315,l),
(169,315,l),
(169,310,ls),
(169,258,o),
(193,172,o),
(238,110,o),
(303,77,o),
(342,77,qs),
(390,77,o),
(477,124,o),
(504,164,q),
(513,161,l),
(500,122,o),
(452,58,o),
(387,13,o),
(310,-12,o),
(269,-12,qs),
(217,-12,o),
(130,27,o),
(68,98,o),
(33,196,o),
(33,255,qs)
);
},
{
closed = 1;
nodes = (
(267,784,l),
(318,784,l),
(446,588,l),
(439,581,l),
(293,714,l),
(147,581,l),
(140,588,l)
);
}
);
};
layerId = "9BCDAEAC-6304-481D-8AE6-B16EBB77438F";
shapes = (
{
ref = e;
},
{
pos = (110,0);
ref = circumflexcomb;
}
);
width = 537;
}
);
unicode = 234;
},
{
glyphname = edieresis;
kernLeft = c2;
kernRight = c;
lastChange = "2023-01-05 10:31:53 +0000";
layers = (
{
background = {
shapes = (
{
closed = 1;
nodes = (
(373,330,l),
(373,411,o),
(321,507,o),
(276,507,qs),
(232,507,o),
(174,411,o),
(169,330,q)
);
},
{
closed = 1;
nodes = (
(33,315,o),
(71,413,o),
(138,483,o),
(232,522,o),
(287,522,qs),
(334,522,o),
(412,494,o),
(469,443,o),
(503,373,o),
(504,330,q),
(504,315,l),
(169,315,l),
(169,310,ls),
(169,258,o),
(193,172,o),
(238,110,o),
(303,77,o),
(342,77,qs),
(390,77,o),
(477,124,o),
(504,164,q),
(513,161,l),
(500,122,o),
(452,58,o),
(387,13,o),
(310,-12,o),
(269,-12,qs),
(217,-12,o),
(130,27,o),
(68,98,o),
(33,196,o),
(33,255,qs)
);
},
{
closed = 1;
nodes = (
(111,709,o),
(155,753,o),
(186,753,qs),
(216,753,o),
(261,709,o),
(261,678,qs),
(261,647,o),
(216,603,o),
(186,603,qs),
(155,603,o),
(111,647,o),
(111,678,qs)
);
},
{
closed = 1;
nodes = (
(309,709,o),
(353,753,o),
(384,753,qs),
(414,753,o),
(459,709,o),
(459,678,qs),
(459,647,o),
(414,603,o),
(384,603,qs),
(353,603,o),
(309,647,o),
(309,678,qs)
);
}
);
};
layerId = "9BCDAEAC-6304-481D-8AE6-B16EBB77438F";
shapes = (
{
ref = e;
},
{
pos = (79,0);
ref = dieresiscomb;
}
);
width = 537;
}
);
unicode = 235;
},
{
glyphname = edotaccent;
kernLeft = c2;
kernRight = c;
lastChange = "2023-01-05 10:59:38 +0000";
layers = (
{
background = {
shapes = (
{
closed = 1;
nodes = (
(373,330,l),
(373,370,o),
(359,436,o),
(334,482,o),
(298,507,o),
(276,507,qs),
(232,507,o),
(174,411,o),
(170,330,q)
);
},
{
closed = 1;
nodes = (
(33,315,o),
(71,413,o),
(138,483,o),
(232,522,o),
(287,522,qs),
(334,522,o),
(412,494,o),
(469,443,o),
(503,373,o),
(504,330,q),
(505,315,l),
(169,315,l),
(169,310,ls),
(169,258,o),
(193,172,o),
(238,110,o),
(303,77,o),
(342,77,qs),
(390,77,o),
(477,124,o),
(504,164,q),
(513,161,l),
(500,122,o),
(452,58,o),
(387,13,o),
(310,-12,o),
(269,-12,qs),
(217,-12,o),
(130,27,o),
(68,98,o),
(33,196,o),
(33,255,qs)
);
},
{
closed = 1;
nodes = (
(206,708,o),
(249,749,o),
(278,749,qs),
(307,749,o),
(351,708,o),
(351,679,qs),
(351,665,o),
(339,639,o),
(319,620,o),
(293,609,o),
(278,609,qs),
(249,609,o),
(206,650,o),
(206,679,qs)
);
}
);
};
layerId = "9BCDAEAC-6304-481D-8AE6-B16EBB77438F";
shapes = (
{
ref = e;
},
{
pos = (180,0);
ref = dotaccentcomb;
}
);
width = 537;
}
);
unicode = 279;
},
{
glyphname = egrave;
kernLeft = c2;
kernRight = c;
lastChange = "2023-01-05 10:40:44 +0000";
layers = (
{
background = {
shapes = (
{
closed = 1;
nodes = (
(373,330,l),
(373,411,o),
(321,507,o),
(276,507,qs),
(232,507,o),
(174,411,o),
(169,330,q)
);
},
{
closed = 1;
nodes = (
(33,315,o),
(71,413,o),
(138,483,o),
(232,522,o),
(287,522,qs),
(334,522,o),
(412,494,o),
(469,443,o),
(503,373,o),
(504,330,q),
(504,315,l),
(169,315,l),
(169,310,ls),
(169,258,o),
(193,172,o),
(238,110,o),
(303,77,o),
(342,77,qs),
(390,77,o),
(477,124,o),
(504,164,q),
(513,161,l),
(500,122,o),
(452,58,o),
(387,13,o),
(310,-12,o),
(269,-12,qs),
(217,-12,o),
(130,27,o),
(68,98,o),
(33,196,o),
(33,255,qs)
);
},
{
closed = 1;
nodes = (
(364,581,l),
(164,721,l),
(164,726,l),
(228,784,l),
(233,784,l),
(371,591,l)
);
}
);
};
layerId = "9BCDAEAC-6304-481D-8AE6-B16EBB77438F";
shapes = (
{
ref = e;
},
{
pos = (120,0);
ref = gravecomb;
}
);
width = 537;
}
);
unicode = 232;
},
{
glyphname = emacron;
kernLeft = c2;
kernRight = c;
lastChange = "2023-01-05 10:59:50 +0000";
layers = (
{
background = {
shapes = (
{
closed = 1;
nodes = (
(373,330,l),
(373,370,o),
(359,436,o),
(334,482,o),
(298,507,o),
(276,507,qs),
(232,507,o),
(174,411,o),
(170,330,q)
);
},
{
closed = 1;
nodes = (
(33,315,o),
(71,413,o),
(138,483,o),
(232,522,o),
(287,522,qs),
(334,522,o),
(412,494,o),
(469,443,o),
(503,373,o),
(504,330,q),
(505,315,l),
(169,315,l),
(169,310,ls),
(169,258,o),
(193,172,o),
(238,110,o),
(303,77,o),
(342,77,qs),
(390,77,o),
(477,124,o),
(504,164,q),
(513,161,l),
(500,122,o),
(452,58,o),
(387,13,o),
(310,-12,o),
(269,-12,qs),
(217,-12,o),
(130,27,o),
(68,98,o),
(33,196,o),
(33,255,qs)
);
},
{
closed = 1;
nodes = (
(169,651,l),
(169,704,l),
(389,704,l),
(389,651,l)
);
}
);
};
layerId = "9BCDAEAC-6304-481D-8AE6-B16EBB77438F";
shapes = (
{
ref = e;
},
{
pos = (143,0);
ref = macroncomb;
}
);
width = 537;
}
);
unicode = 275;
},
{
glyphname = eogonek;
kernLeft = c2;
kernRight = c;
lastChange = "2023-01-05 10:59:58 +0000";
layers = (
{
background = {
shapes = (
{
closed = 1;
nodes = (
(373,330,l),
(373,370,o),
(359,436,o),
(334,482,o),
(298,507,o),
(276,507,qs),
(232,507,o),
(174,411,o),
(170,330,q)
);
},
{
closed = 1;
nodes = (
(33,315,o),
(71,413,o),
(138,483,o),
(232,522,o),
(287,522,qs),
(334,522,o),
(412,494,o),
(469,443,o),
(503,373,o),
(504,330,q),
(505,315,l),
(169,315,l),
(169,310,ls),
(169,258,o),
(193,172,o),
(238,110,o),
(303,77,o),
(342,77,qs),
(390,77,o),
(477,124,o),
(504,164,q),
(513,161,l),
(493,101,o),
(405,18,o),
(348,0,qs),
(329,-6,o),
(297,-32,o),
(273,-70,o),
(260,-115,o),
(260,-140,qs),
(260,-172,o),
(283,-208,o),
(304,-208,qs),
(329,-208,o),
(372,-158,o),
(381,-119,q),
(392,-119,l),
(373,-218,l),
(347,-218,o),
(313,-225,o),
(289,-225,qs),
(237,-225,o),
(180,-177,o),
(180,-133,qs),
(180,-91,o),
(219,-29,o),
(253,-12,q),
(204,-9,o),
(123,32,o),
(65,103,o),
(33,198,o),
(33,255,qs)
);
}
);
};
layerId = "9BCDAEAC-6304-481D-8AE6-B16EBB77438F";
shapes = (
{
ref = e;
},
{
pos = (149,1);
ref = ogonekcomb;
}
);
width = 537;
}
);
unicode = 281;
},
{
glyphname = f;
kernLeft = f;
lastChange = "2023-01-05 10:52:45 +0000";
layers = (
{
anchors = (
{
name = bottom;
pos = (156,0);
},
{
name = top;
pos = (156,780);
}
);
background = {
shapes = (
{
closed = 1;
nodes = (
(326,10,l),
(326,0,l),
(0,0,l),
(0,10,l),
(36,10,o),
(81,54,o),
(81,90,qs),
(81,490,l),
(-4,490,l),
(6,508,l),
(81,508,l),
(81,531,ls),
(81,588,o),
(110,681,o),
(165,745,o),
(242,780,o),
(290,780,qs),
(323,780,o),
(385,764,o),
(436,736,o),
(473,698,o),
(482,675,q),
(362,607,l),
(361,679,o),
(322,767,o),
(291,767,qs),
(260,767,o),
(225,669,o),
(225,584,qs),
(225,508,l),
(360,508,l),
(350,490,l),
(225,490,l),
(225,90,ls),
(225,54,o),
(280,10,o),
(325,10,q)
);
}
);
};
layerId = "9BCDAEAC-6304-481D-8AE6-B16EBB77438F";
shapes = (
{
closed = 1;
nodes = (
(326,0,l),
(326,10,l),
(325,10,ls),
(265,10,o),
(225,42,o),
(225,90,cs),
(225,490,l),
(350,490,l),
(360,508,l),
(225,508,l),
(225,584,ls),
(225,641,o),
(231,685,o),
(243,718,cs),
(254,751,o),
(270,767,o),
(291,767,cs),
(312,767,o),
(329,752,o),
(342,723,cs),
(355,694,o),
(361,655,o),
(362,607,c),
(482,675,l),
(458,736,o),
(378,780,o),
(290,780,cs),
(161,780,o),
(81,682,o),
(81,531,cs),
(81,508,l),
(6,508,l),
(-4,490,l),
(81,490,l),
(81,90,ls),
(81,42,o),
(48,10,o),
(0,10,c),
(0,0,l)
);
}
);
width = 312;
}
);
unicode = 102;
},
{
glyphname = g;
kernLeft = J;
lastChange = "2023-01-05 10:52:45 +0000";
layers = (
{
anchors = (
{
name = bottom;
pos = (270,-200);
},
{
name = top;
pos = (270,508);
}
);
background = {
shapes = (
{
closed = 1;
nodes = (
(188,259,o),
(224,167,o),
(255,167,qs),
(287,167,o),
(324,260,o),
(324,339,qs),
(324,418,o),
(287,509,o),
(256,509,qs),
(224,509,o),
(188,418,o),
(188,339,qs)
);
},
{
closed = 1;
nodes = (
(255,-29,ls),
(196,-27,o),
(158,-19,q),
(137,-26,o),
(117,-68,o),
(117,-97,qs),
(117,-149,o),
(195,-211,o),
(267,-211,qs),
(303,-211,o),
(365,-195,o),
(411,-166,o),
(438,-128,o),
(438,-105,qs),
(438,-70,o),
(367,-33,o),
(290,-31,q)
);
},
{
closed = 1;
nodes = (
(44,380,o),
(74,448,o),
(130,496,o),
(208,522,o),
(256,522,qs),
(304,522,o),
(346,508,q),
(530,508,l),
(520,490,l),
(384,490,l),
(424,467,o),
(467,390,o),
(467,339,qs),
(467,297,o),
(437,229,o),
(381,181,o),
(304,155,o),
(256,155,qs),
(230,155,o),
(182,163,o),
(161,171,q),
(129,154,o),
(129,131,qs),
(129,112,o),
(185,95,o),
(260,93,q),
(295,91,l),
(410,87,o),
(535,7,o),
(535,-62,qs),
(535,-139,o),
(387,-224,o),
(256,-224,qs),
(202,-224,o),
(115,-209,o),
(53,-182,o),
(19,-144,o),
(19,-121,qs),
(19,-86,o),
(86,-31,o),
(144,-16,q),
(50,8,o),
(50,69,qs),
(50,102,o),
(102,159,o),
(149,176,q),
(99,198,o),
(44,282,o),
(44,339,qs)
);
}
);
};
layerId = "9BCDAEAC-6304-481D-8AE6-B16EBB77438F";
shapes = (
{
closed = 1;
nodes = (
(431,-224,o),
(535,-165,o),
(535,-62,cs),
(535,30,o),
(448,86,o),
(295,91,cs),
(260,93,ls),
(210,94,o),
(176,98,o),
(157,104,cs),
(138,109,o),
(129,118,o),
(129,131,cs),
(129,146,o),
(140,160,o),
(161,171,c),
(189,160,o),
(221,155,o),
(256,155,cs),
(386,155,o),
(467,228,o),
(467,339,cs),
(467,407,o),
(437,459,o),
(384,490,c),
(520,490,l),
(530,508,l),
(346,508,l),
(318,517,o),
(288,522,o),
(256,522,cs),
(127,522,o),
(44,449,o),
(44,339,cs),
(44,263,o),
(82,205,o),
(149,176,c),
(86,153,o),
(50,113,o),
(50,69,cs),
(50,28,o),
(81,0,o),
(144,-16,c),
(67,-36,o),
(19,-74,o),
(19,-121,cs),
(19,-182,o),
(114,-224,o),
(256,-224,cs)
);
},
{
closed = 1;
nodes = (
(171,-211,o),
(117,-166,o),
(117,-97,cs),
(117,-58,o),
(130,-28,o),
(158,-19,c),
(183,-24,o),
(216,-28,o),
(255,-29,cs),
(290,-31,ls),
(341,-32,o),
(379,-39,o),
(403,-51,cs),
(426,-64,o),
(438,-82,o),
(438,-105,cs),
(438,-167,o),
(359,-211,o),
(267,-211,cs)
);
},
{
closed = 1;
nodes = (
(234,167,o),
(218,182,o),
(206,213,cs),
(194,244,o),
(188,286,o),
(188,339,cs),
(188,392,o),
(194,433,o),
(206,464,cs),
(218,494,o),
(235,509,o),
(256,509,cs),
(277,509,o),
(293,494,o),
(306,464,cs),
(318,433,o),
(324,392,o),
(324,339,cs),
(324,286,o),
(318,245,o),
(306,214,cs),
(293,183,o),
(276,167,o),
(255,167,cs)
);
}
);
width = 540;
}
);
unicode = 103;
},
{
glyphname = gbreve;
kernLeft = J;
lastChange = "2023-01-05 10:13:30 +0000";
layers = (
{
background = {
shapes = (
{
closed = 1;
nodes = (
(188,259,o),
(224,167,o),
(255,167,qs),
(287,167,o),
(324,260,o),
(324,339,qs),
(324,418,o),
(287,509,o),
(256,509,qs),
(224,509,o),
(188,418,o),
(188,339,qs)
);
},
{
closed = 1;
nodes = (
(255,-29,ls),
(196,-27,o),
(158,-19,q),
(137,-26,o),
(117,-68,o),
(117,-97,qs),
(117,-149,o),
(195,-211,o),
(267,-211,qs),
(303,-211,o),
(365,-195,o),
(411,-166,o),
(438,-128,o),
(438,-105,qs),
(438,-70,o),
(367,-33,o),
(290,-31,q)
);
},
{
closed = 1;
nodes = (
(44,380,o),
(74,448,o),
(130,496,o),
(208,522,o),
(256,522,qs),
(304,522,o),
(346,508,q),
(530,508,l),
(520,490,l),
(384,490,l),
(424,467,o),
(467,390,o),
(467,339,qs),
(467,297,o),
(437,229,o),
(381,181,o),
(304,155,o),
(256,155,qs),
(230,155,o),
(182,163,o),
(161,171,q),
(129,154,o),
(129,131,qs),
(129,112,o),
(185,95,o),
(260,93,q),
(295,91,l),
(410,87,o),
(535,7,o),
(535,-62,qs),
(535,-139,o),
(387,-224,o),
(256,-224,qs),
(202,-224,o),
(115,-209,o),
(53,-182,o),
(19,-144,o),
(19,-121,qs),
(19,-86,o),
(86,-31,o),
(144,-16,q),
(50,8,o),
(50,69,qs),
(50,102,o),
(102,159,o),
(149,176,q),
(99,198,o),
(44,282,o),
(44,339,qs)
);
},
{
closed = 1;
nodes = (
(197,618,o),
(138,698,o),
(137,764,q),
(147,764,l),
(148,746,o),
(167,714,o),
(197,691,o),
(237,678,o),
(260,678,qs),
(283,678,o),
(323,691,o),
(353,714,o),
(372,746,o),
(373,764,q),
(383,764,l),
(382,698,o),
(322,618,o),
(260,618,qs)
);
}
);
};
layerId = "9BCDAEAC-6304-481D-8AE6-B16EBB77438F";
shapes = (
{
ref = g;
},
{
pos = (116,0);
ref = brevecomb;
}
);
width = 540;
}
);
unicode = 287;
},
{
glyphname = gcommaaccent;
kernLeft = J;
lastChange = "2023-01-05 11:10:12 +0000";
layers = (
{
background = {
shapes = (
{
closed = 1;
nodes = (
(188,259,o),
(224,167,o),
(255,167,qs),
(287,167,o),
(324,260,o),
(324,339,qs),
(324,418,o),
(287,509,o),
(256,509,qs),
(224,509,o),
(188,418,o),
(188,339,qs)
);
},
{
closed = 1;
nodes = (
(255,-29,ls),
(196,-27,o),
(158,-19,q),
(137,-26,o),
(117,-68,o),
(117,-97,qs),
(117,-149,o),
(195,-211,o),
(267,-211,qs),
(303,-211,o),
(365,-195,o),
(411,-166,o),
(438,-128,o),
(438,-105,qs),
(438,-70,o),
(367,-33,o),
(290,-31,q)
);
},
{
closed = 1;
nodes = (
(44,380,o),
(74,448,o),
(130,496,o),
(208,522,o),
(256,522,qs),
(304,522,o),
(346,508,q),
(530,508,l),
(520,490,l),
(384,490,l),
(424,467,o),
(467,390,o),
(467,339,qs),
(467,297,o),
(437,229,o),
(381,181,o),
(304,155,o),
(256,155,qs),
(230,155,o),
(182,163,o),
(161,171,q),
(129,154,o),
(129,131,qs),
(129,112,o),
(185,95,o),
(260,93,q),
(295,91,l),
(410,87,o),
(535,7,o),
(535,-62,qs),
(535,-139,o),
(387,-224,o),
(256,-224,qs),
(202,-224,o),
(115,-209,o),
(53,-182,o),
(19,-144,o),
(19,-121,qs),
(19,-86,o),
(86,-31,o),
(144,-16,q),
(50,8,o),
(50,69,qs),
(50,102,o),
(102,159,o),
(149,176,q),
(99,198,o),
(44,282,o),
(44,339,qs)
);
},
{
closed = 1;
nodes = (
(340,656,o),
(296,615,o),
(261,615,qs),
(224,615,o),
(180,664,o),
(180,706,qs),
(180,742,o),
(202,798,o),
(239,848,o),
(287,898,o),
(313,926,q),
(322,922,l),
(306,903,o),
(277,873,o),
(255,845,o),
(242,818,o),
(242,801,qs),
(242,779,o),
(273,762,o),
(309,747,o),
(340,721,o),
(340,691,qs)
);
}
);
};
layerId = "9BCDAEAC-6304-481D-8AE6-B16EBB77438F";
shapes = (
{
ref = g;
},
{
pos = (150,0);
ref = commaturnedabovecomb;
}
);
width = 540;
}
);
unicode = 291;
},
{
glyphname = gdotaccent;
kernLeft = J;
lastChange = "2023-01-05 10:13:30 +0000";
layers = (
{
background = {
shapes = (
{
closed = 1;
nodes = (
(188,259,o),
(224,167,o),
(255,167,qs),
(287,167,o),
(324,260,o),
(324,339,qs),
(324,418,o),
(287,509,o),
(256,509,qs),
(224,509,o),
(188,418,o),
(188,339,qs)
);
},
{
closed = 1;
nodes = (
(255,-29,ls),
(196,-27,o),
(158,-19,q),
(137,-26,o),
(117,-68,o),
(117,-97,qs),
(117,-149,o),
(195,-211,o),
(267,-211,qs),
(303,-211,o),
(365,-195,o),
(411,-166,o),
(438,-128,o),
(438,-105,qs),
(438,-70,o),
(367,-33,o),
(290,-31,q)
);
},
{
closed = 1;
nodes = (
(44,380,o),
(74,448,o),
(130,496,o),
(208,522,o),
(256,522,qs),
(304,522,o),
(346,508,q),
(530,508,l),
(520,490,l),
(384,490,l),
(424,467,o),
(467,390,o),
(467,339,qs),
(467,297,o),
(437,229,o),
(381,181,o),
(304,155,o),
(256,155,qs),
(230,155,o),
(182,163,o),
(161,171,q),
(129,154,o),
(129,131,qs),
(129,112,o),
(185,95,o),
(260,93,q),
(295,91,l),
(410,87,o),
(535,7,o),
(535,-62,qs),
(535,-139,o),
(387,-224,o),
(256,-224,qs),
(202,-224,o),
(115,-209,o),
(53,-182,o),
(19,-144,o),
(19,-121,qs),
(19,-86,o),
(86,-31,o),
(144,-16,q),
(50,8,o),
(50,69,qs),
(50,102,o),
(102,159,o),
(149,176,q),
(99,198,o),
(44,282,o),
(44,339,qs)
);
},
{
closed = 1;
nodes = (
(188,708,o),
(231,749,o),
(260,749,qs),
(289,749,o),
(333,708,o),
(333,679,qs),
(333,665,o),
(321,639,o),
(301,620,o),
(275,609,o),
(260,609,qs),
(231,609,o),
(188,650,o),
(188,679,qs)
);
}
);
};
layerId = "9BCDAEAC-6304-481D-8AE6-B16EBB77438F";
shapes = (
{
ref = g;
},
{
pos = (165,0);
ref = dotaccentcomb;
}
);
width = 540;
}
);
unicode = 289;
},
{
glyphname = h;
kernLeft = h2;
kernRight = h;
lastChange = "2023-01-05 10:52:45 +0000";
layers = (
{
anchors = (
{
name = bottom;
pos = (316,0);
},
{
name = center;
pos = (316,390);
},
{
name = top;
pos = (316,780);
}
);
background = {
shapes = (
{
closed = 1;
nodes = (
(450,522,o),
(505,497,o),
(543,454,o),
(563,396,o),
(563,362,qs),
(563,90,ls),
(563,53,o),
(608,10,o),
(644,10,q),
(644,0,l),
(339,0,l),
(339,10,l),
(375,10,o),
(420,53,o),
(420,90,qs),
(420,372,ls),
(420,389,o),
(413,427,o),
(397,460,o),
(370,482,o),
(349,482,qs),
(329,482,o),
(292,463,o),
(260,433,o),
(234,398,o),
(225,382,q),
(225,112,ls),
(225,92,o),
(231,55,o),
(247,27,o),
(279,10,o),
(306,10,q),
(306,0,l),
(0,0,l),
(0,10,l),
(27,10,o),
(59,27,o),
(75,55,o),
(81,92,o),
(81,112,qs),
(81,660,ls),
(81,696,o),
(36,740,o),
(0,740,q),
(0,750,l),
(102,750,ls),
(155,750,o),
(204,771,o),
(215,788,q),
(225,788,l),
(225,408,l),
(252,461,o),
(356,522,o),
(415,522,qs)
);
}
);
};
layerId = "9BCDAEAC-6304-481D-8AE6-B16EBB77438F";
shapes = (
{
closed = 1;
nodes = (
(306,0,l),
(306,10,l),
(236,10,o),
(225,58,o),
(225,112,cs),
(225,382,l),
(251,428,o),
(297,482,o),
(349,482,cs),
(405,482,o),
(420,416,o),
(420,372,cs),
(420,90,ls),
(420,41,o),
(387,10,o),
(339,10,c),
(339,0,l),
(644,0,l),
(644,10,l),
(596,10,o),
(563,41,o),
(563,90,cs),
(563,362,ls),
(563,451,o),
(509,522,o),
(415,522,cs),
(336,522,o),
(261,479,o),
(225,408,c),
(225,788,l),
(215,788,l),
(208,777,o),
(196,768,o),
(180,761,cs),
(163,754,o),
(137,750,o),
(102,750,cs),
(0,750,l),
(0,740,l),
(48,740,o),
(81,708,o),
(81,660,cs),
(81,112,ls),
(81,58,o),
(70,10,o),
(0,10,c),
(0,0,l)
);
}
);
width = 631;
}
);
unicode = 104;
},
{
glyphname = hbar;
kernLeft = J;
lastChange = "2023-01-05 10:52:45 +0000";
layers = (
{
background = {
shapes = (
{
closed = 1;
nodes = (
(1,604,l),
(1,619,l),
(81,619,l),
(81,660,ls),
(81,696,o),
(36,740,o),
(0,740,q),
(0,750,l),
(102,750,ls),
(155,750,o),
(204,771,o),
(215,788,q),
(225,788,l),
(225,619,l),
(360,619,l),
(360,604,l),
(225,604,l),
(225,408,l),
(252,461,o),
(356,522,o),
(415,522,qs),
(450,522,o),
(505,497,o),
(543,454,o),
(563,396,o),
(563,362,qs),
(563,90,ls),
(563,53,o),
(608,10,o),
(644,10,q),
(644,0,l),
(339,0,l),
(339,10,l),
(375,10,o),
(420,53,o),
(420,90,qs),
(420,372,ls),
(420,389,o),
(413,427,o),
(397,460,o),
(370,482,o),
(349,482,qs),
(329,482,o),
(292,463,o),
(260,433,o),
(234,398,o),
(225,382,q),
(225,112,ls),
(225,92,o),
(231,55,o),
(247,27,o),
(279,10,o),
(306,10,q),
(306,0,l),
(0,0,l),
(0,10,l),
(27,10,o),
(59,27,o),
(75,55,o),
(81,92,o),
(81,112,qs),
(81,604,l)
);
}
);
};
layerId = "9BCDAEAC-6304-481D-8AE6-B16EBB77438F";
shapes = (
{
closed = 1;
nodes = (
(306,0,l),
(306,10,l),
(236,10,o),
(225,58,o),
(225,112,cs),
(225,382,l),
(251,428,o),
(297,482,o),
(349,482,cs),
(405,482,o),
(420,416,o),
(420,372,cs),
(420,90,ls),
(420,41,o),
(387,10,o),
(339,10,c),
(339,0,l),
(644,0,l),
(644,10,l),
(596,10,o),
(563,41,o),
(563,90,cs),
(563,362,ls),
(563,451,o),
(509,522,o),
(415,522,cs),
(336,522,o),
(261,479,o),
(225,408,c),
(225,604,l),
(360,604,l),
(360,619,l),
(225,619,l),
(225,788,l),
(215,788,l),
(208,777,o),
(196,768,o),
(180,761,cs),
(163,754,o),
(137,750,o),
(102,750,cs),
(0,750,l),
(0,740,l),
(48,740,o),
(81,708,o),
(81,660,cs),
(81,619,l),
(1,619,l),
(1,604,l),
(81,604,l),
(81,112,ls),
(81,58,o),
(70,10,o),
(0,10,c),
(0,0,l)
);
}
);
width = 631;
}
);
unicode = 295;
},
{
glyphname = i;
kernLeft = i2;
kernRight = i;
lastChange = "2023-01-05 10:42:31 +0000";
layers = (
{
anchors = (
{
name = bottom;
pos = (149,0);
}
);
background = {
shapes = (
{
closed = 1;
nodes = (
(72,733,o),
(119,780,o),
(155,780,qs),
(190,780,o),
(237,732,o),
(237,697,qs),
(237,662,o),
(190,614,o),
(155,614,qs),
(119,614,o),
(72,661,o),
(72,697,qs)
);
},
{
closed = 1;
nodes = (
(313,10,l),
(313,0,l),
(7,0,l),
(7,10,l),
(8,10,l),
(44,10,o),
(88,54,o),
(88,90,qs),
(88,418,ls),
(88,436,o),
(81,466,o),
(64,487,o),
(33,498,o),
(7,498,q),
(7,508,l),
(109,508,ls),
(162,508,o),
(211,529,o),
(222,546,q),
(232,546,l),
(232,90,ls),
(232,54,o),
(276,10,o),
(312,10,q)
);
}
);
};
layerId = "9BCDAEAC-6304-481D-8AE6-B16EBB77438F";
shapes = (
{
ref = idotless;
},
{
pos = (54,0);
ref = dotaccentcomb;
}
);
width = 297;
}
);
unicode = 105;
},
{
glyphname = idotless;
kernLeft = J;
lastChange = "2023-01-05 10:52:45 +0000";
layers = (
{
anchors = (
{
name = bottom;
pos = (149,0);
},
{
name = ogonek;
pos = (216,10);
},
{
name = top;
pos = (159,508);
}
);
background = {
shapes = (
{
closed = 1;
nodes = (
(313,10,l),
(313,0,l),
(7,0,l),
(7,10,l),
(8,10,l),
(44,10,o),
(88,54,o),
(88,90,qs),
(88,418,ls),
(88,436,o),
(81,466,o),
(64,487,o),
(33,498,o),
(7,498,q),
(7,508,l),
(109,508,ls),
(162,508,o),
(211,529,o),
(222,546,q),
(232,546,l),
(232,90,ls),
(232,54,o),
(276,10,o),
(312,10,q)
);
}
);
};
layerId = "9BCDAEAC-6304-481D-8AE6-B16EBB77438F";
shapes = (
{
closed = 1;
nodes = (
(313,0,l),
(313,10,l),
(312,10,ls),
(264,10,o),
(232,42,o),
(232,90,cs),
(232,546,l),
(222,546,l),
(215,535,o),
(203,526,o),
(187,519,cs),
(170,512,o),
(144,508,o),
(109,508,cs),
(7,508,l),
(7,498,l),
(73,498,o),
(88,468,o),
(88,418,cs),
(88,90,ls),
(88,42,o),
(56,10,o),
(8,10,cs),
(7,10,l),
(7,0,l)
);
}
);
width = 297;
}
);
unicode = 305;
},
{
glyphname = iacute;
kernLeft = i2;
kernRight = i;
lastChange = "2023-01-05 10:42:31 +0000";
layers = (
{
background = {
shapes = (
{
closed = 1;
nodes = (
(313,10,l),
(313,0,l),
(7,0,l),
(7,10,l),
(8,10,l),
(44,10,o),
(88,54,o),
(88,90,qs),
(88,418,ls),
(88,436,o),
(81,466,o),
(64,487,o),
(33,498,o),
(7,498,q),
(7,508,l),
(109,508,ls),
(162,508,o),
(211,529,o),
(222,546,q),
(232,546,l),
(232,90,ls),
(232,54,o),
(276,10,o),
(312,10,q)
);
},
{
closed = 1;
nodes = (
(99,581,l),
(92,591,l),
(229,784,l),
(234,784,l),
(298,726,l),
(298,721,l)
);
}
);
};
layerId = "9BCDAEAC-6304-481D-8AE6-B16EBB77438F";
shapes = (
{
ref = idotless;
},
{
pos = (54,0);
ref = acutecomb;
}
);
width = 297;
}
);
unicode = 237;
},
{
glyphname = icircumflex;
kernLeft = i2;
kernRight = i;
lastChange = "2023-01-05 10:42:31 +0000";
layers = (
{
background = {
shapes = (
{
closed = 1;
nodes = (
(313,10,l),
(313,0,l),
(7,0,l),
(7,10,l),
(8,10,l),
(44,10,o),
(88,54,o),
(88,90,qs),
(88,418,ls),
(88,436,o),
(81,466,o),
(64,487,o),
(33,498,o),
(7,498,q),
(7,508,l),
(109,508,ls),
(162,508,o),
(211,529,o),
(222,546,q),
(232,546,l),
(232,90,ls),
(232,54,o),
(276,10,o),
(312,10,q)
);
},
{
closed = 1;
nodes = (
(313,588,l),
(306,581,l),
(160,714,l),
(14,581,l),
(7,588,l),
(134,784,l),
(185,784,l)
);
}
);
};
layerId = "9BCDAEAC-6304-481D-8AE6-B16EBB77438F";
shapes = (
{
ref = idotless;
},
{
pos = (-16,0);
ref = circumflexcomb;
}
);
width = 297;
}
);
unicode = 238;
},
{
glyphname = idieresis;
kernLeft = i2;
kernRight = i;
lastChange = "2023-01-05 10:42:31 +0000";
layers = (
{
background = {
shapes = (
{
closed = 1;
nodes = (
(313,10,l),
(313,0,l),
(7,0,l),
(7,10,l),
(8,10,l),
(44,10,o),
(88,54,o),
(88,90,qs),
(88,418,ls),
(88,436,o),
(81,466,o),
(64,487,o),
(33,498,o),
(7,498,q),
(7,508,l),
(109,508,ls),
(162,508,o),
(211,529,o),
(222,546,q),
(232,546,l),
(232,90,ls),
(232,54,o),
(276,10,o),
(312,10,q)
);
},
{
closed = 1;
nodes = (
(-15,710,o),
(30,754,o),
(61,754,qs),
(91,754,o),
(136,710,o),
(136,679,qs),
(136,648,o),
(91,604,o),
(61,604,qs),
(30,604,o),
(-15,648,o),
(-15,679,qs)
);
},
{
closed = 1;
nodes = (
(184,710,o),
(228,754,o),
(259,754,qs),
(289,754,o),
(334,710,o),
(334,679,qs),
(334,648,o),
(289,604,o),
(259,604,qs),
(228,604,o),
(184,648,o),
(184,679,qs)
);
}
);
};
layerId = "9BCDAEAC-6304-481D-8AE6-B16EBB77438F";
shapes = (
{
ref = idotless;
},
{
pos = (-47,0);
ref = dieresiscomb;
}
);
width = 297;
}
);
unicode = 239;
},
{
glyphname = igrave;
kernLeft = i2;
kernRight = i;
lastChange = "2023-01-05 10:42:31 +0000";
layers = (
{
background = {
shapes = (
{
closed = 1;
nodes = (
(313,10,l),
(313,0,l),
(7,0,l),
(7,10,l),
(8,10,l),
(44,10,o),
(88,54,o),
(88,90,qs),
(88,418,ls),
(88,436,o),
(81,466,o),
(64,487,o),
(33,498,o),
(7,498,q),
(7,508,l),
(109,508,ls),
(162,508,o),
(211,529,o),
(222,546,q),
(232,546,l),
(232,90,ls),
(232,54,o),
(276,10,o),
(312,10,q)
);
},
{
closed = 1;
nodes = (
(11,726,l),
(75,784,l),
(80,784,l),
(218,591,l),
(211,581,l),
(11,721,l)
);
}
);
};
layerId = "9BCDAEAC-6304-481D-8AE6-B16EBB77438F";
shapes = (
{
ref = idotless;
},
{
pos = (-6,0);
ref = gravecomb;
}
);
width = 297;
}
);
unicode = 236;
},
{
glyphname = ij;
kernLeft = J;
lastChange = "2023-01-05 10:42:23 +0000";
layers = (
{
background = {
shapes = (
{
closed = 1;
nodes = (
(72,733,o),
(119,780,o),
(155,780,qs),
(190,780,o),
(237,732,o),
(237,697,qs),
(237,662,o),
(190,614,o),
(155,614,qs),
(119,614,o),
(72,661,o),
(72,697,qs)
);
},
{
closed = 1;
nodes = (
(313,10,l),
(313,0,l),
(7,0,l),
(7,10,l),
(8,10,l),
(44,10,o),
(88,54,o),
(88,90,qs),
(88,418,ls),
(88,436,o),
(81,466,o),
(64,487,o),
(33,498,o),
(7,498,q),
(7,508,l),
(109,508,ls),
(162,508,o),
(211,529,o),
(222,546,q),
(232,546,l),
(232,90,ls),
(232,54,o),
(276,10,o),
(312,10,q)
);
},
{
closed = 1;
nodes = (
(354,733,o),
(401,780,o),
(436,780,qs),
(471,780,o),
(519,733,o),
(519,697,qs),
(519,662,o),
(471,614,o),
(436,614,qs),
(401,614,o),
(354,662,o),
(354,697,qs)
);
},
{
closed = 1;
nodes = (
(514,25,ls),
(514,-31,o),
(482,-123,o),
(423,-188,o),
(340,-224,o),
(289,-224,q),
(289,-213,l),
(326,-213,o),
(370,-145,o),
(370,-88,qs),
(370,418,ls),
(370,436,o),
(363,466,o),
(346,487,o),
(315,498,o),
(289,498,q),
(289,508,l),
(391,508,ls),
(444,508,o),
(498,519,o),
(509,536,q),
(514,536,l)
);
}
);
};
layerId = "9BCDAEAC-6304-481D-8AE6-B16EBB77438F";
shapes = (
{
ref = i;
},
{
pos = (297,0);
ref = j;
}
);
width = 579;
}
);
unicode = 307;
},
{
glyphname = imacron;
kernLeft = J;
lastChange = "2023-01-05 10:42:31 +0000";
layers = (
{
background = {
shapes = (
{
closed = 1;
nodes = (
(313,10,l),
(313,0,l),
(7,0,l),
(7,10,l),
(8,10,l),
(44,10,o),
(88,54,o),
(88,90,qs),
(88,418,ls),
(88,436,o),
(81,466,o),
(64,487,o),
(33,498,o),
(7,498,q),
(7,508,l),
(109,508,ls),
(162,508,o),
(211,529,o),
(222,546,q),
(232,546,l),
(232,90,ls),
(232,54,o),
(276,10,o),
(312,10,q)
);
},
{
closed = 1;
nodes = (
(39,724,l),
(259,724,l),
(259,671,l),
(39,671,l)
);
}
);
};
layerId = "9BCDAEAC-6304-481D-8AE6-B16EBB77438F";
shapes = (
{
ref = idotless;
},
{
pos = (17,0);
ref = macroncomb;
}
);
width = 297;
}
);
unicode = 299;
},
{
glyphname = iogonek;
kernLeft = J;
lastChange = "2023-01-05 10:42:41 +0000";
layers = (
{
background = {
shapes = (
{
closed = 1;
nodes = (
(72,733,o),
(119,780,o),
(155,780,qs),
(190,780,o),
(237,732,o),
(237,697,qs),
(237,662,o),
(190,614,o),
(155,614,qs),
(119,614,o),
(72,661,o),
(72,697,qs)
);
},
{
closed = 1;
nodes = (
(313,10,l),
(313,0,l),
(271,0,l),
(252,-6,o),
(220,-32,o),
(196,-70,o),
(183,-115,o),
(183,-140,qs),
(183,-172,o),
(206,-208,o),
(227,-208,qs),
(252,-208,o),
(295,-158,o),
(304,-119,q),
(315,-119,l),
(296,-218,l),
(270,-218,o),
(236,-225,o),
(212,-225,qs),
(160,-225,o),
(103,-177,o),
(103,-133,qs),
(103,-82,o),
(160,-13,o),
(208,0,q),
(7,0,l),
(7,10,l),
(8,10,l),
(44,10,o),
(88,54,o),
(88,90,qs),
(88,418,ls),
(88,436,o),
(81,466,o),
(64,487,o),
(33,498,o),
(7,498,q),
(7,508,l),
(109,508,ls),
(162,508,o),
(211,529,o),
(222,546,q),
(232,546,l),
(232,90,ls),
(232,54,o),
(276,10,o),
(312,10,q)
);
}
);
};
layerId = "9BCDAEAC-6304-481D-8AE6-B16EBB77438F";
shapes = (
{
ref = idotless;
},
{
pos = (54,0);
ref = dotaccentcomb;
},
{
pos = (72,1);
ref = ogonekcomb;
}
);
width = 297;
}
);
unicode = 303;
},
{
glyphname = j;
kernLeft = i2;
lastChange = "2023-01-05 10:58:26 +0000";
layers = (
{
background = {
shapes = (
{
closed = 1;
nodes = (
(57,733,o),
(104,780,o),
(139,780,qs),
(174,780,o),
(222,733,o),
(222,697,qs),
(222,662,o),
(174,614,o),
(139,614,qs),
(104,614,o),
(57,662,o),
(57,697,qs)
);
},
{
closed = 1;
nodes = (
(217,25,ls),
(217,-31,o),
(185,-123,o),
(126,-188,o),
(43,-224,o),
(-8,-224,q),
(-8,-213,l),
(29,-213,o),
(73,-145,o),
(73,-88,qs),
(73,418,ls),
(73,436,o),
(66,466,o),
(49,487,o),
(18,498,o),
(-8,498,q),
(-8,508,l),
(94,508,ls),
(147,508,o),
(201,519,o),
(212,536,q),
(217,536,l)
);
}
);
};
layerId = "9BCDAEAC-6304-481D-8AE6-B16EBB77438F";
shapes = (
{
closed = 1;
nodes = (
(130,-224,o),
(217,-123,o),
(217,25,cs),
(217,536,l),
(212,536,l),
(205,525,o),
(192,517,o),
(174,514,cs),
(156,510,o),
(129,508,o),
(94,508,cs),
(-8,508,l),
(-8,498,l),
(58,498,o),
(73,468,o),
(73,418,cs),
(73,-88,ls),
(73,-164,o),
(41,-213,o),
(-8,-213,c),
(-8,-224,l)
);
},
{
closed = 1;
nodes = (
(186,614,o),
(222,650,o),
(222,697,cs),
(222,745,o),
(186,780,o),
(139,780,cs),
(92,780,o),
(57,745,o),
(57,697,cs),
(57,650,o),
(92,614,o),
(139,614,cs)
);
}
);
width = 282;
}
);
unicode = 106;
},
{
glyphname = jdotless;
kernLeft = J;
lastChange = "2023-01-05 10:52:45 +0000";
layers = (
{
anchors = (
{
name = bottom;
pos = (141,-200);
},
{
name = top;
pos = (141,508);
}
);
background = {
shapes = (
{
closed = 1;
nodes = (
(217,25,ls),
(217,-31,o),
(185,-123,o),
(126,-188,o),
(43,-224,o),
(-8,-224,q),
(-8,-213,l),
(29,-213,o),
(73,-145,o),
(73,-88,qs),
(73,418,ls),
(73,436,o),
(66,466,o),
(49,487,o),
(18,498,o),
(-8,498,q),
(-8,508,l),
(94,508,ls),
(147,508,o),
(201,519,o),
(212,536,q),
(217,536,l)
);
}
);
};
layerId = "9BCDAEAC-6304-481D-8AE6-B16EBB77438F";
shapes = (
{
closed = 1;
nodes = (
(130,-224,o),
(217,-123,o),
(217,25,cs),
(217,536,l),
(212,536,l),
(205,525,o),
(192,517,o),
(174,514,cs),
(156,510,o),
(129,508,o),
(94,508,cs),
(-8,508,l),
(-8,498,l),
(58,498,o),
(73,468,o),
(73,418,cs),
(73,-88,ls),
(73,-164,o),
(41,-213,o),
(-8,-213,c),
(-8,-224,l)
);
}
);
width = 282;
}
);
unicode = 567;
},
{
glyphname = k;
kernLeft = h2;
kernRight = k;
lastChange = "2023-01-05 11:09:04 +0000";
layers = (
{
anchors = (
{
name = bottom;
pos = (289,0);
},
{
name = top;
pos = (301,780);
}
);
background = {
shapes = (
{
closed = 1;
nodes = (
(306,10,l),
(306,0,l),
(0,0,l),
(0,10,l),
(1,10,l),
(37,10,o),
(81,54,o),
(81,90,qs),
(81,660,ls),
(81,696,o),
(36,740,o),
(0,740,q),
(0,750,l),
(102,750,ls),
(155,750,o),
(204,771,o),
(215,788,q),
(225,788,l),
(225,262,l),
(395,405,ls),
(437,440,o),
(450,491,o),
(431,495,qs),
(418,498,l),
(418,508,l),
(567,508,l),
(567,498,l),
(557,496,ls),
(547,494,o),
(525,487,o),
(498,470,o),
(461,443,o),
(434,420,qs),
(365,362,l),
(564,56,l),
(583,31,o),
(611,10,o),
(628,10,q),
(628,0,l),
(364,0,l),
(364,10,l),
(388,10,o),
(406,17,o),
(406,27,qs),
(406,35,o),
(392,65,o),
(376,92,qs),
(262,275,l),
(225,243,l),
(225,90,ls),
(225,54,o),
(269,10,o),
(305,10,q)
);
}
);
};
layerId = "9BCDAEAC-6304-481D-8AE6-B16EBB77438F";
shapes = (
{
closed = 1;
nodes = (
(306,0,l),
(306,10,l),
(305,10,ls),
(257,10,o),
(225,42,o),
(225,90,cs),
(225,243,l),
(262,275,l),
(376,92,ls),
(387,74,o),
(394,60,o),
(399,50,cs),
(404,40,o),
(406,32,o),
(406,27,cs),
(406,20,o),
(403,16,o),
(397,14,cs),
(391,11,o),
(380,10,o),
(364,10,c),
(364,0,l),
(628,0,l),
(628,10,l),
(605,10,o),
(589,23,o),
(564,56,c),
(365,362,l),
(434,420,ls),
(498,473,o),
(525,490,o),
(557,496,cs),
(567,498,l),
(567,508,l),
(418,508,l),
(418,498,l),
(431,495,ls),
(444,492,o),
(448,483,o),
(444,466,cs),
(439,449,o),
(423,428,o),
(395,405,cs),
(225,262,l),
(225,788,l),
(215,788,l),
(208,777,o),
(196,768,o),
(180,761,cs),
(163,754,o),
(137,750,o),
(102,750,cs),
(0,750,l),
(0,740,l),
(48,740,o),
(81,708,o),
(81,660,cs),
(81,90,ls),
(81,42,o),
(49,10,o),
(1,10,cs),
(0,10,l),
(0,0,l)
);
}
);
width = 601;
}
);
unicode = 107;
},
{
glyphname = kcommaaccent;
kernLeft = J;
lastChange = "2023-01-05 11:09:04 +0000";
layers = (
{
background = {
shapes = (
{
closed = 1;
nodes = (
(306,10,l),
(306,0,l),
(0,0,l),
(0,10,l),
(1,10,l),
(37,10,o),
(81,54,o),
(81,90,qs),
(81,660,ls),
(81,696,o),
(36,740,o),
(0,740,q),
(0,750,l),
(102,750,ls),
(155,750,o),
(204,771,o),
(215,788,q),
(225,788,l),
(225,262,l),
(395,405,ls),
(437,440,o),
(450,491,o),
(431,495,qs),
(418,498,l),
(418,508,l),
(567,508,l),
(567,498,l),
(557,496,ls),
(547,494,o),
(525,487,o),
(498,470,o),
(461,443,o),
(434,420,qs),
(365,362,l),
(564,56,l),
(583,31,o),
(611,10,o),
(628,10,q),
(628,0,l),
(364,0,l),
(364,10,l),
(388,10,o),
(406,17,o),
(406,27,qs),
(406,35,o),
(392,65,o),
(376,92,qs),
(262,275,l),
(225,243,l),
(225,90,ls),
(225,54,o),
(269,10,o),
(305,10,q)
);
},
{
closed = 1;
nodes = (
(208,-93,o),
(252,-52,o),
(287,-52,qs),
(324,-52,o),
(368,-101,o),
(368,-143,qs),
(368,-179,o),
(346,-235,o),
(309,-285,o),
(261,-335,o),
(235,-363,q),
(226,-359,l),
(242,-340,o),
(271,-310,o),
(293,-282,o),
(306,-255,o),
(306,-238,qs),
(306,-216,o),
(275,-199,o),
(239,-184,o),
(208,-158,o),
(208,-128,qs)
);
}
);
};
layerId = "9BCDAEAC-6304-481D-8AE6-B16EBB77438F";
shapes = (
{
ref = k;
},
{
pos = (182,0);
ref = commaaccentcomb;
}
);
width = 601;
}
);
unicode = 311;
},
{
glyphname = l;
kernLeft = h2;
kernRight = d;
lastChange = "2023-01-05 11:09:44 +0000";
layers = (
{
anchors = (
{
name = bottom;
pos = (155,0);
},
{
name = center;
pos = (145,390);
},
{
name = top;
pos = (103,768);
},
{
name = topright;
pos = (280,829);
}
);
background = {
shapes = (
{
closed = 1;
nodes = (
(225,90,ls),
(225,53,o),
(270,10,o),
(306,10,q),
(306,0,l),
(0,0,l),
(0,10,l),
(36,10,o),
(81,53,o),
(81,90,qs),
(81,660,ls),
(81,696,o),
(36,740,o),
(0,740,q),
(0,750,l),
(102,750,ls),
(155,750,o),
(204,771,o),
(215,788,q),
(225,788,l)
);
}
);
};
layerId = "9BCDAEAC-6304-481D-8AE6-B16EBB77438F";
shapes = (
{
closed = 1;
nodes = (
(306,0,l),
(306,10,l),
(258,10,o),
(225,41,o),
(225,90,cs),
(225,788,l),
(215,788,l),
(208,777,o),
(196,768,o),
(180,761,cs),
(163,754,o),
(137,750,o),
(102,750,cs),
(0,750,l),
(0,740,l),
(48,740,o),
(81,708,o),
(81,660,cs),
(81,90,ls),
(81,41,o),
(48,10,o),
(0,10,c),
(0,0,l)
);
}
);
width = 289;
}
);
unicode = 108;
},
{
glyphname = lacute;
kernLeft = J;
lastChange = "2023-01-05 10:29:36 +0000";
layers = (
{
background = {
shapes = (
{
closed = 1;
nodes = (
(225,90,ls),
(225,53,o),
(270,10,o),
(306,10,q),
(306,0,l),
(0,0,l),
(0,10,l),
(36,10,o),
(81,53,o),
(81,90,qs),
(81,660,ls),
(81,696,o),
(36,740,o),
(0,740,q),
(0,750,l),
(102,750,ls),
(155,750,o),
(204,771,o),
(215,788,q),
(225,788,l)
);
},
{
closed = 1;
nodes = (
(48,801,l),
(41,811,l),
(178,1004,l),
(183,1004,l),
(248,946,l),
(248,941,l)
);
}
);
};
layerId = "9BCDAEAC-6304-481D-8AE6-B16EBB77438F";
shapes = (
{
ref = l;
},
{
pos = (31,260);
ref = acutecomb.case;
}
);
width = 289;
}
);
unicode = 314;
},
